<svg xmlns="http://www.w3.org/2000/svg" width="50" height="70" viewBox="7612.25 9397.27 7110.24 7190.33"><path d="M12591.81 12713.96c13.15 19.07-.57-46.24-1.69-69.15-38.15-778.74-717.46-1399.02-1549.88-1399.02-856.9 0-1551.57 657.32-1551.57 1468.17 0 236.3-44.74 576.09 163.81 657.3 688.48 268.1 2778.45-890.59 2939.33-657.3z" fill="#FFE600"/><path d="M13849.27 12270.73c-116.46 44.07-232.86 88.14-349.25 132.21-280.27 107.25-560.47 213.71-840.73 320.97-761.68 289.37-1525.05 574.6-2339.15 674.39-784.16 95.63-1658.95 26.6-2181.17-637.81-608.69-774.99-789.12-2089.66-2.48-2799 32.44-30.79 67.35-59.03 103.11-86.45 326.8-247.83 648.61-385.86 956.31-442.45 521.35-99.69 1000.33 24.98 1387.84 210.42 102.28 49.03 197.9 102.25 286.86 157.21-646.1 15.8-1116.75 281.87-1452.7 609.53l-1.66 1.62c-306.02 297.68-500.6 646.95-614.53 905.58-98.95 222-138.02 377.51-138.02 377.51-39.09-81.5-68.19-162.17-88.99-239.49-102.28-369.21-27.43-668.54-21.62-691.07-31.59 44.96-536.35 801.67 219.55 1828.63 278.54 377.52 641.11 548 993.69 612.03 498.93 89.8 975.4-34.93 1157.53-93.14 49.91-15.82 77.34-26.62 77.34-26.62l-202.1-113.92-315.96-177.95s191.23-59.87 349.24-92.3c23.3-5 49.92-4.17 81.5 0 182.12 24.12 480.66 178.78 662.72 136.37 213.71-49.05 672.72-387.5 672.72-387.5l-118.91-5.81-116.4-5.82-977.9-607.05s70.7-57.36 421.58-84.82c39.94-3.32 83.19-5.81 130.6-8.31 463.94-23.28 967.91 333.46 967.91 333.46s487.25 0 694.3-15.8c108.93-9.98 314.37-128.91 538.07-209.55 206.23-74.84 426.53-117.25 599.45-9.97 28.35 17.46 45.78 35.74 54.15 54.87 78.89 162.97-522.28 353.41-592.9 380.03z" fill="#173374"/><path d="M9766.33 13204.56c-545.5-34.93-1068.54-210.39-1426.11-666.08-549.65-699.34-750.05-1839.42-203.73-2576.99 32.44-30.79 67.35-59.03 103.11-86.45 326.8-247.83 648.61-385.86 956.31-442.45 127.14-24.28 251.81-35.32 373.23-35.32 376.36 0 721.61 105.5 1014.61 245.74-524.71 130.6-901.4 439.08-1165.84 766.74l-1.66 1.62c-306.02 297.68-500.6 646.95-614.53 905.58-138.87-407.48-53.2-750.93-47.38-774.98-20.79 29.86-253.63 378.32-179.63 913-40.85-147.47-53.44-283.8-53.47-395.78-.03-168.39 28.36-281.82 31.85-295.29-18.24 25.91-194.08 288.98-194.21 704.22-.09 304.22 94.13 690.16 413.76 1124.41 278.54 377.52 641.11 548 993.69 612.03z" fill="#132B61"/><path d="M13083.22 12063.59c62.75-2.08 120.29-4.71 165.1-8.08-44.81 3.37-102.35 6-165.1 8.08zm165.26-8.09c.16-.02.24-.02.41-.03-.17.01-.25.01-.41.03zm.57-.04c.08-.01.24-.02.41-.04-.17.02-.33.03-.41.04zm.57-.04l.31-.04-.31.04z" fill="#D5D5D5"/><path d="M12556.2 12071.15s-6.81-4.8-19.48-13.24c13.16 8.72 27.92 13.2 43.75 13.2h.24c75.82-.18 312.9-1.26 502.51-7.52-228.97 7.56-527.02 7.56-527.02 7.56z" fill="#BDAE2E"/><path d="M11743 11742.92zm-1.14-.13h-.08.08zm-5.77-.61s-.08-.01-.16-.01c.08 0 .16.01.16.01zm-1.14-.12l-.16-.02.16.02zm-1.12-.12zm-1.23-.12c-.08-.01-.24-.01-.32-.02.17.01.24.01.32.02zm-1.21-.13c-.08 0-.16 0-.25-.02.09.01.17.02.25.02zm-3.42-.34h-.16.16zm-.97-.08c-.16-.02-.24-.03-.4-.04.16.01.24.02.4.04zm-1.21-.13c-.16-.01-.25-.02-.41-.03.16.01.25.02.41.03zm-1.22-.1l-.41-.05c.08.02.33.03.41.05zm-1.22-.12c-.16-.01-.33-.03-.41-.03.08 0 .25.02.41.03zm-1.22-.1c-.17-.02-.32-.05-.49-.05.17.02.32.03.49.05zm-1.21-.12c-.08-.01-.24-.02-.32-.03.08.01.16.02.32.03zm-2.28-.21c-.08 0-.08-.01-.08-.01s0 .01.08.01zm-.73-.07c-.24-.01-.41-.03-.65-.04.16.01.41.03.65.04zm-1.3-.1c-.15-.01-.4-.04-.57-.05.17.01.42.04.57.05zm-1.21-.1c-.26-.03-.41-.04-.65-.06.24.02.39.03.65.06zm-1.22-.11c-.24-.02-.49-.03-.65-.06.16.03.41.04.65.06zm-1.3-.1c-.25-.03-.41-.04-.65-.06.24.02.4.03.65.06zm-1.22-.11c-.24-.01-.41-.03-.65-.04.24.01.41.03.65.04zm-1.3-.1c-.32-.03-.82-.06-1.13-.1.4.04.73.06 1.13.1zm-1.78-.14c-.16-.01-.41-.04-.57-.05.16.01.41.04.57.05zm-1.3-.11c-.16 0-.33-.02-.57-.04.24.02.41.04.57.04zm-1.22-.08c-.16-.02-.41-.03-.57-.06.16.03.41.04.57.06zm-1.22-.09a6.92 6.92 0 00-.64-.06c.16.01.48.03.64.06zm-1.21-.11c-.24-.01-.49-.03-.73-.04.24.01.49.03.73.04zm-1.3-.08c-.16-.02-.49-.03-.65-.06.16.03.49.04.65.06zm-1.22-.09c-.33-.02-.65-.05-.98-.07.33.02.65.05.98.07zm-1.63-.12c-.24-.01-.56-.03-.89-.05.33.02.65.03.89.05zm-1.29-.08c-.32-.03-.49-.04-.81-.06.24.02.57.04.81.06zm-1.3-.09c-.24-.02-.57-.05-.81-.06.24.01.57.04.81.06zm-1.22-.08c-.24-.02-.57-.05-.89-.06.32.01.57.04.89.06zm-1.3-.08zm-1.3-.1c-.25-.01-.64-.04-.97-.05.33.01.66.04.97.05zm-1.21-.07c-.81-.05-1.71-.1-2.52-.16.81.06 1.71.11 2.52.16zm-2.76-.17zm-1.38-.08zm-1.3-.07l-.97-.06.97.06zm-1.3-.07c-.24-.02-.65-.04-.89-.06.32.02.57.04.89.06zm-1.3-.07c-.32-.02-.65-.05-.98-.06.33.01.66.04.98.06zm-1.22-.07c-1.29-.07-2.59-.13-3.89-.2 1.3.07 2.6.13 3.89.2zm-4.05-.21c-.33-.01-.74-.04-1.14-.06.4.02.81.05 1.14.06zm-90.26-.05c14.62-.74 29.3-1.09 44.07-1.09h2.6-2.6c-14.69 0-29.45.36-44.07 1.09zm88.95-.01c-.32-.02-.73-.03-1.05-.04.32.01.65.02 1.05.04zm-1.37-.07c-.42-.01-.65-.02-1.05-.04.4.01.73.03 1.05.04zm-1.22-.05zm-1.3-.06c-1.3-.06-2.6-.11-3.89-.17 1.29.06 2.59.11 3.89.17zm-4.05-.17zm-1.39-.04c-.4-.03-.73-.04-1.05-.05.32.01.73.03 1.05.05zm-1.3-.06c-.32 0-.73-.02-1.04-.02.39 0 .72.02 1.04.02zm-1.3-.05c-.39-.01-.72-.02-1.06-.03.34.01.75.02 1.06.03zm-1.29-.03c-.32-.01-.81-.02-1.22-.05.41.03.81.03 1.22.05zm-1.22-.05c-.89-.02-1.79-.06-2.68-.08.89.02 1.79.05 2.68.08zm-2.68-.08zm-1.39-.05c-.39 0-.81-.02-1.12-.02.31 0 .73.01 1.12.02zm-1.37-.03zm-1.3-.04c-.4 0-.73-.01-1.06-.02.33.01.66.02 1.06.02zm-1.3-.03zm-1.21-.02c-1.38-.03-2.68-.06-3.98-.09 1.38.03 2.6.06 3.98.09zm-4.06-.09c-.41-.01-.82-.01-1.22-.02.4.01.81.01 1.22.02zm-1.37-.02c-.34-.01-.74-.01-1.06-.02.32.01.72.01 1.06.02zm-1.32-.03c-.39 0-.72 0-1.13-.02.41.02.74.02 1.13.02zm-1.29-.02c-.4-.01-.81-.01-1.14-.01.33 0 .74 0 1.14.01zm-1.3-.01zm-5.36-.05c-.4 0-.73 0-1.13-.02.4.02.73.02 1.13.02zm-1.3-.02h-1.12 1.12zm-1.37 0c-.33-.01-.73-.01-1.05-.01.32 0 .72 0 1.05.01z" fill="#C1BF25"/><path d="M10923.86 13111.42c49.91-15.82 77.34-26.62 77.34-26.62l-202.1-113.92c86.29-15.96 162.25-34.12 224.18-50.92 69.24-18.74 80.28-112.18 17.78-147.48l-127.18-71.85c160.29 21.23 410.94 143.69 592.91 143.69 24.68 0 48.06-2.25 69.81-7.32 213.71-49.05 672.72-387.5 672.72-387.5l-118.91-5.81c168.82-104.78 320.19-216.21 320.19-216.21l-164.2-8.12c-46.67-2.31-91.96-16.44-131.73-41.08l-696.98-432.28c39.94-3.32 83.19-5.81 130.6-8.31 14.62-.73 29.38-1.09 44.07-1.09h2.77c.32 0 .72 0 1.05.01h1.54c.4.02.73.02 1.13.02.09 0 .09 0 .17.01 1.71 0 3.5.02 5.19.04h.16c.33 0 .74 0 1.14.01h.16c.41.02.74.02 1.13.02 0 .01.18.01.26.01.32.01.72.01 1.06.02h.15c.4.01.81.01 1.22.02h.08c1.3.03 2.6.06 3.98.09.4.01.81.02 1.21.02.08 0 .16 0 .24.01.33.01.66.02 1.06.02.08 0 .17 0 .25.02.32.01.73.02 1.05.02.09 0 .17.01.25.01.31 0 .73.02 1.12.02h.09c.5.03.81.04 1.3.05.89.02 1.79.06 2.68.08.41.03.9.04 1.22.05h.23c.34.01.67.02 1.06.03.08.01.16.01.26.03.31 0 .72.02 1.04.02.08.01.17.01.25.01.32.01.65.02 1.05.05h.25c.41.02.73.03 1.14.04h.16c1.29.06 2.59.11 3.89.17.08.01 0 .01.08.01.41.01.82.03 1.22.05.08.01.08.01.17.01.4.02.63.03 1.05.04.09.01.25.01.32.03.32.01.73.02 1.05.04h.17c.4.02.81.05 1.14.06.08 0 .08.01.16.01 1.3.07 2.6.13 3.89.2.08 0 .16 0 .24.01.33.01.66.04.98.06.16 0 .24.01.41.01.24.02.65.04.89.06.17 0 .25.01.33.01l.97.06c.07.01.25.01.33.02.32.02.64.04.97.05.09.01.24.01.32.02.32.03.73.05 1.06.06.08.01.16.01.24.01.81.06 1.71.11 2.52.16.08.02.24.02.24.02.33.01.72.04.97.05.17.03.34.03.49.04.24.01.58.03.81.06.16.01.33.01.41.02.32.01.65.04.89.06.16.01.24.01.41.02.24.01.57.04.81.06.25.01.33.02.49.03.32.02.49.03.81.06.17 0 .32.02.4.03.33.02.65.04.89.05.25.03.49.04.65.05.33.02.65.05.98.07.16.01.32.02.57.03.16.03.49.04.65.06.24.02.41.03.57.04.24.01.49.03.73.04.16.03.31.04.57.05.16.01.48.03.64.06.24.01.42.02.65.03.16.03.41.04.57.06.24.01.49.02.65.04.24.02.41.04.57.04.24.03.49.04.73.06.16.01.41.04.57.05.24.01.41.03.65.04.31.04.81.07 1.13.1.24.02.49.04.65.06.24.01.41.03.65.04.16.03.33.04.57.05.24.02.4.03.65.06.24.02.41.03.65.04.16.03.41.04.65.06.16.02.33.02.57.05.24.02.39.03.65.06.16.02.4.03.64.05.17.01.42.04.57.05.24.02.49.04.65.06.24.01.41.03.65.04.24.03.41.04.65.06 0 0 0 .01.08.01l1.96.18c.08.01.24.02.32.03.24.03.48.05.72.07.17 0 .32.03.49.05.24.01.49.03.81.07.08 0 .25.02.41.03.24.03.49.05.81.07l.41.05c.32.02.57.05.81.07.16.01.25.02.41.03.24.04.49.06.81.09.16.01.24.02.4.04.25.03.58.05.81.08h.16c1.06.11 2.12.21 3.17.32.09.02.17.02.25.02.32.04.65.07.89.11.08.01.24.01.32.02.33.03.57.07.89.09.08.01.25.03.34.03.31.04.64.07.96.1l.16.02c.33.04.66.06.98.11.08 0 .16.01.16.01 1.96.2 3.82.39 5.69.61h.08c.32.04.73.1 1.14.13 360.29 40.03 708.42 258.3 793.48 314.84.08.06.16.09.24.15 12.67 8.44 19.48 13.24 19.48 13.24s298.05 0 527.02-7.56c62.75-2.08 120.29-4.71 165.1-8.08.08 0 .16 0 .16-.01.16-.02.24-.02.41-.03.08-.01.08-.01.16-.01.08-.01.24-.02.41-.04h.16l.31-.04c.26 0 .42-.02.57-.03 108.93-9.98 314.37-128.91 538.07-209.55 117.28-42.58 239.2-74.66 354.28-74.66 87.26 0 170.7 18.43 245.17 64.69 28.35 17.46 45.78 35.74 54.15 54.87-158.02 80.66-353.45 143.86-391.69 158-116.39 44.06-232.86 88.97-349.26 133.05-280.26 106.44-560.45 213.71-840.72 320.15-634.4 241.97-1270.59 479.79-1936.64 609.52zm2166.27-11.21c229.53-256.96 177.99-498.1 177.99-498.1l-549.66 246.13 371.67 251.97z" fill="#132B61"/><path d="M14662.46 11854.95c16.62-113.93-45.66-188.76-142.21-237.84-236.1-120.57-680.14-84.82-680.14-84.82 382.53-634.45-221.99-1482.61-858.18-1642.26-600.4-152.21-1254.77 118.05-1757.03 434.09-192.93 120.49-378.39 255.27-556.34 396.55-124.72 99-241.98 211.25-374.18 301.9-42.41 29.09-86.48 55.7-132.23 79.82 14.13-14.96 32.41-28.28 49.07-42.41 589.59-533 1066.04-1301.36 1856.84-1553.38 75.65-24.05 153.82-45.66 234.49-62.27 582.06-123.98 1273.92 46.47 1766.19 433.15 257.82 202.99 460.69 464.07 565.49 773.36 137.22 404.15 88.19 793.31 28.23 1204.11z" fill="#04A8DC"/><path d="M14520.25 11617.11c-148.14-75.67-378.37-89.77-529.18-89.77-89.44 0-150.96 4.95-150.96 4.95 82.7-137.23 119.31-284.48 119.31-432.58.16-536.59-478.97-1084.66-977.49-1209.68-118.52-30.09-239.28-43.69-360.47-43.69-492.52 0-993.48 224.13-1396.56 477.78-192.93 120.49-378.39 255.27-556.34 396.55-124.72 99-241.98 211.25-374.18 301.9 472.34-493.15 914.7-1066.08 1576.61-1277.31 75.65-24.05 153.81-45.67 234.49-62.28 125.81-26.84 256.74-39.85 389.68-39.85 481.9 0 989.84 170.8 1375.7 473.82 257.79 202.17 461.51 464.06 566.31 772.56 83.08 245.31 98.18 485.63 83.08 727.6z" fill="#038CB7"/><path d="M8697 14418.72v-244H7621.29v244h396.46v726.37h282.79v-726.37H8697zm141.4 726.37h281.42v-970.37H8838.4v970.37zm547.58 0h275.85v-544.8l281.42 544.8h205.16l281.42-544.8v544.8h275.85v-970.37h-331.32l-328.55 639.05-328.51-639.05h-331.32v970.37zm1585.86 0h881.66v-225.95h-600.24v-189.92h535.08v-217.64h-535.08v-110.91h593.3v-225.95h-874.72v970.37zm2477.18-726.37v-244h-1075.71v244h396.46v726.37h282.8v-726.37h396.45zm54.07 242.58c0 324.38 238.42 508.74 594.7 508.74 354.87 0 593.3-184.36 593.3-508.74s-238.43-508.74-593.3-508.74c-356.28 0-594.7 184.36-594.7 508.74zm594.7-266.16c178.83 0 304.97 91.49 304.97 266.16 0 173.26-126.14 266.16-304.97 266.16-178.82 0-304.96-92.9-304.96-266.16 0-174.67 126.14-266.16 304.96-266.16z" fill="#132B61"/><path d="M8697 15861.22v-243.99H7621.29v243.99h396.46v726.38h282.79v-726.38H8697zm141.4 726.38h281.42v-399.25h158.03l325.76 399.25h334.08l-347.96-420.04c137.23-29.11 223.19-123.39 223.19-264.79 0-221.78-176.04-285.54-436.67-285.54H8838.4v970.37zm604.39-752.74c48.53 0 83.18 23.58 83.18 70.7 0 44.37-37.43 69.32-83.18 69.32h-322.97v-140.02h322.97zm1262.86-217.63h-331.29l-444.99 970.37h307.75l117.82-264.79h368.72l117.85 264.79h310.5l-446.36-970.37zm-61.01 489.32h-210.69l105.35-237.01 105.34 237.01zm852.58 481.05h329.92l443.58-970.37h-310.5l-298.06 690.35-296.64-690.35h-311.91l443.61 970.37zm914.9 0h881.66v-225.95h-600.24v-189.93h535.07v-217.63h-535.07v-110.91h593.29v-225.95h-874.71v970.37zm1125.61 0h866.4v-242.59h-584.98v-727.78h-281.42v970.37z" fill="#04A8DC"/><path d="M13155.66 13143.15c229.53-256.96 177.99-498.1 177.99-498.1l-549.66 246.13 371.67 251.97z" fill="#173374"/></svg>