<svg width="211" height="222" fill="none" xmlns="http://www.w3.org/2000/svg"><path fill-rule="evenodd" clip-rule="evenodd" d="M112.178 29.238c-.427-.018-.463-.695.035-.73h.036l.729.07c.48.054.409.749-.071.731l-.729-.071zm2.898.285c-.462-.054-.409-.748.089-.73.249.035.481.053.73.088.444.054.409.749-.089.73-.249-.035-.481-.053-.73-.088zm2.881.392c-.48-.09-.373-.784.107-.713l.729.125c.463.089.374.748-.089.73a10.767 10.767 0 01-.747-.124v-.018zm2.864.499c-.445-.09-.374-.784.142-.713.249.053.48.089.729.142.409.072.373.731-.071.731h-.071l-.712-.143-.017-.017zm2.845.605c-.463-.106-.32-.801.16-.712l.711.16c.409.107.356.713-.089.713h-.071a35.92 35.92 0 00-.711-.16zm2.81.713c-.409-.107-.338-.748.124-.713h.053c.232.072.481.143.712.196.373.09.355.713-.125.713h-.089c-.231-.071-.462-.125-.693-.196h.018zm2.792.802c-.427-.143-.267-.784.195-.713.249.071.498.143.729.232a.366.366 0 01-.142.713h-.071l-.694-.214-.017-.018zm2.756.909c-.427-.143-.267-.82.231-.695.231.07.48.16.712.25.462.177.213.837-.249.694l-.694-.25zm2.721.997c-.427-.178-.214-.837.267-.677l.693.268c.391.16.231.783-.213.694h-.054l-.675-.267-.018-.018zm2.685 1.105c-.427-.196-.16-.855.285-.677l.675.303c.392.178.196.784-.231.695-.017 0-.053 0-.071-.018l-.676-.285.018-.018zm2.65 1.194c-.391-.196-.178-.82.284-.677.232.089.463.213.694.32.427.214.124.855-.32.66-.213-.107-.445-.214-.658-.321v.018zm2.596 1.283c-.391-.197-.142-.82.285-.678h.053c.214.125.427.25.658.357.178.089.231.285.16.463a.37.37 0 01-.516.178c-.213-.107-.426-.231-.64-.338v.018zm2.561 1.39c-.409-.232-.089-.856.356-.642l.64.374c.356.214.142.784-.285.66-.035 0-.053-.019-.088-.037-.214-.124-.427-.231-.623-.356zm2.508 1.478c-.409-.267-.036-.873.373-.624.213.125.409.25.622.392.356.232.107.802-.32.66a.138.138 0 01-.071-.036c-.195-.125-.409-.25-.622-.374l.018-.018zm2.454 1.568a.36.36 0 01.035-.624c.125-.053.249-.053.356.018.196.143.409.267.605.41a.35.35 0 01.142.374.377.377 0 01-.569.232c-.196-.143-.409-.268-.605-.41h.036zm2.383 1.657c-.356-.25-.036-.837.391-.624h.035c.196.16.392.303.587.464.374.285-.035.855-.427.587l-.586-.427zm2.329 1.728c-.355-.267 0-.837.409-.606h.036c.195.178.391.321.587.481.338.268 0 .838-.427.588-.196-.142-.391-.302-.605-.463zm2.277 1.817a.39.39 0 01-.107-.427c.089-.232.373-.285.569-.143.196.16.373.321.569.464.373.338-.107.855-.48.552l-.551-.463v.017zm2.08 1.586c.036-.25.338-.445.587-.25l-.605.25h.018zm7.238 6.396l.107.107s.071.107.089.16a.366.366 0 01-.463.428l.267-.712v.017zm.978 2.245c-.267-.32.142-.784.516-.516.018 0 .035.035.053.053l.463.57c.284.339-.196.82-.534.5l-.035-.036-.463-.553v-.017zm1.832 2.263c-.285-.374.231-.82.569-.463.16.196.302.392.462.588a.369.369 0 01-.587.445l-.444-.57zm1.743 2.316a.35.35 0 01-.018-.392c.124-.231.462-.249.622-.035l.427.588a.37.37 0 01.036.356c-.107.25-.481.303-.623.071l-.427-.588h-.017zm1.671 2.388c-.231-.339.231-.802.587-.445l.036.035.409.606c.249.41-.338.802-.605.41l-.409-.606h-.018zm1.583 2.44c-.249-.427.373-.783.622-.373l.392.623c.213.374-.267.749-.569.446 0-.018-.036-.036-.054-.054l-.373-.623-.018-.018zm1.494 2.495a.365.365 0 01.106-.48.348.348 0 01.516.124l.356.641a.399.399 0 010 .374.366.366 0 01-.623-.017l-.355-.642zm1.405 2.548c-.214-.428.409-.766.64-.338.107.213.231.427.338.659.089.178.035.392-.143.48a.347.347 0 01-.497-.16c-.107-.213-.232-.427-.338-.641zm1.316 2.601c-.196-.427.409-.748.64-.338.107.214.213.463.32.677a.383.383 0 01-.142.463.368.368 0 01-.516-.16c-.107-.214-.213-.446-.32-.66l.018.018zm1.209 2.637c-.178-.445.462-.73.676-.285.106.214.195.446.284.677.178.446-.462.713-.658.303-.106-.231-.195-.463-.302-.677v-.018zm1.12 2.69c-.16-.391.391-.694.64-.338 0 .018.018.036.036.071l.267.677c.16.392-.409.713-.658.321 0-.018 0-.035-.018-.053-.089-.232-.178-.446-.267-.677zm1.014 2.727a.35.35 0 01.213-.464.367.367 0 01.48.214l.249.695c.143.428-.462.695-.675.285v-.035l-.249-.695h-.018zm.925 2.761s-.018-.124 0-.178c.089-.374.586-.41.711-.035l.213.694c.125.392-.444.677-.675.285 0-.017-.018-.035-.036-.07l-.213-.696zm.818 2.797a.47.47 0 01.035-.267c.16-.285.587-.231.676.072l.196.712c.106.446-.516.66-.694.232v-.036l-.196-.695-.017-.017zm.729 2.816c-.107-.41.48-.642.676-.232 0 .018.017.053.017.071.054.232.107.481.16.713.089.481-.604.623-.711.16-.053-.231-.107-.463-.16-.712h.018zm.622 2.832c-.089-.445.587-.623.712-.142.053.25.088.481.142.73 0 .09 0 .179-.054.25-.177.285-.604.196-.675-.125-.054-.231-.089-.48-.143-.713h.018zm.516 2.87c-.053-.482.64-.589.729-.108l.107.73c.053.482-.64.57-.712.125l-.124-.73v-.018zm.409 2.885c0-.089 0-.178.053-.249a.358.358 0 01.658.16l.089.731c.054.427-.569.588-.711.142v-.071l-.089-.73v.017zm.32 2.887c-.018-.357.373-.535.622-.285a.477.477 0 01.107.214c.018.249.036.481.071.73.036.463-.675.535-.729.071l-.071-.73zm.907 12.418c0 .161-.142.303-.32.321a.384.384 0 01-.356-.16l.676-.161zm-.889 2.12c.035-.427.693-.463.729.036 0 .25-.036.517-.071.766-.054.428-.676.446-.729 0v-.071c.017-.232.053-.481.071-.731zm-.302 2.887c.053-.428.693-.428.729.035v.054l-.089.73c-.054.446-.747.41-.729-.089l.089-.73zm-.41 2.886c.089-.463.747-.374.73.089-.036.25-.072.499-.125.749-.089.427-.693.392-.729-.054v-.071l.124-.713zm-.515 2.869c.089-.446.782-.374.711.124-.053.25-.089.481-.142.731-.071.41-.729.392-.729-.089v-.054c.053-.231.106-.481.16-.712zm-.605 2.833c.107-.464.8-.321.711.16l-.177.713c-.107.409-.712.356-.712-.089v-.072l.16-.712h.018zm-.711 2.815c.107-.41.782-.321.711.16v.036l-.195.712c-.089.375-.712.357-.712-.124v-.089l.196-.695zm-.818 2.797a.365.365 0 01.711.143v.071l-.213.695s-.089.16-.178.213c-.285.161-.623-.124-.516-.427l.214-.695h-.018zm-.907 2.762c.142-.428.818-.268.693.231-.071.232-.16.481-.249.713-.16.374-.711.285-.711-.143 0-.035 0-.071.018-.107.089-.231.16-.445.249-.677v-.017zm-1.014 2.726c.178-.428.836-.214.676.267l-.267.695c-.16.41-.818.214-.693-.25.089-.231.195-.463.284-.712zm-1.102 2.69c.195-.428.853-.16.675.303-.089.232-.195.445-.302.677-.196.41-.818.178-.676-.267.089-.232.196-.464.303-.695v-.018zm-1.21 2.655c.178-.392.801-.178.676.267 0 .018 0 .036-.018.053-.106.214-.213.446-.32.66-.195.392-.818.16-.676-.285.107-.232.232-.464.338-.695zm-1.298 2.601c.249-.428.854-.089.64.339l-.338.641c-.106.178-.284.232-.462.16a.37.37 0 01-.178-.516l.338-.642v.018zm-1.387 2.548c.213-.392.818-.107.658.321v.035l-.391.642c-.214.356-.783.142-.676-.285 0-.036.018-.054.036-.09l.355-.623h.018zm-1.476 2.494c.249-.392.836-.053.622.374-.124.214-.266.428-.391.642-.231.356-.8.107-.658-.321 0-.018.018-.053.036-.071l.391-.624zm-1.565 2.441c.249-.356.8-.071.64.357 0 .017 0 .035-.035.053l-.409.606a.393.393 0 01-.374.16.377.377 0 01-.231-.57l.409-.606zm-1.654 2.388c.303-.392.872.035.587.427l-.427.588c-.284.374-.871-.035-.587-.427l.427-.588zm-1.743 2.334c.267-.339.836 0 .587.427-.142.196-.32.41-.462.606-.267.339-.836 0-.587-.428.142-.196.32-.409.462-.605zm-1.831 2.262c.249-.302.782-.035.604.392 0 .018-.017.054-.053.072l-.48.552c-.338.356-.854-.107-.551-.481l.462-.552.018.017zm-7.807 9.105c-.107.089-.214.196-.32.285-.303.285-.801-.107-.534-.499 0-.018.036-.036.054-.053l.035-.036.765.303zm-2.454 1.158c.32-.267.782.143.515.517-.017 0-.035.035-.053.053-.196.161-.373.321-.569.463-.391.303-.818-.267-.462-.57.177-.16.373-.303.551-.463h.018zm-2.259 1.835c.356-.285.818.232.463.57-.196.161-.392.303-.587.464-.32.249-.765-.143-.516-.517a.137.137 0 01.071-.071c.196-.143.391-.303.569-.446zm-2.329 1.746a.35.35 0 01.391-.018c.231.125.249.464.035.624l-.604.428a.363.363 0 01-.498-.072c-.125-.16-.089-.409.071-.516l.587-.428.018-.018zm-2.383 1.657c.338-.231.8.232.444.57l-.035.036-.605.41c-.373.249-.782-.303-.427-.588h.036c.195-.161.409-.285.604-.428h-.017zm-2.437 1.568c.427-.249.783.356.392.624-.214.124-.409.249-.623.374a.354.354 0 01-.498-.125c-.107-.16-.053-.41.125-.517l.622-.374-.018.018zm-2.489 1.479a.363.363 0 01.48.107.367.367 0 01-.125.534c-.213.125-.426.25-.64.357-.373.213-.765-.303-.409-.606l.053-.036c.214-.124.427-.231.641-.356zm-2.543 1.39a.393.393 0 01.373.017c.231.143.213.499-.036.624l-.657.339c-.41.196-.747-.375-.374-.624.213-.125.462-.232.676-.356h.018zm-2.597 1.3a.362.362 0 01.409.588.3.3 0 01-.089.072l-.658.32a.38.38 0 01-.462-.142.368.368 0 01.16-.517l.658-.303-.018-.018zm-2.649 1.212c.302-.125.586.142.48.463a.389.389 0 01-.196.214l-.676.285c-.444.178-.711-.445-.302-.659.231-.107.462-.196.694-.303zm-2.686 1.105c.391-.161.712.409.32.659h-.053l-.676.285c-.391.16-.711-.41-.32-.659.018 0 .036-.018.053-.018l.676-.267zm-2.721 1.015c.427-.142.694.463.285.677h-.036l-.693.25c-.409.142-.676-.428-.303-.66.018 0 .036-.017.072-.035l.693-.232h-.018zm-2.756.909s.124-.018.178 0c.373.071.409.588.035.712l-.693.214c-.249.072-.516-.142-.463-.41a.408.408 0 01.249-.285l.694-.213v-.018zm-2.792.819a.47.47 0 01.267.036c.284.16.231.588-.071.677l-.712.196a.359.359 0 01-.409-.196c-.107-.214 0-.463.231-.517l.694-.196zm-2.81.713c.391-.089.64.445.267.677-.036.018-.071.036-.107.036l-.711.16c-.48.089-.623-.588-.16-.713l.711-.16zm-2.845.606c.427-.071.622.516.195.695h-.071l-.711.142c-.089 0-.178 0-.249-.053-.285-.178-.196-.606.124-.677l.712-.143v.036zm-2.863.516c.48-.053.587.642.106.731-.231.018-.498.071-.729.107-.48.053-.587-.642-.106-.731.231-.035.498-.089.729-.107zm-2.881.41c.089 0 .178 0 .249.054a.36.36 0 01-.16.659l-.729.089c-.427.053-.569-.57-.16-.713h.071c.231-.017.48-.053.729-.089zm-2.881.303c.48-.035.551.677.071.731l-.729.053c-.48.036-.534-.677-.071-.73l.729-.054zm-11.559.909h-.089c-.249 0-.498-.018-.729-.036-.143 0-.267-.107-.32-.249a.361.361 0 01.373-.481c.196 0 .409.018.622.035l.16.731h-.017zm-2.952-.927c.48.054.409.766-.072.731l-.729-.071c-.426-.054-.444-.677 0-.731h.071l.73.071zm-2.881-.32c.427.053.427.695-.036.73h-.053c-.25-.035-.48-.071-.73-.089-.426-.053-.426-.73.072-.73.249.017.516.071.747.106v-.017zm-2.881-.41c.462.089.373.748-.09.73-.248-.035-.515-.089-.746-.124-.462-.089-.356-.784.124-.713l.73.125-.018-.018zm-2.863-.517c.409.071.373.731-.072.731h-.07l-.712-.143c-.409-.071-.391-.713.089-.713h.053l.712.161v-.036zm-2.828-.623a.361.361 0 01-.107.712h-.07l-.712-.178c-.391-.107-.356-.695.071-.713h.107l.711.179zm-2.81-.731c.41.107.32.784-.16.713-.249-.054-.498-.143-.747-.214-.444-.143-.266-.82.196-.695.231.071.462.143.694.196h.017zm-2.792-.82a.366.366 0 01-.142.713h-.071c-.231-.071-.462-.142-.694-.231a.42.42 0 01-.213-.179c-.16-.285.124-.623.445-.516l.693.213h-.018zm-2.756-.926c.445.178.213.837-.25.695l-.693-.25c-.373-.16-.284-.712.143-.712.035 0 .07 0 .106.018l.694.249zm-2.72-1.033c.39.16.23.784-.214.694h-.054l-.675-.267c-.41-.16-.214-.802.248-.677.232.089.48.196.712.285l-.018-.035zm-2.686-1.123c.391.178.195.784-.231.695-.018 0-.054 0-.072-.018l-.675-.303c-.41-.196-.178-.819.266-.677.232.089.463.214.694.303h.018zm-2.632-1.211c.427.213.124.855-.32.659l-.658-.321c-.391-.196-.16-.819.284-.677h.036l.658.339zm-2.597-1.319c.178.089.232.285.16.463a.37.37 0 01-.515.179l-.64-.339c-.374-.214-.143-.82.32-.659h.035l.64.356zm-2.543-1.407c.392.213.107.819-.32.659-.23-.107-.462-.267-.675-.392-.392-.214-.09-.855.355-.642l.64.375zm-2.49-1.497c.392.249.054.837-.373.624-.213-.125-.426-.268-.64-.41-.373-.25-.053-.838.373-.624.214.125.427.267.64.41zm-2.436-1.586c.356.25.072.802-.355.642-.018 0-.036 0-.054-.036-.195-.143-.409-.267-.604-.41a.365.365 0 01-.125-.445c.09-.214.356-.285.552-.161.195.143.39.268.604.41h-.018zm-2.383-1.675c.374.303-.035.873-.426.588l-.587-.427c-.374-.285 0-.838.409-.606.195.143.409.303.604.445zm-2.311-1.746c.337.268 0 .838-.427.588-.196-.142-.41-.32-.605-.481-.338-.267 0-.819.41-.606 0 0 .035.018.053.036.195.16.373.303.569.446v.017zm-2.259-1.835c.302.25.036.784-.409.606-.018 0-.053-.036-.071-.053l-.551-.482c-.356-.32.089-.855.48-.552.178.161.373.321.551.463v.018zm-8.874-7.608l-.48-.552c-.267-.303.107-.802.498-.534.018 0 .035.035.053.053l.231.267-.302.766zm-1.351-2.69c.284.339-.196.82-.534.499l-.035-.036a7.14 7.14 0 01-.463-.57c-.249-.321.107-.73.463-.552a.531.531 0 01.106.089c.16.178.303.374.463.57zm-1.814-2.263s.07.125.07.196a.369.369 0 01-.657.25l-.445-.588c-.249-.321.143-.766.516-.517a.142.142 0 01.071.071l.445.588zm-1.743-2.334a.37.37 0 01.035.357c-.106.249-.48.285-.622.071l-.427-.606a.365.365 0 01.072-.499.354.354 0 01.515.089l.427.588zm-1.654-2.387c.267.41-.338.801-.605.41l-.409-.606c-.248-.374.303-.784.587-.428v.036l.427.606v-.018zm-1.565-2.459c.214.374-.267.748-.569.445 0-.017-.035-.035-.053-.053l-.374-.624a.356.356 0 01.125-.499c.16-.106.409-.053.498.125l.373.624v-.018zm-1.476-2.512a.398.398 0 010 .374.365.365 0 01-.622-.018l-.356-.641c-.213-.374.302-.766.605-.41l.035.053.356.642h-.018zm-1.387-2.566c.089.178.036.392-.142.481a.355.355 0 01-.498-.142l-.338-.66c-.196-.409.373-.748.622-.374v.036l.356.641v.018zm-1.298-2.601a.383.383 0 01-.142.463.367.367 0 01-.516-.16l-.302-.66c-.196-.409.409-.748.657-.32.107.214.214.463.32.677h-.017zm-1.192-2.655c.125.303-.142.588-.462.481a.383.383 0 01-.213-.196c-.09-.231-.196-.445-.285-.677-.178-.445.462-.713.658-.303.107.232.196.463.285.695h.017zm-1.102-2.69c.16.392-.41.712-.658.32v-.053a11.414 11.414 0 01-.285-.695c-.142-.374.392-.713.658-.321 0 .018.018.036.036.072.089.231.178.445.267.677h-.018zm-.996-2.726c.142.427-.462.695-.676.267v-.036l-.249-.695c-.142-.409.427-.677.658-.302 0 .017.018.035.036.071l.23.695zm-.907-2.762c.124.392-.445.677-.676.285 0-.018-.018-.035-.035-.071l-.214-.695c-.07-.249.16-.517.41-.463a.403.403 0 01.284.249l.213.695h.018zm-.8-2.797c.106.445-.516.641-.694.214v-.036l-.195-.713a.359.359 0 01.195-.409c.214-.107.463 0 .516.231l.178.695v.018zm-.712-2.815c.09.481-.604.623-.71.16l-.161-.713a.368.368 0 01.676-.267.25.25 0 01.035.107l.16.713zm-.604-2.851c.07.428-.516.624-.694.196v-.071c-.053-.232-.089-.481-.142-.731 0-.071 0-.142.018-.196.142-.338.64-.285.693.072.036.231.09.481.143.712l-.018.018zm-.498-2.869c.053.482-.64.571-.73.125-.035-.249-.07-.499-.106-.73-.053-.481.64-.588.73-.107l.106.73v-.018zm-.391-2.886c.053.428-.57.588-.712.143v-.072l-.089-.73c-.053-.428.57-.57.712-.16v.071l.089.73v.018zm-.285-2.886c.036.481-.676.552-.73.071l-.052-.748c-.036-.446.64-.535.729-.089v.035l.053.731zm-.854-11.813l.036-.588c0-.142.107-.267.249-.321a.361.361 0 01.48.375v.374l-.765.16zm.943-2.708c-.053.481-.765.41-.73-.071.019-.25.054-.481.072-.731.053-.427.676-.427.73 0v.071c-.019.25-.054.481-.072.731zm.32-2.887c-.053.446-.747.41-.729-.089.036-.249.071-.498.107-.73.053-.428.729-.428.729.071v.036l-.107.712zm.427-2.868c-.071.428-.694.392-.73-.053v-.072l.125-.712c.09-.464.783-.357.712.124l-.125.73.018-.017zm.533-2.868c-.07.41-.729.374-.729-.072v-.071c.054-.232.107-.481.143-.713.07-.374.657-.392.729.036v.125c-.054.231-.107.48-.143.712v-.017zm.623-2.834c-.107.41-.712.357-.712-.088v-.072c.054-.231.107-.48.178-.713.107-.427.765-.32.712.143-.054.25-.125.499-.178.748v-.017zm.729-2.814c-.089.391-.711.356-.711-.125v-.09l.195-.712c.142-.445.818-.267.694.214l-.196.695.018.017zm.836-2.78a.415.415 0 01-.178.214c-.285.16-.622-.125-.516-.428l.231-.695s.09-.16.178-.213c.285-.16.623.124.516.427l-.231.695zm.942-2.762a.367.367 0 01-.711-.142c0-.036 0-.071.018-.107l.249-.695a.344.344 0 01.302-.231c.267-.036.48.249.391.48l-.249.678v.017zm1.032-2.726c-.16.392-.783.232-.694-.213v-.054c.09-.231.178-.445.285-.677.16-.392.782-.25.693.232v.053c-.107.232-.195.446-.284.677v-.018zm1.12-2.672c-.178.392-.782.196-.694-.232 0-.018 0-.053.018-.071.107-.232.196-.445.303-.677.177-.392.782-.196.693.231 0 .018 0 .054-.018.072-.106.214-.195.445-.302.659v.018zm1.227-2.637c-.213.428-.854.125-.658-.32.107-.215.213-.446.32-.66.196-.392.818-.16.676.285v.053a7.638 7.638 0 00-.338.66v-.018zm1.316-2.601c-.089.178-.285.231-.462.16a.37.37 0 01-.178-.517c.107-.213.231-.427.355-.641a.368.368 0 01.463-.16c.196.07.284.32.178.516-.125.214-.231.428-.338.642h-.018zm1.405-2.548c-.213.356-.783.142-.676-.285 0-.036.018-.054.036-.09l.373-.64a.367.367 0 01.658.32c-.107.231-.267.463-.391.677v.018zm1.494-2.495c-.231.357-.8.107-.658-.32 0-.018 0-.036.035-.072l.392-.623c.249-.374.835-.054.622.374-.124.214-.267.428-.409.641h.018zm1.582-2.44a.39.39 0 01-.373.16.378.378 0 01-.231-.57l.409-.606a.364.364 0 01.444-.125c.214.09.285.357.16.552l-.409.606v-.017zm1.672-2.37c-.284.374-.871-.036-.587-.428.143-.196.285-.392.445-.588.284-.374.836 0 .605.41-.143.196-.303.41-.445.606h-.018zm1.76-2.316c-.266.338-.835 0-.586-.428.142-.196.32-.41.48-.606.267-.338.818 0 .605.41 0 0-.018.036-.036.053l-.444.57h-.018zm1.832-2.245c-.337.356-.853-.107-.55-.481l.48-.553c.32-.356.853.09.55.481-.16.178-.32.374-.48.553zm7.523-8.606s.035-.125.07-.178c0-.018.036-.036.054-.054l.552-.48c.302-.268.8.106.533.498 0 .018-.035.036-.053.054l-.498.427-.658-.25v-.017zm2.81-1.586c-.392.303-.819-.267-.463-.57l.57-.463c.32-.25.728.107.55.463-.035.036-.053.071-.088.107l-.57.463zm2.276-1.817c-.32.25-.765-.143-.516-.517a.14.14 0 01.071-.071l.587-.445c.338-.268.8.213.462.57h-.035l-.587.463h.018zm2.33-1.728a.363.363 0 01-.498-.072c-.125-.16-.09-.41.07-.516l.605-.428c.356-.25.765.214.48.553l-.053.053-.587.428-.018-.018zm2.4-1.64c-.409.25-.8-.338-.409-.605l.623-.41c.302-.196.675.125.533.445-.035.072-.071.125-.142.16l-.605.393v.018zm2.454-1.55c-.373.214-.747-.267-.444-.587.017 0 .035-.036.053-.054.214-.125.427-.25.623-.374.409-.232.782.356.39.623-.213.125-.426.25-.64.393h.018zm2.508-1.46a.396.396 0 01-.374 0 .367.367 0 01.018-.624l.64-.356a.352.352 0 01.374.017c.23.16.213.481-.036.624l-.64.356.018-.018zm2.56-1.372c-.177.089-.39.035-.48-.143a.35.35 0 01.16-.499l.659-.338c.373-.196.729.338.39.605-.017 0-.053.036-.07.054l-.64.32h-.018zm2.615-1.283a.389.389 0 01-.463-.143.369.369 0 01.16-.517 8.14 8.14 0 01.676-.302c.374-.178.73.32.374.623-.018 0-.036.036-.072.036l-.657.303h-.018zm2.65-1.194c-.445.178-.712-.463-.303-.66.231-.106.463-.195.694-.284.373-.16.693.338.355.623-.035.018-.053.036-.089.054l-.675.285.017-.018zm2.685-1.087c-.391.16-.712-.41-.32-.66 0 0 .035 0 .053-.017l.676-.267c.373-.16.711.392.32.641-.018 0-.036.018-.071.036l-.676.267h.018zm2.738-.998c-.409.143-.675-.427-.302-.659.018 0 .036-.018.071-.035l.694-.232c.409-.143.675.428.302.66-.018 0-.035.017-.071.035l-.694.231zm2.757-.89c-.25.07-.516-.143-.463-.41a.404.404 0 01.25-.285l.693-.214c.48-.125.658.552.196.695l-.694.214h.018zm2.792-.802c-.445.107-.658-.517-.231-.695.23-.071.498-.143.746-.196a.465.465 0 01.267.036c.303.16.231.588-.089.677-.23.053-.462.124-.693.178zm2.827-.695c-.48.089-.622-.606-.16-.713.231-.053.48-.107.712-.16.462-.09.622.57.178.713-.25.07-.498.107-.747.16h.017zm2.846-.588c-.09 0-.178 0-.25-.053-.284-.179-.195-.606.125-.677l.73-.125s.142 0 .195.018a.364.364 0 01-.071.694l-.712.143h-.017zm2.863-.481c-.48.053-.587-.641-.107-.73l.73-.108c.462-.053.586.624.106.731l-.73.107zm2.88-.392c-.426.053-.586-.57-.142-.713h.072c.249-.035.48-.053.729-.071.409-.053.587.57.142.713h-.071c-.231.017-.48.053-.73.07zm2.9-.285c-.48.036-.534-.677-.072-.73l.747-.054c.445-.036.551.641.09.73h-.036l-.73.054zm.124 5.22c-15.88 1.319-30.356 7.537-41.969 17.122.391.303.711.695.907 1.14 11.257-9.318 25.306-15.393 40.706-16.765l.338-1.497h.018zm-52.23 27.403c-9.585 11.617-15.774 26.12-17.09 42.012l1.494-.338c1.37-15.43 7.433-29.487 16.752-40.765a3.143 3.143 0 01-1.138-.91h-.018zm-17.09 54.823a75.722 75.722 0 0017.108 41.994 3.154 3.154 0 011.138-.908c-9.3-11.278-15.365-25.336-16.752-40.748l-1.494-.338zm27.369 52.275c11.737 9.692 26.426 15.946 42.52 17.158l-.338-1.497c-15.614-1.283-29.858-7.376-41.275-16.819-.214.445-.516.855-.907 1.14v.018zm54.737 17.104c15.863-1.318 30.356-7.536 41.933-17.104a3.16 3.16 0 01-.907-1.14 74.161 74.161 0 01-40.706 16.765l-.338 1.497.018-.018zm52.212-27.402a75.84 75.84 0 0017.108-42.013l-1.494.339c-1.387 15.411-7.451 29.487-16.752 40.765.445.214.854.517 1.138.909zm17.108-54.805c-1.316-15.893-7.523-30.396-17.09-42.013a3.145 3.145 0 01-1.138.909c9.301 11.278 15.365 25.336 16.734 40.765l1.494.339zm-27.369-52.293c-11.595-9.586-26.088-15.804-41.969-17.123l.338 1.497c15.401 1.372 29.45 7.448 40.724 16.766.214-.446.516-.838.907-1.14z" fill="#DDD"/><path fill-rule="evenodd" clip-rule="evenodd" d="M113.725 39.892c-.463-.053-.409-.748.089-.73.249.035.498.053.729.089.444.053.409.748-.089.73l-.729-.089zm2.881.392c-.463-.089-.374-.748.089-.73.249.035.498.089.747.124.426.072.391.695-.054.731h-.071l-.711-.125zm2.863.517c-.409-.071-.374-.73.089-.73h.071c.231.053.48.089.711.142.374.071.392.66-.035.713h-.125a9.938 9.938 0 00-.711-.143v.018zm2.827.641c-.409-.106-.355-.694.072-.712h.106l.712.178c.426.107.32.766-.143.712h-.035l-.712-.178zm2.81.749c-.444-.143-.267-.82.196-.695.231.071.462.142.711.214a.366.366 0 01-.142.712h-.071l-.694-.213v-.018zm2.774.873c-.426-.143-.249-.82.214-.695.231.071.48.16.711.25.427.142.267.819-.231.694-.231-.071-.462-.16-.711-.25h.017zm2.739.98a.35.35 0 01-.231-.374c0-.25.267-.41.498-.321l.676.267c.426.178.213.837-.267.677-.231-.089-.463-.178-.676-.267v.018zm2.685 1.087c-.426-.214-.16-.856.303-.678l.675.303c.392.178.196.784-.231.695-.018 0-.053 0-.071-.018l-.676-.285v-.018zm2.65 1.211c-.391-.178-.178-.802.267-.677.018 0 .035 0 .053.018.214.107.445.214.658.32.391.197.16.82-.284.678h-.036a7.562 7.562 0 00-.658-.339zm2.596 1.319c-.177-.09-.231-.286-.16-.464a.37.37 0 01.516-.178c.214.107.427.232.64.356.409.232.089.856-.338.642l-.658-.357zm2.544 1.425c-.392-.214-.089-.855.355-.642.214.125.445.25.64.375.338.196.143.783-.302.659-.035 0-.053-.018-.071-.036-.213-.124-.409-.25-.622-.374v.018zm2.471 1.514a.388.388 0 01-.16-.392c.071-.25.338-.356.552-.213l.604.392c.392.285 0 .873-.409.605l-.604-.392h.017zm2.419 1.622c-.356-.25-.036-.82.373-.624.214.125.427.303.641.446.355.249.035.837-.392.623h-.035a12.61 12.61 0 00-.587-.445zm2.347 1.71c-.338-.267-.017-.82.409-.606l.036.036c.196.142.391.303.587.445.338.268 0 .838-.427.588a13.694 13.694 0 01-.605-.463zm2.277 1.817a.391.391 0 01-.107-.427.358.358 0 01.569-.143c.196.16.373.321.569.481 0 0 .018.036.036.036l-.232.606s-.195 0-.284-.09c-.178-.16-.374-.302-.551-.463zm9.283 8.178l.035.036c.285.339-.16.802-.516.499l-.035-.036-.196-.213.712-.286zm.853 2.192c-.284-.356.214-.82.551-.463.16.196.321.392.463.588.284.374-.231.82-.569.463-.16-.196-.303-.392-.463-.588h.018zm1.761 2.316c-.267-.392.302-.82.587-.428l.426.606a.351.351 0 01.018.392c-.124.232-.462.25-.622.036l-.427-.588.018-.018zm1.671 2.388c-.231-.339.232-.802.587-.446l.036.036c.142.196.267.41.409.606.249.374-.285.801-.605.427a7.736 7.736 0 01-.409-.623h-.018zm1.565 2.44c-.231-.41.338-.783.623-.374.124.214.249.428.373.624a.355.355 0 01-.124.499.379.379 0 01-.516-.125l-.373-.624h.017zm1.476 2.513c-.213-.374.303-.766.605-.41 0 0 .018.036.036.053l.355.642a.396.396 0 010 .374c-.16.232-.48.214-.622-.036l-.356-.641-.018.018zm1.37 2.565c-.196-.41.373-.748.622-.374v.036l.356.66c.213.445-.445.747-.658.32l-.32-.66v.018zm1.262 2.62c-.178-.375.32-.731.623-.375 0 .018.035.036.035.072l.303.677c.177.445-.463.73-.676.303-.107-.214-.196-.446-.303-.66l.018-.017zm1.138 2.672c-.16-.392.374-.695.641-.356.017.035.035.053.053.089.089.231.178.445.267.677.16.392-.409.712-.658.303a8.81 8.81 0 01-.285-.73l-.018.017zm1.032 2.708a.353.353 0 01.089-.374c.195-.196.515-.107.604.143l.249.695c.143.427-.462.694-.675.284v-.035l-.249-.677-.018-.036zm.925 2.762s-.018-.125 0-.178a.366.366 0 01.711-.036l.213.695c.071.25-.142.517-.409.463a.403.403 0 01-.284-.25l-.214-.694h-.017zm.818 2.797c-.107-.445.515-.641.693-.232v.036l.196.713a.462.462 0 01-.036.267c-.16.303-.604.232-.676-.089-.053-.232-.124-.463-.177-.695zm.693 2.815a.368.368 0 01.676-.267c0 .036.036.071.036.107l.16.713c.088.445-.552.623-.712.178l-.16-.749v.018zm.569 2.85s0-.142.018-.195a.363.363 0 01.694.071c.035.232.088.481.124.73.071.41-.551.624-.711.161-.054-.25-.089-.499-.143-.748l.018-.018zm.463 2.869c-.054-.445.569-.587.711-.16v.054l.089.73a.374.374 0 01-.302.41c-.214.036-.409-.107-.427-.303l-.089-.731h.018zm.978 17.301s.017.053.017.089v.071c-.017.25-.053.481-.088.731-.054.463-.747.409-.73-.089.018-.214.054-.446.072-.66l.711-.16.018.018zm-1.067 2.975c.053-.41.693-.427.729.036v.071l-.107.731c-.089.481-.782.374-.729-.107l.107-.713v-.018zm-.48 2.869c.071-.428.729-.374.729.071v.071c-.054.25-.089.481-.143.731-.071.41-.729.374-.729-.071v-.072c.054-.231.089-.481.143-.712v-.018zm-.605 2.833c.107-.464.8-.321.711.16-.053.249-.106.481-.178.731-.106.392-.693.356-.711-.072v-.107c.053-.231.107-.463.16-.712h.018zm-.711 2.815c.088-.392.711-.357.711.125v.089l-.196.712c-.142.446-.818.268-.693-.196l.195-.695-.017-.035zm-.836 2.779a.416.416 0 01.178-.214c.284-.16.622.125.515.428-.071.232-.16.463-.231.695-.142.428-.818.267-.693-.214.071-.232.16-.463.231-.713v.018zm-.943 2.744a.347.347 0 01.303-.232c.266-.035.48.25.391.499-.089.232-.178.464-.249.695a.35.35 0 01-.374.232c-.249 0-.409-.267-.32-.499.089-.232.178-.446.249-.677v-.018zm-1.067 2.708c.16-.41.818-.214.676.25v.035l-.302.677c-.143.375-.747.25-.694-.196 0-.035 0-.053.018-.089l.284-.677h.018zm-1.173 2.655a.374.374 0 01.444-.196.363.363 0 01.214.499c-.107.214-.214.445-.321.659-.177.392-.8.178-.675-.249 0-.018 0-.036.017-.054.107-.214.214-.445.303-.659h.018zm-1.281 2.601c.196-.392.818-.142.676.285v.054a4.76 4.76 0 00-.356.659c-.089.178-.284.232-.462.16-.196-.089-.285-.32-.178-.499.107-.213.231-.427.338-.641l-.018-.018zm-1.387 2.548c.213-.392.818-.107.658.321v.035c-.142.214-.267.428-.391.642-.214.392-.854.089-.64-.356l.373-.642zm-1.494 2.494a.343.343 0 01.427-.142c.213.071.32.338.196.534l-.392.624c-.249.374-.835.054-.622-.374.124-.214.267-.428.409-.642h-.018zm-1.583 2.441c.249-.356.836-.035.623.375v.035l-.445.606c-.249.356-.836.036-.622-.374v-.036l.444-.606zm-1.689 2.37c.285-.374.854 0 .605.41-.143.214-.303.41-.463.606-.266.338-.818.017-.604-.41l.035-.036c.143-.196.285-.392.445-.588l-.018.018zm-1.778 2.298c.302-.374.871.072.569.464l-.463.57a.388.388 0 01-.426.107.36.36 0 01-.143-.57c.16-.179.303-.375.463-.571zm-10.226 10.281c.391-.303.818.267.463.57-.196.16-.374.303-.569.463-.356.285-.818-.214-.463-.552.196-.16.391-.321.587-.463l-.018-.018zm-2.294 1.799c.338-.267.8.214.463.571-.196.16-.409.302-.623.463-.391.285-.818-.303-.427-.588l.587-.428v-.018zm-2.365 1.693c.356-.249.782.249.462.57 0 0-.035.018-.053.036-.196.142-.409.285-.605.41-.338.231-.8-.232-.444-.588l.035-.036c.196-.143.392-.267.605-.41v.018zm-2.419 1.604c.338-.214.747.213.463.552l-.071.071c-.214.125-.409.267-.623.392-.409.232-.782-.338-.373-.623.213-.125.409-.25.622-.392h-.018zm-2.489 1.496a.364.364 0 01.48.107.35.35 0 01-.125.517l-.64.356a.394.394 0 01-.373 0 .366.366 0 01.018-.623l.64-.357zm-2.543 1.39a.39.39 0 01.373.018c.231.142.214.499-.035.623-.214.107-.445.232-.658.339-.409.196-.747-.374-.374-.624h.036c.213-.124.427-.249.64-.356h.018zm-2.597 1.283a.382.382 0 01.463.142.37.37 0 01-.16.517c-.214.107-.445.214-.658.303-.374.178-.729-.321-.374-.624.018 0 .036-.035.071-.035l.658-.303zm-2.649 1.176c.426-.179.711.445.302.659a11.02 11.02 0 01-.694.285c-.391.16-.693-.374-.355-.641.035-.018.053-.036.089-.054.231-.089.444-.178.675-.285l-.017.036zm-2.703 1.069c.373-.143.693.374.337.641-.035.018-.053.036-.088.054l-.694.249c-.445.143-.694-.499-.249-.695l.676-.249h.018zm-2.739.962a.35.35 0 01.427.16c.124.196.018.463-.196.535l-.693.213a.3.3 0 01-.178 0c-.374-.071-.409-.587-.036-.712l.694-.214-.018.018zm-2.774.837c.462-.107.64.535.231.695h-.036c-.231.071-.462.143-.711.214-.445.107-.658-.517-.231-.695.231-.071.498-.143.729-.214h.018zm-2.81.731c.391-.089.64.445.267.677a.25.25 0 01-.107.035l-.711.161c-.48.089-.623-.606-.16-.713l.711-.16zm-2.845.605c.426-.071.622.517.195.695h-.071c-.249.054-.48.089-.729.143-.071 0-.142 0-.196-.018a.364.364 0 01.071-.695c.232-.035.481-.089.712-.142l.018.017zm-2.864.499c.481-.053.587.624.107.713l-.729.107c-.462.053-.587-.624-.107-.713l.729-.107zm-2.88.375c.426-.054.569.57.16.712h-.072c-.124 0-.266.036-.391.036l.178-.748h.142-.017zm-14.636.819a9.727 9.727 0 01-.658-.071c-.427-.054-.427-.677 0-.731h.089c.142 0 .267.036.409.036l.178.748-.018.018zm-2.739-1.051c.427.053.427.73-.07.73h-.037l-.729-.107c-.07 0-.124-.035-.177-.089a.368.368 0 01.284-.641l.73.107zm-2.863-.446c.462.09.356.784-.124.713-.25-.035-.48-.089-.73-.125-.426-.071-.373-.73.072-.73h.07c.232.053.48.089.712.125v.017zm-2.845-.57c.462.125.32.802-.16.713-.231-.053-.48-.107-.712-.16-.462-.107-.32-.802.16-.713l.712.16zm-2.828-.677c.302.072.374.499.09.677-.072.054-.197.054-.285.036l-.712-.196c-.409-.107-.32-.784.16-.713h.036l.693.196h.018zm-2.792-.801c.445.142.285.783-.178.712-.249-.071-.498-.16-.729-.231a.42.42 0 01-.213-.179c-.16-.285.124-.623.427-.516l.693.214zm-2.756-.909c.462.178.213.837-.25.695-.23-.089-.462-.161-.693-.25a.344.344 0 01-.231-.303c-.035-.267.249-.481.498-.392.231.089.445.161.676.25zm-2.721-1.034c.409.161.213.82-.25.695-.23-.089-.48-.196-.71-.285-.392-.16-.25-.784.23-.695h.054l.676.303v-.018zm-2.668-1.14c.41.196.178.82-.266.677-.232-.089-.463-.214-.694-.321a.375.375 0 01-.195-.445.36.36 0 01.497-.214c.214.107.445.196.658.303zm-2.614-1.247c.391.196.142.82-.284.677h-.054c-.213-.125-.444-.232-.658-.356-.39-.196-.16-.82.285-.677h.053c.214.124.427.249.64.356h.018zm-2.56-1.354c.355.214.16.766-.25.677-.035 0-.07-.018-.106-.036-.214-.124-.427-.231-.64-.356-.392-.214-.107-.82.32-.659h.035c.214.142.427.267.64.374zm-2.508-1.461c.409.249.035.873-.374.623l-.622-.392c-.391-.249-.053-.837.374-.623.213.125.426.267.64.392h-.018zm-2.454-1.568c.356.249.071.802-.356.641-.018 0-.035-.017-.053-.035l-.605-.41a.348.348 0 01-.142-.374.377.377 0 01.569-.232l.605.41h-.018zm-2.383-1.657c.391.303-.036.873-.427.588l-.587-.428c-.373-.285 0-.855.41-.605.195.142.408.302.604.445zm-2.312-1.764c.338.267 0 .838-.427.588-.195-.142-.409-.321-.604-.481-.374-.303.07-.873.462-.57.196.16.373.303.569.445v.018zm-2.116-1.603a.417.417 0 01-.125.302l.125-.302zm-8.27-8.517c.267.321-.142.784-.497.517-.018 0-.036-.036-.054-.054-.16-.196-.32-.374-.462-.57-.302-.392.267-.819.569-.463.16.196.302.374.462.552l-.018.018zm-1.813-2.263s.07.125.07.196a.369.369 0 01-.657.25c-.143-.196-.303-.392-.445-.588-.267-.339.214-.802.57-.463.16.195.302.409.462.605zm-1.725-2.334a.365.365 0 01-.072.499.354.354 0 01-.515-.089l-.427-.606c-.249-.356.249-.784.569-.463 0 0 .018.036.036.053.142.196.284.392.409.588v.018zm-1.619-2.405c.196.303-.124.677-.444.534-.071-.035-.125-.071-.16-.142l-.392-.624c-.213-.338.214-.748.552-.463l.07.071c.125.214.268.41.392.606l-.018.018zm-1.529-2.477a.356.356 0 010 .375c-.142.231-.498.231-.623 0l-.373-.642c-.213-.374.267-.748.57-.445.017.018.035.053.053.071l.373.624v.017zM43 143.676c.196.339-.267.749-.587.41-.017-.018-.035-.035-.053-.071l-.338-.642a.397.397 0 01.018-.374.36.36 0 01.622.036l.338.641zm-1.316-2.583c.196.428-.409.748-.64.338-.107-.213-.213-.445-.32-.677a.383.383 0 01.142-.463.367.367 0 01.516.161c.107.213.213.445.32.659l-.018-.018zm-1.209-2.637a.362.362 0 01-.462.481.387.387 0 01-.214-.196c-.089-.232-.195-.445-.284-.677-.178-.428.462-.713.658-.303.106.232.195.463.302.695zm-1.102-2.69c.053.142 0 .32-.125.409a.372.372 0 01-.57-.16l-.266-.677c-.16-.374.391-.713.658-.321 0 .018.018.036.036.072l.267.677zm-.996-2.744c.142.445-.516.695-.694.249-.071-.231-.16-.463-.231-.712a.351.351 0 01.16-.428c.195-.125.462-.018.533.196.072.232.16.463.232.695zm-.872-2.78c.125.481-.551.66-.693.196a8.253 8.253 0 01-.196-.712c-.107-.464.516-.642.694-.232.07.232.142.499.213.731l-.018.017zm-.765-2.797a.445.445 0 01-.053.303.371.371 0 01-.658-.125l-.178-.712c-.106-.41.48-.642.676-.232 0 .018.018.053.018.071l.178.713.017-.018zm-.64-2.833c.09.463-.587.624-.711.161-.053-.25-.107-.482-.142-.731-.071-.428.516-.624.693-.196v.071c.054.232.09.481.143.713l.017-.018zm-.533-2.851c.053.482-.64.588-.73.107l-.106-.73c-.053-.481.64-.588.73-.107.035.232.07.481.106.73zm-.41-2.886c0 .089 0 .196-.07.267a.364.364 0 01-.658-.178l-.09-.73c-.035-.232.143-.374.32-.392l.25.053s.107.107.142.196v.071l.089.713h.018zm.019-17.407c-.054.427-.694.427-.73-.036v-.053c.036-.25.054-.481.09-.731.053-.427.728-.427.728.072-.017.249-.07.498-.088.748zm.409-2.869c-.072.428-.694.392-.73-.053v-.071l.125-.73c.089-.464.783-.357.73.124l-.125.73zm.533-2.85s-.053.142-.107.178c-.266.25-.675 0-.604-.339.053-.231.107-.48.16-.712.124-.464.8-.321.711.16l-.142.713h-.018zm.658-2.833c-.107.427-.765.32-.711-.143v-.035l.195-.713c.107-.428.765-.339.712.16-.054.25-.125.5-.196.73zm.765-2.798a.364.364 0 01-.302.25c-.267.035-.48-.214-.392-.463.071-.232.142-.464.214-.713.142-.428.8-.267.711.196-.071.232-.142.481-.213.73h-.018zm.889-2.761c-.142.41-.782.267-.694-.196v-.036c.09-.231.178-.463.25-.695.177-.463.835-.214.693.25-.089.231-.16.463-.231.695l-.018-.018zm.996-2.726c-.178.427-.836.214-.676-.267l.267-.678c.16-.392.782-.231.693.214v.054l-.266.677h-.018zm1.102-2.69c-.195.445-.853.16-.675-.286.089-.231.195-.445.302-.677.196-.41.818-.178.676.268-.09.231-.214.463-.303.694zm1.21-2.638c-.214.428-.854.125-.658-.32.106-.214.213-.446.32-.66.195-.391.818-.142.676.286v.053c-.125.214-.232.428-.338.641zm1.333-2.583c-.213.374-.818.143-.658-.32v-.036c.143-.214.25-.428.374-.642.213-.356.765-.16.676.25 0 .035-.018.071-.036.107l-.356.641zm1.423-2.53a.367.367 0 01-.658-.32v-.054c.16-.214.285-.428.41-.624.248-.41.87-.035.622.374l-.374.624zm1.53-2.459c-.285.392-.872 0-.605-.41l.409-.605a.359.359 0 01.622.035c.054.125.054.25-.018.357l-.39.605-.019.018zm1.636-2.405c-.25.374-.854 0-.605-.392.142-.214.302-.41.444-.624.303-.392.872.036.587.428l-.426.588zm1.725-2.334c-.267.356-.836 0-.605-.41l.035-.035c.143-.197.303-.392.445-.588.267-.339.836 0 .587.427-.142.196-.32.392-.462.588v.018zm1.831-2.263c-.249.303-.782.036-.604-.41 0-.017.017-.035.053-.07l.231-.268.712.285c-.125.142-.267.303-.392.463zm7.896-8.98l.356-.303c.32-.267.782.143.515.5 0 .017-.035.035-.053.053l-.551.463-.285-.713h.018zm2.525-1.122a.369.369 0 01-.551-.463.53.53 0 01.089-.107c.196-.143.391-.303.587-.446a.372.372 0 01.195-.07.37.37 0 01.25.658c-.196.143-.374.303-.57.446v-.018zm2.312-1.746a.349.349 0 01-.391.018c-.231-.125-.25-.464-.036-.624.196-.142.392-.285.605-.428a.382.382 0 01.498.072c.124.16.089.41-.071.517l-.587.427-.018.018zm2.383-1.657c-.409.25-.8-.339-.409-.606l.605-.41c.302-.196.675.125.533.446-.035.071-.07.124-.142.16-.196.125-.41.267-.605.392l.018.018zm2.454-1.55a.354.354 0 01-.498-.125c-.106-.16-.053-.41.125-.499l.622-.374c.41-.232.783.356.391.624l-.64.374zm2.508-1.461a.396.396 0 01-.374 0c-.231-.16-.213-.481.036-.624l.64-.356c.338-.196.747.267.409.588a.241.241 0 01-.071.053l-.64.357v-.018zm2.578-1.354c-.373.196-.729-.321-.391-.606.018 0 .036-.036.071-.036.214-.107.445-.213.658-.32.427-.196.747.41.338.641-.213.107-.445.214-.676.339v-.018zm2.632-1.248c-.391.179-.729-.391-.338-.64h.054c.213-.126.444-.215.675-.322.303-.124.587.143.48.464a.386.386 0 01-.195.214c-.213.089-.445.196-.658.285h-.018zm2.668-1.122c-.391.16-.712-.392-.338-.641.018 0 .035-.018.071-.036l.676-.267c.391-.16.711.41.302.659h-.053l-.676.285h.018zm2.72-1.015c-.426.142-.693-.464-.266-.678h.035l.694-.249c.444-.142.694.517.249.695l-.694.25-.017-.018zm2.757-.91c-.391.126-.676-.445-.284-.676.017 0 .035-.018.07-.036l.712-.214c.48-.124.658.553.196.695l-.694.214v.018zm2.792-.783a.36.36 0 01-.409-.196c-.107-.214 0-.463.231-.517l.712-.178a.442.442 0 01.302.053.372.372 0 01-.125.66l-.711.178zm2.828-.677a.369.369 0 01-.267-.677c.035 0 .07-.036.107-.036l.71-.16c.463-.09.623.588.16.712l-.728.16h.018zm2.845-.553c-.41.072-.623-.516-.196-.694.018 0 .036 0 .071-.018l.73-.125c.48-.053.586.642.106.73-.23.036-.48.072-.711.125v-.018zm2.863-.445a.373.373 0 01-.409-.303.36.36 0 01.32-.427l.73-.09c.088 0 .195 0 .266.072.267.196.16.606-.178.659l-.729.09zm-4.019 24.89a46.833 46.833 0 00-15.045 7.608l1.334.838a45.617 45.617 0 0113.338-6.806l.373-1.64zm-24.22 16.82a46.898 46.898 0 00-7.594 15.055l1.636-.374a45.45 45.45 0 016.793-13.345l-.836-1.336zm-7.594 41.834a47.176 47.176 0 007.593 15.038l.836-1.319a45.576 45.576 0 01-6.793-13.327l-1.636-.374v-.018zm16.787 24.249c4.624 3.492 9.888 6.165 15.614 7.768l-.374-1.639a45.426 45.426 0 01-13.924-6.966l-1.334.837h.018zm41.773 7.59a46.784 46.784 0 0015.009-7.59l-1.333-.837a45.934 45.934 0 01-13.32 6.788l-.374 1.639h.018zm24.221-16.801a46.83 46.83 0 007.594-15.038l-1.636.374a45.694 45.694 0 01-6.794 13.345l.836 1.319zm7.594-41.817a46.913 46.913 0 00-7.594-15.055l-.836 1.336a45.688 45.688 0 016.794 13.345l1.636.374zm-16.788-24.267a46.819 46.819 0 00-15.045-7.608l.374 1.64a45.613 45.613 0 0113.337 6.806l1.334-.838zM80.257 95.018l-15.348-24.48 22.763 22.788.498-.125s.142-.072.16-.16l2.063-9.052-28.204-17.728s-.107-.07-.178-.089h-.231v.464l17.73 28.257 1.12-.249-.373.374zm40.279-9.888l24.452-15.376-22.763 22.787.125.5s.071.142.16.16l9.034 2.067 17.712-28.24s.071-.107.089-.179v-.285h-.018v-.017h-.32l-28.222 17.745.249 1.123-.498-.285zm-41.4 40.07l-17.712 28.24s-.071.107-.089.178v.321h.32l28.222-17.746-.249-1.122-24.452 15.376 22.763-22.788-.125-.499s-.07-.143-.16-.16l-9.034-2.067.516.267zm41.151 11.278l28.204 17.728s.107.072.178.089h.178l.018-.017v-.392l-17.73-28.258-1.121.267 15.348 24.481-22.763-22.788-.498.124s-.142.072-.16.161l-2.063 9.051.409-.446z" fill="#DDD"/><path fill-rule="evenodd" clip-rule="evenodd" d="M89.184 93.29l15.614-68.364v63.553h.551c6.206 0 11.79 2.602 15.756 6.77l1.174-1.175 68.288 15.625H127.08v.553a21.71 21.71 0 01-6.757 15.768l1.173 1.176-15.614 68.364v-63.554h-.551c-6.206 0-11.79-2.601-15.756-6.77l-1.174 1.176-68.27-15.626h63.487v-.552c0-6.2 2.596-11.795 6.757-15.768l-1.173-1.176h-.018zm106.309 17.496l.16-.053v-.018l.018-.036v-.338s-.071-.054-.125-.072l-72.965-16.694-16.699-73.584-.053-.16v-.018l-.036-.018h-.195a.284.284 0 00-.071.124v.036l-16.681 73.05-73.659 16.694-.16.054v.053h-.035v.339s.07.053.124.071l72.965 16.695 16.681 73.014.053.16v.036l.036.018h.231a.29.29 0 00.071-.125v-.036l16.681-73.05 72.93-16.694.729.552zM45.526 49.638h-.09v.25l3.806 9.799a.568.568 0 00.32.32l9.817 3.831h.089s.017 0 .035-.035l.036-.036s.018-.036.035-.036c0 0 0-.017.018-.035v-.267l-3.823-9.853a.566.566 0 00-.32-.321l-9.781-3.813-.142.196zm11.203 108.488l-9.976 9.995 2.791-7.198 7.185-2.797zm2.703-1.728s0-.018-.018-.036c0 0 0-.018-.035-.036l-.036-.035s-.018 0-.035-.018h-.071l-9.817 3.831a.565.565 0 00-.32.32l-3.806 9.8v.214h.071l9.781-3.813a.568.568 0 00.32-.321l3.824-9.835v-.232l.142.161zm93.754 2.494l9.977 9.995-7.185-2.797-2.792-7.198zm-1.725-2.708s-.018 0-.035.018c0 0-.018 0-.036.035 0 0-.018.036-.036.036 0 0 0 .018-.017.036v.249l3.823 9.835c.053.143.16.25.32.321l9.781 3.813h.071v-.196l-3.805-9.8a.595.595 0 00-.303-.32l-9.834-3.831h-.089l.16-.196zm2.49-93.86l9.976-9.995-2.792 7.198-7.184 2.797zm-2.703 1.728s0 .018.018.036c0 0 0 .018.035.035l.036.036s.017 0 .035.018h.089l9.834-3.83a.495.495 0 00.303-.322l3.805-9.799v-.249h-.089l-9.78 3.813a.568.568 0 00-.321.32l-3.823 9.835v.215l-.142-.107zm-93.754-2.494l-9.977-9.996 7.185 2.798 2.792 7.198z" fill="#DDD"/><path d="M203.993 115.169v-.249c.303 0 .516-.054.64-.089a.5.5 0 00.285-.285c.053-.143.089-.375.089-.677v-6.13c0-.302-.036-.534-.089-.677a.454.454 0 00-.285-.285c-.124-.053-.337-.089-.64-.089v-.249c.801.018 2.01.035 3.575.035 1.209 0 2.08 0 2.578-.035a15.333 15.333 0 00-.089 1.461c0 .321 0 .57.036.766h-.285c-.035-.267-.053-.481-.088-.659a4.23 4.23 0 00-.125-.499c-.053-.161-.107-.285-.196-.374a.95.95 0 00-.284-.232 1.01 1.01 0 00-.409-.142 4.79 4.79 0 00-.569-.036h-1.032c-.426 0-.693.053-.818.178-.124.125-.177.41-.177.837v2.922h.818c.142 0 .284 0 .391-.053.106-.053.213-.089.284-.16.071-.072.143-.143.196-.232a1.18 1.18 0 00.124-.303c.036-.125.054-.214.072-.303.017-.089.035-.178.053-.32 0-.125.035-.214.035-.268h.285c-.036.41-.036.802-.036 1.158v.606c0 .428.018.998.072 1.764h-.285a7.069 7.069 0 00-.142-.891c-.107-.392-.338-.641-.694-.712a1.935 1.935 0 00-.338-.036h-.818v2.975c0 .446.054.731.178.838.125.124.391.178.818.178h.907c.391 0 .711-.036.943-.107.231-.071.426-.196.586-.374.143-.178.249-.41.321-.659.071-.25.124-.606.177-1.034h.285c-.018.214-.036.517-.036.891 0 .463.036.998.089 1.586a91.163 91.163 0 00-2.827-.036c-1.583 0-2.774 0-3.575.036v-.036zM0 106.653v-.25c.338.018.782.036 1.316.036.587 0 1.031 0 1.334-.036v.25c-.214 0-.374.053-.463.124a.358.358 0 00-.142.303c0 .143.036.339.125.606l1.813 5.523 1.494-4.792-.32-.98c-.178-.517-.409-.784-.729-.784v-.25c.302.018.694.036 1.192.036.71 0 1.227 0 1.582-.036v.25c-.16 0-.284 0-.373.017-.09 0-.178.036-.25.054a.325.325 0 00-.177.125.377.377 0 00-.053.213c0 .143.035.339.124.606l1.779 5.506 1.529-4.793c.124-.41.195-.748.195-.998 0-.267-.088-.463-.248-.588-.16-.107-.427-.178-.8-.178v-.249c.462.017.942.035 1.422.035.373 0 .676 0 .925-.035v.249c-.463.107-.783.463-.978 1.069l-2.33 7.501h-.196l-2.151-6.379-1.957 6.379h-.195l-2.614-7.786c-.178-.517-.463-.766-.854-.784v.036zm101.365-96.052v-.25c.409 0 .676-.106.818-.267.125-.16.196-.463.196-.926V3.154c0-.303-.036-.535-.089-.677a.452.452 0 00-.284-.286c-.125-.053-.338-.089-.641-.089v-.249c.267.018.658.036 1.139.036.373 0 .693 0 .96-.036l4.357 6.735v-5.31c0-.25 0-.427-.036-.57a.656.656 0 00-.16-.356.59.59 0 00-.338-.196 2.384 2.384 0 00-.587-.071v-.25c.303.018.712.036 1.263.036.498 0 .871 0 1.138-.036v.25c-.409 0-.676.106-.818.267-.124.16-.195.463-.195.926v7.377h-.285l-5.193-8.036v6.539c0 .463.071.766.214.926.142.16.444.25.907.268v.25a21.016 21.016 0 00-1.263-.037c-.498 0-.871 0-1.138.036h.035zm1.05 209.065c.035-.445.053-1.443.053-2.958h.338c.018.392.071.749.16 1.069.089.321.213.624.391.891.16.267.391.481.676.624.284.142.605.214.996.214.444 0 .818-.143 1.12-.41.303-.285.463-.695.463-1.23a1.7 1.7 0 00-.125-.677c-.089-.213-.231-.392-.409-.588-.196-.178-.391-.356-.587-.498-.195-.143-.462-.303-.8-.517-.231-.143-.427-.267-.569-.356-.142-.09-.32-.214-.516-.357a3.68 3.68 0 01-.462-.41 4.777 4.777 0 01-.338-.445 2.17 2.17 0 01-.249-.552 2.463 2.463 0 01-.071-.642c0-.356.071-.677.195-.944.125-.285.303-.499.516-.677a2.15 2.15 0 01.747-.392 2.79 2.79 0 01.871-.125c.249 0 .481.018.694.071.213.054.356.107.462.161.107.053.214.125.374.231.178.125.32.179.427.179.071 0 .142-.054.177-.125.036-.089.072-.232.089-.428h.285c-.036.481-.053 1.337-.053 2.53h-.285a3.461 3.461 0 00-.16-.873 2.957 2.957 0 00-.373-.748 1.703 1.703 0 00-.623-.552c-.249-.143-.551-.196-.871-.196-.445 0-.801.142-1.085.392-.285.267-.427.605-.427 1.033 0 .125 0 .232.036.339.017.106.053.213.106.32.054.089.107.196.143.267.035.072.124.161.213.25s.178.16.249.214c.071.053.16.142.302.214.125.089.232.16.32.213.072.054.196.125.356.214.16.089.285.16.356.214.213.142.391.249.533.338.143.09.303.196.463.321.177.125.32.25.426.339.107.089.214.231.338.374.125.142.196.285.267.41.071.142.107.285.16.463.036.16.053.338.053.534 0 .499-.124.945-.355 1.301a2.28 2.28 0 01-.943.802c-.391.178-.836.249-1.316.249-.391 0-.711-.035-.978-.124a3.277 3.277 0 01-.711-.339c-.178-.125-.302-.178-.391-.178-.071 0-.125.035-.16.125a1.53 1.53 0 00-.089.409h-.338l-.071.036z" fill="#DDD"/><path fill-rule="evenodd" clip-rule="evenodd" d="M127.311 87.838l-17.836 11.207-3.859-16.89-.125-.179c-.16-.125-.373 0-.427.107l-3.876 16.962-17.766-11.171-.213-.054-.267.267v.072l.053.16 11.15 17.763-16.858 3.867-.178.125c-.125.16 0 .374.107.427l16.93 3.884-11.15 17.782-.054.231.267.267h.142l17.837-11.206 3.858 16.89.125.178c.16.125.373 0 .409-.107l3.877-16.961 17.765 11.171.214.053.267-.267v-.143l-11.186-17.852 16.858-3.866.178-.125c.125-.161 0-.374-.106-.41l-16.93-3.884 11.15-17.781.053-.214-.266-.267h-.143v-.036zm-17.321 17.746c2.561 2.565 2.561 6.734 0 9.318-2.561 2.566-6.74 2.566-9.3 0-2.561-2.566-2.561-6.735 0-9.318 2.56-2.566 6.739-2.566 9.3 0zm-4.659.516a4.14 4.14 0 014.144 4.152 4.14 4.14 0 01-4.144 4.151 4.14 4.14 0 01-4.143-4.151 4.14 4.14 0 014.143-4.152zm0-3.741c4.339 0 7.878 3.528 7.878 7.875a7.874 7.874 0 01-7.878 7.875 7.874 7.874 0 01-7.878-7.875 7.874 7.874 0 017.878-7.875z" fill="#DDD"/></svg>