<svg width="1045" height="533" fill="none" xmlns="http://www.w3.org/2000/svg"><path opacity=".5" fill-rule="evenodd" clip-rule="evenodd" d="M298.683 6.119h34.002V0c.203.108.422.19.687.217v5.888h23.277c-.218.203-.453.406-.671.596h-22.606V29.51a11.78 11.78 0 00-.687.473V6.714h-34.439a.914.914 0 01.281-.46l.172-.135h-.016zM1045 474.684h-5.07c.01-.136.04-.271.06-.42-.03-.054-.05-.122-.08-.189h4.98c.05.203.08.392.11.595v.014zm-32.83 29.306v10.599c-.24.312-.47.609-.69.921v-11.154c.17-.109.36-.203.55-.285l.15-.067-.01-.014zm2.7-133.294h-2.14c0-.189.11-.392.2-.595h.91c.34.203.7.392 1.05.595h-.02zm-35.392 103.988h-29.022v6.375c-.219-.094-.453-.162-.687-.243v-6.146h-5.714c.094-.203.156-.406.218-.595h5.496v-51.399h-61.011v37.645a10.461 10.461 0 01-.687-.054v-37.591H867.62c.016-.162.031-.338.031-.5v-.095h20.405v-8.961l.687-.095v9.056h61.01v-20.928c.234.095.468.19.687.285v20.643h40.996c.406.149.797.311 1.202.474.11.04.219.081.328.135h-42.51v51.398h29.209v.041c-.062.189-.125.365-.187.555zm22.682-103.988h-10.911l-.047-.027c-.156-.095-.218-.392-.156-.568h12.114c-.36.162-.69.379-.98.595h-.02zm-15.954 0h-30.38a4.17 4.17 0 00-.515-.595h28.866c.14.04.281.081.437.121a13.57 13.57 0 011.608.488l-.016-.014zm-35.75 18.965v.947c-.219.379-.453.745-.687 1.11v-2.463c.218.095.437.216.624.338l.063.054v.014zm38.763-19.574h.141s.094.027.094.041c0 .081-.063.162-.094.243-.078-.027-.219-.054-.219-.081 0-.068.032-.135.063-.203h.015zm-38.763-9.421v7.35a9.43 9.43 0 01-.687-.176v-6.74c.218-.149.452-.298.687-.433zm25.806-197.972h-4.247a20.967 20.967 0 00-.281-.595h4.887c-.078.135-.156.284-.25.419-.031.054-.078.122-.109.176zm-25.806 38.579v5.253c-.266.094-.5.216-.687.365v-5.388c.234-.04.468-.121.687-.216v-.014zm25.119-90.586h-1.811c-.141-.203-.266-.406-.406-.596h2.373c-.047.203-.094.407-.156.596zm-3.919 0h-11.365c.078-.217.203-.406.359-.596h11.287a2.36 2.36 0 00-.281.596zm34.794-51.994h-11.142s-.156-.122-.234-.176c-.187-.135-.375-.311-.593-.42h11.959c.01.136.05.285.06.42 0 .054 0 .122-.05.176zm-14.498 0c.327-.27.718-.46 1.155-.595h-42.651V38.47c-.235 0-.469 0-.687-.04v19.668h-61.011V46.836c-.234.095-.468.176-.687.271v10.992h-46.366c-.125.176-.203.406-.391.474-.609.23-1.264.013-1.592-.474h-7.4s-.016.054-.031.095a1.686 1.686 0 01-.25.514h56.03v51.398h-61.01V59.209a5.811 5.811 0 01-.687-.258v5.875c.015.095.031.176.047.271.015.122 0 .23-.047.325v44.697h-61.011V58.721h49.802a2.22 2.22 0 00-.313-.595h-26.024c-.578.135-1.156.149-1.702 0h-4.09a2.535 2.535 0 01-.64 0h-17.017v-1.137h-.031c-.094-.054-.219-.027-.328-.027-.047.19-.094.392-.172.582-.047.095-.094.19-.14.27v.325h-.25a2.11 2.11 0 01-1.218.596h1.468v51.398h-61.011V58.721h26.509c-.063-.203-.125-.406-.188-.595h-26.305v-2.667c-.234.122-.453.23-.687.338v2.342h-3.872c-.234.203-.484.393-.718.596h4.59v36.237s.078.014.125.027c.093.027.125.163.187.244-.047.095-.078.19-.156.27a.766.766 0 01-.156.15v14.456h-17.829c.234.204.469.393.687.596h17.142v51.398h-61.011v-51.1a1.23 1.23 0 00-.593.054c-.031 0-.062.027-.094.041v51.019h-61.01v-27.493c-.187-.46-.125-.947-.047-1.462.141-1.042-.031-1.76-.64-2.315v31.27h-14.613c-.577.23-1.233.189-1.967 0h-6.931c-.453.122-.906.257-1.358.406-.188.054-.359.122-.531.189h25.384v51.398h-61.01v-29.157s-.109.054-.156.081c-.11.054-.344.041-.531-.027v29.103H481.48c.078.19.125.393.141.596h36.313v9.773l.171.285c.172.135.344.257.516.392v-10.45h60.729l.984-1.137v-50.87h61.01v47.215c.234-.108.468-.216.687-.338v-46.877h61.01v51.398h-55.796c-.25.149-.406.338-.499.596h56.311v51.398h-52.19c.234.149.437.365.609.595h51.581V279.8c.234-.027.468-.055.687-.068v-13.036h61.01v37.564c.11-.135.266-.257.453-.338.078-.041.156-.068.234-.109v-37.117h61.011v48.339c.203 0 .421.068.578.163a.355.355 0 01.109.094v-48.596h61.01v4.034c.235-.392.375-.826.453-1.299a3.16 3.16 0 01.25-.867v-1.868h1.764c.109-.189.172-.392.219-.595h-1.983v-6.146a2.308 2.308 0 00-.687-.04v6.186h-61.011v-51.398h61.011v9.935c.234-.054.453-.094.687-.135v-9.8h16.049c0-.204.047-.407.109-.596h-16.158v-51.398h32.878a1.112 1.112 0 00-.234-.23c-.141-.109-.25-.244-.359-.366h-32.285v-51.398h52.486v-.596h-52.502V58.721h61.011v45.984c.265-.122.515-.108.687 0V58.721h41.496l-.078-.027zM888.743 377.858v2.017l-.687.122v-2.288c.234.027.468.081.687.149zm55.39-7.188h-1.14l.188-.203c.062-.068.218-.095.327-.122.313-.067.531.041.609.298v.027h.016zm-51.862-.595h2.779l-.156.067c-.875.285-1.811.46-2.623-.067zm19.936-51.399h-3.606c-.11-.203-.203-.392-.313-.595h3.685c.093.189.172.392.234.595zm-5.214 0h-1.608s-.141-.054-.203-.081c-.5-.189-.812-.352-.937-.528h2.748c-.016.203-.032.393 0 .596v.013zm-13.582 0h-1.359s-.015-.108-.015-.148a.75.75 0 01.124-.447h.937c.188.095.344.216.5.298a.54.54 0 01-.172.297h-.015zm-4.653 5.645v2.071a6.37 6.37 0 01-.687.731v-2.057c.234-.244.469-.501.687-.745zm0 13.307v2.775a.933.933 0 00-.156.419c-.062.366-.219.677-.531.907v-4.413l.156.068c.172.081.359.162.531.244zm0 12.372v2.057c-.218.028-.453.028-.687.028v-2.532c.219.149.469.284.687.433V350zm54.875-135.311h-2.81c.188-.203.406-.406.625-.596h1.889c.093.203.187.407.312.596h-.016zm-54.875 38.593v1.624c-.094.054-.187.108-.312.162-.125.055-.25.068-.39.095v-2.477c.249.19.468.406.687.609l.015-.013zm0 2.585v2.653c-.25.176-.468.352-.671.555h-.016v-3.655c.234.149.469.298.687.461v-.014zm39.997-93.172h-5.714a6.75 6.75 0 00-.218-.595h5.714c.093.189.171.392.218.595zm-82.351 207.989h-.843a12.687 12.687 0 00-1.608 0h-2.857a1.18 1.18 0 01-.469-.285c-.109-.108-.234-.216-.343-.324h6.166c0 .203-.031.406-.046.595v.014zm10.163-51.994h-23.621a45.137 45.137 0 00-1.124-.596h24.917c-.047.203-.11.393-.172.596zm-29.506 11.046v7.594c-.078-.596-.234-1.164-.687-1.665V329.1c.125.135.265.257.406.379.109.081.203.162.281.257zm0 16.311v10.857a9.507 9.507 0 00-.687-1.137v-10.505s.093.122.14.19c.156.216.328.419.547.582v.013zm0-131.954v-51.398h61.01v51.398h-61.01zm0-51.993v-51.398h61.01V162.1h-61.01zm0-141.795v8.365a2.92 2.92 0 00-.687 0v-8.487l.687.108v.014zM824.75 318.69h-4.309a7.696 7.696 0 00-.156-.596h4.637c-.047.203-.109.406-.156.596h-.016zm-59.402-52.589v-51.398h61.01v51.398h-61.01zm0-51.994v-51.398h61.01v51.398h-61.01zm0-51.994v-51.398h61.01v51.398h-61.01zm60.526-103.392h-1.795v-.406c0-.067.047-.135.094-.203h.796c.296.23.593.433.905.596v.013zm-68.332 259.983h-17.345a5.414 5.414 0 01-.421-.596h18.063c-.11.203-.203.406-.297.596zm-53.907-52.59v-51.398h61.01v51.398h-61.01zm0-51.994v-51.398h61.01v51.398h-61.01zm0-51.993v-51.398h61.01v51.398h-61.01zM762.6 58.735h-6.479c.031-.203.094-.406.156-.596h5.121l.187.163c.297.243.656.379.999.433h.016zm-8.696 0H734.78c.047-.203.094-.406.141-.596h19.186c-.078.203-.156.393-.203.596zm-110.702 363.97h-1.28v2.016a3.583 3.583 0 01-.687.542v-2.558h-11.397a54.73 54.73 0 00-.047-.596h11.444v-24.433c.171-.055.328-.122.499-.19.063-.027.141-.054.203-.095v24.718h1.608c-.109.203-.203.406-.312.596h-.031zm-1.28-99.913v23.973c-.219.149-.437.298-.672.433h-.015v-24.366c.234-.027.452-.04.687-.054v.014zm3.247-56.069h-3.247v48.84h-.094a4.562 4.562 0 00-.593-.041v-48.785h-61.011v51.398h51.737c.188.203.281.379.281.596h-52.018v51.398h37.078c.016.203.078.406.172.595h-37.25v51.398h22.512c-.062.217-.171.42-.312.596h-22.215v23.31c-.235.176-.469.352-.687.541v-23.851h-46.991c-.063-.203-.125-.406-.188-.596h47.179v-51.398H526.38c-.094-.203-.188-.392-.282-.595h53.424v-51.398h-61.011v42.951a9.23 9.23 0 01-.687-.65v-13.293c.266-.676.5-1.394.469-2.084-.047-.718-.11-1.462-.469-2.098v-24.826h-61.01v21.13c-.094-.04-.188-.095-.297-.135-.14-.068-.265-.136-.406-.203v-20.792h-25.962a2.67 2.67 0 01-.484-.596h26.446v-51.398h-2.529c.047-.19.078-.393.063-.596h2.466v-7.824a6.49 6.49 0 01.687-.541v8.352h61.011V245.2c.218.136.452.203.687.203v8.095c-.11.081-.203.176-.297.257-.375.325-.187 1.165.297 1.422v10.964h61.01v-3.059l.422.081c.093.014.187.027.265.041v2.951h61.011v-39.094c.249.203.484.434.686.664v38.43h3.544s-.125.135-.156.203a1.727 1.727 0 00-.14.392l.031-.027zm36.875-155.994h-13.083c.016-.203.031-.406.047-.596h12.989c0 .203 0 .406.047.596zm-15.175 0h-20.108a.858.858 0 00-.187-.596h19.202c.359.203.734.393 1.093.596zm-24.932-6.999v2.843a2.772 2.772 0 00-.687-.46v-2.816c.235.135.469.284.687.433zm61.011-76.643v-1.462s.078.08.125.121c.265.271.218 1.002-.063 1.273l-.062.054v.014zm-68.879 187.629h-31.536c.172-.189.328-.392.484-.596h31.395a1.88 1.88 0 00-.265.434l-.078.162zm-38.889 0h-6.791c.203-.176.422-.338.609-.528a.274.274 0 00.062-.081h5.449c.25.257.453.447.671.596v.013zm-14.956 15.432v17.34l-.125-.054a6.788 6.788 0 01-.562-.271v-16.975c.235 0 .469-.013.687-.027v-.013zm0-115.805v14.552a10.248 10.248 0 01-.687-.19v-14.606c.235.068.453.149.687.23v.014zm-61.713 203.765V266.71h61.011v51.398h-61.011zm19.858-155.386h-3.934c-.125-.027-.25-.067-.375-.081-.109-.013-.296 0-.374.081h-15.175v8.623c-.296-.474-.546-.961-.687-1.502v-7.121h-18.656c.203-.203.437-.392.656-.595h18v-25.273c.156-.623.219-1.272.484-1.868.297-.677.203-1.313 0-1.976a.588.588 0 01.203-.677v29.794h19.843a1.502 1.502 0 000 .379c0 .081.015.149.015.23v-.014zm-19.858 15.215v4.955a1.76 1.76 0 01-.687-.081v-1.341c.172.027.328.055.453 0 .125-.054.187-.406.094-.555a4.72 4.72 0 00-.547-.676v-1.841c.219-.163.453-.325.687-.461zm43.276-67.208h-24.339c.531-.19 1.046-.406 1.561-.596h4.684c0 .068.047.203.062.203.25 0 .344-.095.391-.203h19.873c-.546.379-1.202.514-1.904.528a.835.835 0 00-.344.068h.016zm-43.276-41.03v8.028h-.125c-.218 0-.39.054-.562.135v-8.366c.234.068.453.136.687.19v.013zm-61.713 248.409V266.71h61.011v51.398h-61.011zm0-94.322v1.786a9.268 9.268 0 00-.437-.731c-.187-.297.063-.798.437-1.042v-.013zm0 10.558c-.203.474-.421.948-.687 1.421v4.224c.344.501.578 1.015.687 1.57v-7.215zm0-50.911v11.114c-.234 0-.468-.027-.687-.068v-11.032c.234 0 .469-.014.687-.027v.013zm0-153.409v6.606a2.18 2.18 0 01-.687.243V29.7c.234.095.469.203.687.325zm-31.254 80.705s-.125-.068-.172-.082c-1.155-.324-2.42-.27-3.575-.528h-26.696V58.721h45.18c.094-.162.187-.365.312-.595h-45.492V15.648c-.234-.095-.453-.19-.687-.284v42.748h-61.011v-18.87h-.687V58.1h-10.99l-.297.162c-.312.163-.656.284-.952.433h12.239v4.535c.235-.054.469-.122.687-.244v-4.304h61.011v51.398h-45.227c0 .122.047.244.078.379.015.081.047.162.062.23h45.087v13.198a2.87 2.87 0 00.328-.42c.109-.148.234-.284.359-.419v-12.359h30.458l-.015.041zm-91.766 311.976h-.406v.162a30.01 30.01 0 00-.687.325v-.487h-61.01v51.398h15.081a8.277 8.277 0 00-.11.595h-14.987v48.623a2.377 2.377 0 00-.687 1.11v-49.746h-21.107c.078-.203.141-.406.172-.596h20.935v-51.398H251.38c-.047-.203-.094-.406-.157-.596h19.749v-51.398H212.1s.032-.067.047-.094a1.44 1.44 0 00.141-.501h58.684v-48.068c.141-.055.312-.041.422.067.093.081.171.149.265.217v47.784h61.011V357.31c.234.094.452.189.687.27v12.522h35.173c.093.203.187.406.281.595h-35.439v51.398h2.233c-.141.041-.297.095-.453.136-.468.135-.937.284-1.374.46v.014zM361.02 6.715a25.897 25.897 0 00-1.857-.461c-.875-.176-1.577-.108-2.326.23-.25.108-.531.162-.828.217h4.996l.015.013zm-81.446 519.963h-7.915v3.006l-.687-.298v-2.708h-11.225a38.12 38.12 0 00-1.046-.595h4.122c.094.149.25.257.453.311.031.054.078.095.093.149l.188.081-.094-.162c-.078 0-.125-.054-.187-.068a.907.907 0 00-.266-.311h7.884c0 .108.156.216.266.257.046.014.202-.095.249-.162a.546.546 0 00.078-.312c.047-.419.078-.839.188-1.232v1.449h7.197c.218.216.468.419.718.595h-.016zm-7.915 3.574c-.297 0-.484-.176-.578-.433-.046-.135-.078-.298-.109-.447v2.951c.281.176.5.406.687.677v-2.748zm0-159.568v51.398h61.011v-51.398h-61.011zm13.723-155.995h-8.524c.328-.23.687-.433 1.061-.596h7.962c-.156.19-.327.393-.515.596h.016zm-10.96 0h-2.763v.948c-.234.054-.468.108-.687.162v-1.11h-61.01v51.385c-.234-.231-.453-.474-.687-.691v-50.68h-61.011v51.398h25.198c-.5.149-1 .325-1.437.595h-23.761v38.241a9.815 9.815 0 01-.687-.271v-37.97h-33.299a12.638 12.638 0 01-.391-.595h33.706v-51.398H86.536v18.423c-.11-.081-.281-.163-.547-.312l-.14-.067v-18.044h-1.234c0-.204.032-.407.047-.596h1.187v-2.965c.062-.081.125-.148.187-.23.187-.216.343-.433.515-.649v3.844h61.011v-51.398H86.536v2.098a9.79 9.79 0 01-.61.176c-.03 0-.046 0-.077.014v-2.302h-.234c0-.176-.125-.365-.344-.595h.578v-1.219c.156-.067.28-.162.28-.338 0-.501.157-.934.407-1.313v2.87h61.01v-51.398h-61.01v46.714c-.219-.027-.422-.054-.61-.135-.03 0-.062-.027-.077-.054v-46.525h-61.01v16.812a6.095 6.095 0 01-.688.541v-17.367H.203c-.047-.176-.11-.338-.172-.514L0 110.079h24.136V92.224a4.26 4.26 0 00.687-.27v18.125h61.026V58.721H34.112s-.063-.121-.079-.176c-.062-.148-.124-.284-.171-.42h51.987v-5.86c.234.609.343 1.245.687 1.813v4.048h8.54c.187.095.374.176.577.243.359.095.687.23.999.366H86.52v51.398h61.011v-40.69c.109-.136.265-.244.452-.34a.624.624 0 01.25-.04v41.056h61.011v-8.013c.234-.041.468-.095.686-.176v8.189h52.784c.062.204.125.407.203.596H209.93v31.54c-.234.244-.468.474-.686.718v-32.271h-61.011V162.1h61.011v-1.76c.234-.014.468-.054.686-.095v1.855h8.212c.344.189.672.379.984.595h-9.211v51.398h61.01v-13.211c.235-.095.453-.19.687-.284v13.495h3.029s-.047.082-.062.122c-.079.163-.125.325-.203.488l.046-.014zm-2.763-51.994h28.429c-.062-.149-.172-.27-.375-.379a.492.492 0 01-.234-.23h-27.82v-22.294a2.978 2.978 0 01-.687.081v22.213h-15.487c.032.203.063.406.11.596h15.377v37.076c.219-.135.453-.27.687-.392v-36.684.013zm32.301-51.993h-16.549a1.268 1.268 0 00-.281-.596h15.487c.547.122.999.325 1.343.596zm-32.301 13.929c-.109-.041-.218-.082-.328-.136l-.374-.162v5.035c.234-.054.468-.094.686-.135v-4.602h.016zm0-65.923h17.235c-.39-.366-.952-.514-1.623-.487-.843.04-1.686.067-2.482-.109h-7.588c-.827.122-1.608.366-2.232 0h-3.31v-1.624a3.527 3.527 0 01-.687-.38v2.004h-10.819a4.143 4.143 0 00-.14.596h10.959v6.93c.234.028.469.041.687.041v-6.971zm0 12.047a2.223 2.223 0 00-.64-.365l-.062-.027v2.233c.218-.095.452-.176.686-.257v-1.584h.016zm0 3.154c-.25.054-.468.122-.687.203v23.364l.031.055c.235 0 .453.013.656.067V73.91zm0 24.163c-.297-.068-.531-.217-.656-.541h-.031v1.664c.125.068.25.15.375.217.094.054.203.081.328.122v-1.462h-.016zm0-50.126v1.679c-.265-.447-.265-1.137 0-1.679zm0 2.857c-.328-.217-.546-.434-.687-.69v2.206c.234 0 .453-.028.687-.082V50.79v.014zM246.915 318.69h-3.419c.546-.311 1.186-.501 1.857-.596h.266c.296.014.624.109.89.203a.8.8 0 01.421.393h-.015zm-36.953 8.569v3.045a3.176 3.176 0 00-.687-.243v-3.1c.218.108.453.216.687.298zm8.368-60.563a9.64 9.64 0 01-.125-.595h-8.228c.188.203.391.392.578.595h7.775zm-8.368 19.466c-.234.04-.469.067-.687.108v2.234c.234-.095.468-.19.687-.312v-2.044.014zm0-220.645c-.25.582-.453 1.177-.687 1.76v22.998s.156-.108.359-.122c.109 0 .218-.013.328-.027v-24.61zm0 25.029s-.094.013-.141.027c-.125.013-.312.027-.39-.027-.078-.054-.141-.109-.156-.15v3.913a4.59 4.59 0 00.593-.122c.031 0 .062-.013.109-.027v-3.6l-.015-.014zm0-65.314v8.677a3.2 3.2 0 00-.687.19V25.38c.218-.081.453-.135.687-.163v.014zm0 10.762v11.614a10.758 10.758 0 01-.687-.054V36.278a6.01 6.01 0 00.687-.284zm0 12.007l-.687.094v4.237h.125c.187.014.374.027.562.027v-4.372V48zm-5.09 270.703h-11.818a8.06 8.06 0 01-.624-.596h12.895l-.031.027c-.172.19-.312.379-.422.569zm-15.658-51.994l.109-.041c.062-.189.125-.379.203-.568H183s.11.121.156.176c.125.162.235.297.375.419h5.698l-.015.014zm20.061-103.988h-61.011v51.398h61.011v-51.398zm0-3.952c.109-.366.156-.745.093-1.164a15.808 15.808 0 01-.093-1.72v2.884zM195.88 58.735s-.063-.04-.078-.054c-.203-.136-.468-.217-.703-.325l.141-.108h-.125v-.109h-28.538c-.281.203-.578.393-.859.596h27.211c.625-.393 1.405-.447 2.186-.487v.08a2.17 2.17 0 01-.89.42h1.686l-.031-.013zm-85.786 207.988c-.125-.203-.266-.406-.391-.595h-4.059c.141.203.281.392.422.595h4.028zm-23.543-33.015v.027c-.172.311-.39.609-.468.934-.094.325-.156.69-.031.988.156.379.359.758.515 1.137v-3.086h-.016zm0 4.968v.162-.162zm0-61.28c-.187-.027-.374-.041-.562-.068h-.125v3.411s.047.055.063.082c.187.216.406.419.624.622v-4.047zM24.838 70.864c-.265.094-.515.23-.687.379v14.551s.11-.04.172-.067c.172-.068.343-.136.53-.203V70.85l-.015.014zm61.01-20.13v-.974c.063.068.094.15.141.217.14.257.047.514-.14.758z" fill="#BCBCBC"/></svg>