<svg width="40" height="40" fill="none" xmlns="http://www.w3.org/2000/svg"><path d="M23.416 10A8.333 8.333 0 0130 16.583m-6.584-13.25a15 15 0 0113.25 13.234m-19.622 6.538a24.336 24.336 0 01-4.744-6.683c-.1-.208-.15-.312-.188-.443a1.743 1.743 0 01.245-1.437c.08-.111.176-.207.366-.397.583-.583.874-.874 1.064-1.167a3.333 3.333 0 000-3.634c-.19-.293-.481-.584-1.064-1.167l-.325-.325c-.886-.885-1.328-1.328-1.804-1.569a3.333 3.333 0 00-3.009 0c-.476.24-.918.684-1.804 1.57l-.263.262c-.883.883-1.324 1.324-1.661 1.924-.374.666-.643 1.7-.64 2.464.001.688.135 1.158.402 2.1a31.731 31.731 0 008.122 13.805 31.731 31.731 0 0013.806 8.123c.941.267 1.412.4 2.1.402.763.003 1.798-.266 2.463-.64.6-.337 1.042-.779 1.925-1.661l.262-.263c.886-.886 1.329-1.329 1.57-1.804a3.333 3.333 0 000-3.01c-.241-.475-.684-.918-1.57-1.804l-.324-.325c-.583-.582-.874-.873-1.168-1.064a3.333 3.333 0 00-3.633 0c-.293.19-.585.482-1.167 1.065a3.41 3.41 0 01-.397.365c-.396.283-.97.381-1.437.245-.132-.038-.236-.088-.444-.188a24.34 24.34 0 01-6.683-4.744z" stroke="#f75301" stroke-width="2" stroke-linecap="round" stroke-linejoin="round"/></svg>