<svg width="43" height="43" fill="none" xmlns="http://www.w3.org/2000/svg"><circle cx="21.338" cy="21.338" r="21.338" fill="#F76501"/><path fill-rule="evenodd" clip-rule="evenodd" d="M9.027 16.414a7.386 7.386 0 017.387-7.387h9.848a7.386 7.386 0 017.386 7.387v9.848a7.386 7.386 0 01-7.386 7.387h-9.848a7.386 7.386 0 01-7.387-7.387v-9.848zm7.387-4.925a4.924 4.924 0 00-4.925 4.925v9.848a4.924 4.924 0 004.925 4.924h9.848a4.924 4.924 0 004.924-4.924v-9.848a4.924 4.924 0 00-4.924-4.925h-9.848zm2.462 9.849a2.462 2.462 0 104.924 0 2.462 2.462 0 00-4.924 0zm2.462-4.924a4.924 4.924 0 100 9.848 4.924 4.924 0 000-9.848zm5.54-2.462a1.847 1.847 0 100 3.693 1.847 1.847 0 000-3.693z" fill="#fff"/></svg>