<svg width="702" height="1020" fill="none" xmlns="http://www.w3.org/2000/svg"><path fill-rule="evenodd" clip-rule="evenodd" d="M241.798 51.3c-.14.14-.393.28-.589.28-.393 0-.786-.027-1.179-.055 0 .028-.056.084-.084.112l-.085-.084c.534 1.01 1.095 2.02 1.516 3.059a68.293 68.293 0 011.6 4.602c.477 1.656 1.488 2.92 2.947 3.873 1.011.646 2.021 1.32 3.032 1.965.561.337 1.347 0 1.487-.87.337-2.133 1.825-3.256 3.706-3.901a21.035 21.035 0 014.94-1.123c1.066-.112 1.768-.673 2.61-1.122 1.263-.674 1.853-.59 2.498.224.674.87.534 1.712-.112 2.498-.112.14-.224.253-.365.365h-.168l-.169.505.197-.337s.084-.112.14-.14c2.386.309 4.66.42 6.793-1.179.87-.673 2.245-1.038 3.424-1.066 3.986-.112 7.663-1.207 11.284-2.638 1.628-.646 3.34-.365 4.996.168.618.197 1.039.898.871 1.712-.169.645-.393 1.29-.59 1.964a.742.742 0 00-.168-.14 4.979 4.979 0 01-.393.253c-.477.084-.983.168-1.488.196-.73.056-.898.253-.421.59.14.112.477.084.646 0a11.64 11.64 0 001.235-.786c.196 0 .365-.028.561-.056v-.028c.309.252.646.505.926.785.786.73 1.741.983 2.667.505 1.516-.757 2.947-1.655 4.463-2.47 1.179-.645 1.656-1.627 1.768-2.862.113-1.178.421-2.33 1.572-3.003.281-.168 1.067-.028 1.207.169.337.59.562 1.29.618 1.964.252 3.284.084 6.54-.842 9.71-.534 1.825-.59 3.677-.253 5.557.056.365.505.814.87.955.393.14 1.067.056 1.376-.169 2.077-1.6 4.098-3.311 6.175-4.94.561-.42 1.263-.7 1.908-.981.141-.056.422.084.59.224.168.14.421.393.365.533-.449 2.723-.955 5.445-2.891 7.718-.421.477.393 1.403 1.207 1.347.729-.056 1.515-.028 2.105-.365a7.697 7.697 0 002.217-1.796c1.656-1.936 3.565-2.133 5.895-1.207 2.666 1.067 4.772 2.442 5.221 5.36 1.487 9.29 33.57 33.061 35.507 32.64.955-.196 1.881-.505 2.835-.702.786-.168 2.105.506 2.47 1.207a94.554 94.554 0 011.965 3.761c.73 1.459 1.432 2.947 2.162 4.434.561 1.123.617 2.217 0 3.34-.365.617-.814 1.431.056 1.768.449.168 1.347-.365 1.824-.786.505-.449 1.011-1.123 1.067-1.768.252-2.329.87-4.575 1.572-6.82.477-1.515 1.515-2.329 2.947-2.862.926-.337 1.852-.702 2.807-.87 1.993-.309 3.705-1.067 5.333-2.189 1.151-.786 2.667-1.039 4.014-1.544.168-.084.365-.505.309-.561-.253-.281-.674-.758-.927-.702-1.403.365-2.75.982-4.154 1.291-1.431.309-2.919.309-4.379.561-.449.085-.758.562-1.207.786-.701.393-1.431.197-2.049-.252-1.094-.814-1.544-2.161-1.122-3.087.617-1.348 1.628-2.582 3.143-2.695 3.425-.224 6.821-.645 10.217-1.178 1.572-.253 3.453 1.347 3.593 2.89.056.702.169 1.403.056 2.105-.421 2.47.899 4.519 1.6 6.708.309.982 1.067 1.627 2.049 1.852 2.274.533 4.07 1.459 5.081 3.648.73 1.572 2.33 2.358 3.874 3.115.898.449 1.852.59 2.863.421.729-.112 1.459-.252 2.133-.533 1.712-.786 3.368-.449 4.996.169.898.364 1.769.813 2.667 1.178.926.393 1.908.477 2.807 0 .729-.393.758-1.122.758-1.824 0-.786.477-1.235 1.038-1.74.702-.617 1.544-1.235 1.937-2.021.645-1.319 1.628-1.403 2.947-1.403 1.179 0 2.358-.393 3.537-.617-.056-.056-.141-.113-.197-.197l.253.169c-1.319-2.947-4.098-4.491-6.624-6.259-.506-.365-.478-1.487 0-1.88.168-.14.308-.365.505-.505.393-.253.814-.646 1.263-.702 3.424-.393 5.642-2.413 7.551-4.911.701-.926 1.712-1.628 2.582-2.414.393-.365 1.712-.168 1.993.28.253.394.561.759.73 1.18 1.151 3.115 3.536 4.237 6.849 4.013h1.178c-.112 1.543-.168 3.059-2.442 3.424-1.656.252-1.628.477-1.571 1.74.084 1.628.252 3.227.252 4.855 0 .393-.309.954-.673 1.123-1.516.729-3.116 1.375-4.66 2.048-.954.421-1.909.253-2.863 0a83.859 83.859 0 00-2.835-.701l.225.224-.225-.224a13.168 13.168 0 01-.646-.618c.225.197.421.393.646.618.197 2.048.954 3.564 3.453 3.76.645.056 1.038 1.207.673 1.684-1.291 1.684-2.61 3.34-3.93 5.024-1.01 1.263-1.038 1.796-.112 3.115a69.31 69.31 0 001.628 2.301c.141.169.337.309.505.477.225-.308.59-.561.646-.898.337-1.599.449-3.227.87-4.799.562-2.133 1.684-3.929 4.407-3.929 2.105 0 3.761-.982 5.277-2.189a70.19 70.19 0 003.761-3.312c.702-.673.674-1.599.506-2.497.056 0 .112 0 .168.028l.393-.337-.561.168v.141c-.421-.084-.871-.169-1.235-.337-1.151-.533-1.516-1.431-.927-2.161 1.011-1.263 1.965-2.61 3.116-3.761.421-.421 1.263-.561 1.937-.673.561-.112.954-.225.926-.674 0-.168-.253-.365-.421-.477-1.403-.898-2.751-1.852-4.21-2.666-.534-.309-1.207-.421-1.853-.589-.365-.786-.617-1.628-1.151-2.274-1.123-1.347-1.431-2.89-1.6-4.518-.196-1.712.253-3.2 1.432-4.49.309-.337.617-.702 1.01-1.01 1.207-.955 1.404-2.218 1.628-3.65.534-3.535 2.442-6.482 5.67-8.447.927-.56 2.134-.673 3.256-.954v.112c.085.057.141.085.225.14.028.253.112.366.281.17-.085-.057-.197-.113-.281-.17 0-.111-.028-.14-.028-.308-.056 0-.141 0-.197.028-.056-1.094-.252-2.217.983-3.003 1.431-.898 2.779-1.908 4.21-2.806.646-.393 1.039-.842 1.291-1.544 3.846-10.075 6.709-30.73 22.596-27.728.926.169 1.937.506 2.667 1.039 2.329 1.712 4.771 3.2 7.859 3.395.224 0 .449.197.674.281 1.15.477 1.824 2.666 1.122 3.677-.533.757-1.066 1.571-1.768 2.217a786.884 786.884 0 01-10.133 9.177c-.702.645-1.516 1.207-2.33 1.712-1.291.814-2.666 1.122-4.154.337-1.067-.562-2.161-1.095-3.312-1.488-.281-.084-.87.309-1.151.618-.309.336-.505.814-.561 1.263-.197 1.459-.814 2.638-2.077 3.564-1.769 1.263-3.453 2.61-5.249 3.816-.927.618-1.46 1.32-.955 2.274 1.348 2.582.955 5.5 1.937 8.139.225.617.196 1.459-.056 2.048-1.853 4.35-1.207 8.672-.084 13.022.308 1.207-.113 1.656-1.965 2.273-.449.141-1.011.169-1.291.45a107.583 107.583 0 00-3.986 4.041c-.421.421-.197.814.309 1.179.982.701 1.992 1.291 3.284 1.431 1.543.168 2.638 1.15 3.789 2.021 1.151.87 1.039 2.104-.337 2.722-.87.393-1.937.449-1.824 1.712.252 2.385-.449 4.602-1.235 6.819-.169.506.168.842.701.814.225 0 .478-.14.674-.252.982-.73 1.853-1.544 2.217-2.723.646-2.104 2.246-3.564 3.706-5.135.477-.534 1.656-.534 1.964-.028 1.572 2.694 2.695 5.472 2.218 8.643-.14.927-.365 1.825-1.179 2.47-2.302 1.824-2.863 4.21-2.47 6.904.196 1.375.477 2.778.954 4.098.197.561.955 1.038 1.572 1.319.758.336 2.133-.225 2.583-.899.533-.785.982-1.627.561-2.61-.393-.898-.337-1.768-.084-2.722.421-1.684 1.179-2.722 2.021-2.526 1.038.253 1.263 1.123 1.628 1.881h-.085c-.028.14-.084.308-.14.449a2.71 2.71 0 01.309-.281l-.084-.168c1.01 0 1.852-.393 2.414-1.179a20.401 20.401 0 001.768-3.031c.814-1.74 1.712-3.34 4.014-3.536.842-.814 1.684-1.628 2.554-2.414.393-.365.449-.729.281-1.263-.73-2.189.674-4.013 1.179-5.977.505-2.021 1.937-3.087 4.21-3.059.477 0 .955-.225 1.404-.337l-.225-.197h.168c-.224-1.431-1.038-2.357-2.666-2.076-2.133.364-3.396-.73-4.631-2.021-.393-1.123-.955-2.105-2.33-2.386-.702-.14-1.46-.168-2.19-.308-1.179-.197-2.498-.113-3.34-1.179-1.038-1.291-2.358-2.442-2.498-4.182-.112-1.15-.168-2.329-.112-3.48.112-1.992 2.442-3.311 4.266-2.413 1.291.645 2.498 1.46 3.818 2.076.28.14 1.01-.14 1.263-.42.224-.253.252-.927.056-1.207-.393-.562-.898-1.179-1.516-1.431-1.768-.786-3.649-1.404-5.473-2.133-1.853-.758-2.639-2.414-1.825-3.957 1.656-3.088 2.47-6.596 5.389-9.037.674-.562.871-1.656 1.32-2.47a43.46 43.46 0 011.515-2.414c.253-.392.562-.813.955-1.038 3.256-1.88 4.687-5.388 7.607-7.55 1.936-1.43 3.733-3.058 5.838-4.265 4.407-2.498 9.122-3.48 14.063-1.431.842.336 1.543 1.094 2.161 1.796.224.252.14.898 0 1.263-.197.392-.59.813-.983.982-3.929 1.571-7.129 4.07-9.88 7.156-.645.702-1.459 1.263-2.161 1.909-.926.842-1.488 1.964-1.376 3.143.169 1.964-.112 3.676-1.459 5.248-.618.702-.898 1.628-1.348 2.47-.112.224-.168.449-.28.645-.955 2.217.224 6.483 2.358 8.28.196.168.842-.057 1.235-.225.168-.056.336-.365.336-.562 0-.449-.112-.926-.252-1.347-.421-1.347-.926-2.666-1.319-3.985-.393-1.29.112-2.217 1.319-2.919 1.038-.617 1.852-1.515 3.144-1.74 1.01-.196.757-.87.561-1.571-1.039-3.143-.309-5.95 2.021-8.335.814-.842 2.021-1.376 2.807-2.246 1.712-1.852 3.733-2.89 6.372-2.89 3.031 0 5.613-1.628 8.505-2.19 1.235-.252 2.414-.364 3.621-.055 2.329.589 3.396 1.038 3.424 3.788 0 .45.056.898.056 1.347-.589.646-1.01 1.376-1.01 2.246-.057 3.227-1.376 6.146-2.246 9.205a83.842 83.842 0 00-.898 3.62l-.253.168c-.224.225-.449.45-.645.674.252-.196.505-.365.842-.505 0-.112.056-.225.084-.337 1.319-.814 2.526-1.46 4.323-.449 1.712.954 3.733.87 5.613-.252 1.881-1.123 3.93-1.993 6.26-1.712l-.225-.197h.028c-.729-.926-1.824-1.179-2.947-1.094-1.431.084-2.835.505-4.266.617-2.386.168-5.418-2.273-4.688-4.883.449-1.6.618-3.031-.056-4.63-.309-.73.112-1.74.196-2.61.562-.927 1.123-1.853 1.713-2.78.589-.897 1.656-1.318 2.442-.897 2.357 1.319 4.828 2.133 7.55 2.638 2.863.533 4.632 2.385 5.446 5.108.729 2.497.982 5.023 1.122 7.577 0 .505-.87 1.347-1.459 1.319-1.684-.112-3.368-.253-5.053-.365 0 .028.056.056.085.084 2.329 1.628 4.687 3.228 6.933 4.912.982.73 1.543 1.768 1.515 3.059 0 .898-.982 1.684-.421 2.582.365.56 1.151.842 1.572 1.375.225.309.309.954.141 1.29-.45.815-1.067 1.572-1.713 2.218-.449.449-.645.758-.168 1.066.168.113.477.169.702.14 1.459-.168 2.807-.56 3.593 1.32.449 1.094 1.01 1.178 2.413.42 1.657-.897 2.835-.448 3.902.702.814.87 1.516 1.825 2.133 2.835.927 1.487.814 3.087.197 4.687-.028 0-.056-.028-.084-.056l-.281.42.337-.308v-.056c.561.393 1.403.701 1.515 1.178.365 1.628 1.46 2.358 2.976 2.695 3.48.729 5.333 2.778 6.119 6.062.477 1.992 1.544 3.872 2.302 5.809.561 1.431.364 2.75-.73 3.873-1.348 1.347-.842 2.47.421 3.536.168.14.337.365.365.589.084.674.337 1.488.028 1.965-.281.449-1.235.814-1.825.758-1.207-.141-2.358-.59-3.536-.898-.59-.169-1.095.056-.983.533.533 2.413-1.038 3.873-2.47 5.444-.589.646-.393 1.46.505 1.628 2.414.477 3.818 1.796 4.491 4.041.337 1.123 1.123 2.105 2.302 2.582 1.319.534 2.723.926 4.07 1.404-.14 1.655 1.039 2.329 2.33 3.059 1.319.729 1.291.982.505 3.087-.337.87.281 2.02 1.207 2.161.477.084.954 0 1.432.028.477 0 1.01-.028 1.431.14.393.168.674.618 1.011.926l.196-.14v.309c-.056-.056-.112-.085-.168-.141-.534.477-.59.926 0 1.375l.168-.168v.309l-.196-.141c.617.842 1.6.955 2.554 1.123 1.937.337 2.835 1.74 3.396 3.312.197.589.113 1.431-.196 1.964-.59 1.011-1.235 2.273-2.218 2.722-3.171 1.488-4.463 4.996-7.831 6.147-.674.224-1.403.365-2.105.533-1.067.252-1.572.982-1.825 1.936-.336 1.347-.673 2.695-1.151 3.986-.112.308-.842.673-1.178.589-1.937-.477-3.481-1.628-4.913-2.919-.336-.309-.561-.786-.673-1.207-.253-.898-.421-1.824-.562-2.75-.364-2.105-1.291-3.985-2.638-5.669-1.039-1.291-1.993-2.638-3.003-3.957-.393-.505-1.544-.449-1.825.14-.309.618-.589 1.235-.758 1.909-.561 2.02-.842 2.217-2.975 2.217-.421 0-.87-.085-1.291-.169v-.14l-.393-.168.252.28h.169c.056.421.028.926.28 1.207 1.46 1.684 1.909 3.648 1.825 5.753-.056 1.011.281 1.853 1.01 2.498 1.235 1.095 2.499 2.217 3.874 3.143 1.291.87 2.161 1.824 1.993 3.424-.281 2.582.252 5.052 1.347 7.465.281.618.365 1.347.533 2.021.309 1.207.113 2.414-.954 3.143-1.235.842-1.993 1.937-2.779 3.143-1.179 1.741-1.431 3.368-.337 5.192.281.478.057 1.039-.477 1.151-.365.056-.954-.252-1.179-.561-.786-1.179-1.459-2.414-2.133-3.649-.702-1.291-1.6-2.413-3.003-2.946a11.337 11.337 0 01-4.632-3.312c-1.543-1.824-3.593-2.919-5.838-3.733v-.224c-.084-.056-.197-.112-.281-.169 0-.056 0-.14-.056-.196-.056-.084-.253-.056-.393-.084.14.084.309.196.449.28.028.113.084.225.112.337.057 0 .113.056.169.056-.028 1.348.14 2.667 1.291 3.593 3.256 2.61 5.081 6.146 6.989 9.626.73 1.375.534 2.694-.196 3.929-.197.337-.814.702-1.123.617-1.403-.365-2.779-.785-4.098-1.375-1.291-.589-2.414-1.768-3.761-2.049-3.088-.673-5.165-2.525-7.13-4.574-1.151-1.207-2.33-2.358-3.986-2.947l.141.14h-.141v-.056c-2.217-1.01-3.901-2.61-5.277-4.518-.589-.814-.842-1.796-.393-2.638.842-1.516.197-2.414-.758-3.677-1.403-1.852-2.301-4.069-3.48-6.118-.618-1.038-1.488-1.628-2.863-1.88-2.583-.449-5.361.421-7.832-.954-.364-.197-.954-.169-1.403-.056-.954.196-1.937.421-2.807.813-3.509 1.628-6.147.337-8.505-2.104-.898-.955-1.235-2.807-.561-3.929.477-.814.926-1.74 1.656-2.274 1.572-1.15 3.003-2.357 4.182-3.873.225-.252.955-.421 1.291-.28 1.348.561 2.639 1.207 3.93 1.88 2.274 1.179 4.547 1.459 7.073.589 2.274-.785 4.576-1.543 7.074-1.459.168 0 .589-.87.477-1.151-2.554-5.528-1.179-5.837 2.835-8.503 1.993-1.347 4.098-2.526 5.502-4.547.842-1.178 2.189-1.852 3.649-2.217 1.094-.28 1.543-1.178 1.628-2.105.252-2.329.224-4.658.561-6.96.309-2.02.281-3.704-2.077-4.602-.365-.141-.674-.702-.786-1.123-.561-2.077-1.993-2.47-3.958-1.964-.477.112-.954.364-1.403.308-.449-.056-.927-.308-1.263-.589-.449-.393-.337-1.516.224-1.88.59-.393 1.291-.59 1.909-.898.477-.253.589-.646.281-1.123-.113-.168-.337-.337-.534-.449-1.936-.926-3.845.477-5.754.028-.337-.084-.758-.758-.702-1.066.169-.618.506-1.319 1.011-1.712.533-.421 1.375-.477 2.021-.758.758-.309 1.01-1.123.477-1.684-1.656-1.768-2.723-3.789-3.34-6.09-.281-1.038-1.516-1.936-1.628-2.947-.084-1.066.673-2.189 1.038-3.283.085-.225.225-.477.169-.674-.141-.421-.309-.982-.618-1.151-1.431-.701-2.947-1.262-4.435-1.88 0-.084-.028-.168-.028-.224-.084-.057-.084-.113-.168-.169.056-.814.14-1.656.224-2.47.141-.112.365-.28.337-.308-.309-.393-.421-.337-.337.168v.169c-1.375 1.206-1.403 1.319-.224 2.469v.309c.084 0 .14.056.224.084.113.786.309 1.6.309 2.386.028 2.133-.926 3.452-2.919 3.957-1.123.28-2.274.421-3.425.645l.169-.168a78.268 78.268 0 01-1.46-1.684h-.252c-.506-.982-1.432-1.179-2.47-1.179 0-.056-.085-.112-.085-.168l-.477-.14.281.308h.253c.421 1.151 1.403 1.235 2.47 1.179.028.056.084.084.084.14.505.562.982 1.123 1.487 1.712-.421.449-.842.983-1.347 1.151-.617.168-1.516.056-2.077-.253-1.207-.757-2.274-1.712-3.424-2.582-.393-.28-.786-.533-1.179-.785-.197-.113-.477-.309-.674-.253-3.144.589-5.417-1.852-8.308-2.161-.702-.084-1.432.168-2.162.281-1.235-1.095-2.891-1.039-4.407-1.347v.112c1.263 1.01 2.723 1.487 4.379 1.403.14 1.123.505 2.161 1.965 2.105 1.853-.056 2.61.814 2.582 2.385-.028 2.049 1.011 3.312 2.891 4.042.702 1.15 1.544 2.273.337 3.592-.645.73-.758 1.544-.814 2.498-.168 2.722-1.151 3.648-3.901 3.845-.87.056-1.769-.197-2.667-.337v-.056l-.533-.113.337.141s.112 0 .168.028c-.281 1.347-.505 2.694-.898 4.013-.421 1.403-.477 2.694.252 4.041.45.814.646 1.74.927 2.638.365 1.179.084 2.302-.562 3.34-.87 1.375-1.656 2.807-3.621 3.2-.87.168-1.712.87-2.414 1.487-2.021 1.74-4.322 3.059-6.764 4.154-3.565 1.599-7.13 1.178-10.638-.225-.225-.084-.478-.253-.534-.449-.926-2.638-3.087-2.526-5.333-2.217-.589.084-.786.561-.561 1.094.084.225.196.421.308.618 1.292 2.329 1.292 2.329-.589 4.069-.309.281-.617.59-.954.87-.028.028-.084.056-.113.112-.449.421-.898.842-1.347 1.291-1.684 1.291-3.368 2.61-5.052 3.901-.814.618-1.151 1.348-1.067 2.358 0 .421-.112 1.01-.421 1.291a911.697 911.697 0 01-11.144 9.991c-.982.87-2.245.842-3.452.449-1.151-.393-2.246-.926-3.396-1.291-.73-.253-1.572-.056-1.853.617-1.347 3.34-4.098 4.098-7.438 3.873v-.196c-.169-.028-.365-.056-.562-.112.113.084.253.196.365.28h.197c.084 1.095.252 2.189.196 3.284 0 .252-40.139 24.725-36.237 42.237.224.954.982 1.459 2.077 1.544.954.056 1.937.084 2.891.28.393.084.926.505 1.039.87.252.87.393 1.824.421 2.723.112 2.553 0 5.107.252 7.633.225 2.217-.645 3.957-1.796 5.669h-.253l-.084.365.253-.196s.056-.113.112-.141c2.189.281 4.182-.561 6.231-1.066a4.776 4.776 0 013.565.477c2.358 1.263 4.744 2.498 7.045 3.817 2.583 1.459 4.8 3.367 6.176 5.893 1.319 2.386 3.172 4.126 5.698 5.276 2.722 1.235 4.968 3.003 6.736 5.333.618.814 1.572 1.206 2.583 1.178 3.986-.084 7.719 1.404 11.62 1.74.449.057 1.123 1.263.983 1.74-.337 1.123-.702 2.218-1.067 3.34-.365 1.123-1.066 2.245-1.01 3.34.168 3.676-1.432 6.82-3.06 9.963-.449.87-.617 1.74-.056 2.638 1.628 2.582 2.358 5.613 4.912 7.718.842.673 1.039 2.048 1.544 3.115.309.645.533 1.291.842 1.908.365.702 1.881 1.011 2.582.505 1.179-.785 2.021-2.104 3.818-1.74.337.057.926-.28 1.151-.589a32.238 32.238 0 002.133-3.676c.281-.59.365-1.348.337-2.021-.056-1.824-.337-3.677-.281-5.501.056-1.852.309-3.704.646-5.529.505-2.806.224-5.584.112-8.391-.056-1.235.533-2.217 1.852-2.722 1.825-.702 3.678-1.375 5.502-2.077 3.902-1.515 7.579-3.368 10.554-6.286.842-.814 2.021-1.291 3.003-1.993.337-.253.814-.814.73-1.066-1.066-2.835 1.039-5.473.449-8.28-.533-2.525-.729-5.079-1.207-7.605-.168-.87-.673-1.74-1.207-2.498-.673-.982-1.543-1.824-2.273-2.75-1.067-1.347-1.011-2.722 0-3.845 2.105-2.273 4.8-4.013 6.175-6.876.253-.533 1.179-.814 1.796-1.179 1.376-.785 2.274-1.683 1.713-3.395-.281-.87-.534-1.909-.337-2.751.477-2.161-1.376-4.153-.533-6.118.729-1.684 2.245-3.031 3.424-4.518.842-1.095.674-2.161 0-3.256-.954-1.543-.814-3.087-.168-4.715 1.066-2.694 4.21-4.406 7.101-3.62 1.179.309 2.442.617 3.396 1.291 2.499 1.796 5.53 1.74 8.365 2.357.898.197 2.021.085 2.863-.252 2.302-.898 3.789 0 5.053 1.656.729.926 1.599 1.852 1.964 2.89.618 1.825 1.685 3.34 2.948 4.771.533.618.336 1.291.308 1.993-.028.73.197 1.375.927 1.74.87.421 1.768 1.179 2.638 1.179 2.386 0 3.761 2.048 5.951 2.329.702.084 1.151 1.207.786 1.712-1.376 1.965-2.162 4.154-3.032 6.315-.252.645-.87 1.459-.673 1.936 1.01 2.442-.562 4.546-.702 6.82-.084 1.403.112 2.834 1.684 3.592 1.123.561 2.049 1.319 2.47 2.498a4.67 4.67 0 001.684 2.217c1.039.73 2.134 1.263 3.425.758a21.899 21.899 0 003.284-1.516c.814-.477 1.431-1.375 2.302-1.712 3.508-1.319 5.333-4.041 6.792-7.016 1.46-2.975 3.818-5.36 5.614-8.111.084-.14.505-.252.674-.196.393.168.982.365 1.094.673.281.87.421 1.825.534 2.751.393 3.227.982 6.427 2.217 9.514.534 1.291.842 2.694 1.095 4.041.196 1.123 0 2.329.365 3.396.309.898-.533 2.02.421 2.61 1.235.729.561 2.189 1.516 3.003.505.421 1.122 1.235 1.01 1.74-.477 1.992.253 3.62 1.375 5.192.59.842.534 1.768-.224 2.554-.842.87-1.74 1.655-2.582 2.497-.73.758-.702 1.656.056 2.526.786.898 1.487 1.881 2.358 2.638 1.824 1.6 3.761 3.031 4.294 5.501.084.393.562.786.983.982 2.385 1.151 5.052 1.796 6.792 3.929.197.253.955.141 1.432.084 1.488-.14 2.189.814 2.891 1.769.646.898.477 1.992-.421 2.413-.646.309-1.376.449-2.049.73-.337.14-.59.449-.87.673.224.056.449.169.701.197.73.056 1.488.028 2.218.168 1.347.225 2.133 1.123 2.498 2.301.197.646.253 1.348.337 2.021h-.14l-.337.281.477-.253v-.056c2.526-.365 4.042 1.038 5.193 2.891.337.533.449 1.375.337 2.02-.169.898-.534 1.796-.955 2.61-.589 1.151-.393 2.161.112 3.284.786 1.796-13.276 11.198-14.708 12.18-4.042 2.75-15.213 5.445-21.95 4.518-6.793-.926-13.613-1.768-20.49-1.908-1.685-.028-3.481-1.01-5.025-.084-1.656.982-3.031 2.329-4.519 3.536-.365.309-.674.702-.842 1.123-.814 1.964-2.554 2.694-4.491 3.255a23.044 23.044 0 00-8.252 4.434c-.871.73-1.46 1.628-1.348 2.779-.056.028-.112.056-.168.112l-.225.224c-1.937.309-2.105.478-2.386 2.386l-.252.253a372.49 372.49 0 00-3.172 1.094l-1.6 1.263-.14.533.14-.337c.589-.421 1.151-.842 1.74-1.262 1.067-.365 2.134-.758 3.228-1.123 0-.14.028-.253.056-.393.786-.786 1.6-1.572 2.386-2.385.141 0 .253-.029.393-.057v-.252c5.698-3.789 12.379-4.996 18.919-6.595 2.498-.618 4.856.224 6.905 1.599.758.505 1.235 1.404 1.712 2.189.561.955.169 2.526-.645 3.2-1.46 1.263-3.2 2.105-5.025 2.75-.421.168-.87.281-1.291.421.225.112.421.281.646.309.477.084.982 0 1.459.14 1.235.309 1.825 1.038 1.376 1.937-1.123 2.161-1.067 4.35-.73 6.679.393 2.638 1.712 4.069 4.435 4.266.14 1.431.786 2.413 2.498 2.554.814.056 2.947 3.592-3.565 9.682-1.909-.421-3.2.281-4.323 1.768-1.936 2.498-4.687 4.069-7.634 5.304-.365.141-1.011 0-1.376-.224-1.319-.758-2.245-1.881-2.526-3.284-.168-.842 0-1.88.337-2.694.87-2.021 2.47-3.48 4.519-4.434.87-.421 1.852-.646 2.695-1.067.28-.14.336-.729.449-1.094 0-.028-.421-.281-.59-.253-2.414.449-4.8.898-7.186 1.488-.617.168-1.347.757-1.571 1.319-.337.898-.506 1.852-1.656 2.048-3.116.534-6.035 2.021-9.376 1.74-1.207-.084-2.442.281-3.396 1.151-1.291 1.179-2.891 1.74-4.491 2.357-2.919 1.095-4.856 3.172-6.119 5.81-.702 1.459-1.179 3.059-1.684 4.602-.365 1.095.477 2.554 1.824 3.424 1.825 1.151 1.909 1.684.365 2.807-.589.421-1.235 1.094-1.852 1.094-4.211-.084-8.14 1.937-12.407 1.347-.225-.028-.505 0-.73 0-.252.029-.645.028-.702.141-.196.505.113.701.786.757.478.029.955.169 1.404.365.196.085.365.365.365.59 0 .196-.169.449-.337.561-.618.365-1.263.786-1.937.954-1.431.337-2.891.618-4.351.702-2.189.14-3.677.645-4.07 3.115-.477 2.806-2.049 5.22-4.154 7.269-.87.842-1.796 1.599-3.144 1.543-.617 0-.982.225-1.01.758-.028.702.056 1.403-.056 2.077-.169.898-.253 1.908-.73 2.666-1.123 1.796-2.442 3.48-3.733 5.164-.113.168-.562.337-.646.28-.337-.252-.814-.617-.842-.954-.056-1.15.281-2.357-.87-3.199-.168-.112-.421-.225-.646-.225-.196 0-.561.141-.561.253-.196 2.077-.421 4.126-.505 6.202 0 .674.196 1.432.561 1.993 1.235 1.796.898 3.648 0 5.332-.674 1.319-.168 2.133.505 3.143.421.646 0 1.404-.505 1.881-.702.645-1.516 1.178-2.33 1.684-.617.364-1.319.589-1.347 1.459-.028 1.319-.814 2.245-2.133 2.498-2.779.505-5.025 1.852-7.046 3.648-1.263 1.123-2.554 2.133-4.294 2.61-.87.225-1.628 1.01-2.274 1.684-.842.842-1.459 1.88-2.273 2.75-.983 1.067-2.077 1.993-3.537 2.414-.477.14-.926.365-1.403.477-4.099.982-6.485 4.041-9.095 6.82-.589.645-.898 1.684-.982 2.582-.562 5.613-.842 11.197 1.403 16.586.084.224.197.449.225.673.224 1.853.252 3.705.673 5.501.421 1.824 1.207 3.564 1.797 5.332.14.421.112.927.084 1.376-.309 3.311-1.404 6.398-3.256 9.233-.898 1.375-3.312 1.684-4.491.421-1.263-1.403-2.751-2.807-3.453-4.49-1.515-3.677-3.817-7.017-4.856-10.89-1.122-1.206-1.094-2.497-.449-3.901.309-.645.477-1.319.73-1.992.477-1.179.337-2.301-.477-3.284-1.516-1.852-3.003-3.704-4.603-5.472-.674-.73-1.685-.983-2.695-.646-.926.309-1.797.73-2.723 1.067-1.207.449-2.526.561-3.452-.393-2.723-2.863-6.147-3.677-10.021-3.48-3.453.168-6.877-.702-10.329-.113-.955.169-1.993.169-2.892.478-1.122.392-2.161.841-2.273 2.329-.084 1.319-.646 2.638-1.011 3.929-1.319.533-2.582 1.263-3.957 1.487-2.723.449-5.362.506-7.13-2.273-.814-1.263-2.246-1.6-3.902-.898-1.403.617-2.891.337-4.294-.196-1.881-.702-3.958-1.095-5.782-.393-2.218.87-4.688 1.122-6.597 2.778-2.554 2.245-5.586 3.508-9.15 4.098-3.004.505-4.969 2.918-5.979 5.697-1.123 3.087-1.909 6.286-1.544 9.598.253 2.441-.112 4.574-1.88 6.511-.59.673-.843 1.656-1.067 2.554-1.123 4.771-1.656 9.654-1.937 14.537-.084 1.375.084 2.807.281 4.182.309 2.077.758 4.125 1.151 6.174.224 1.179.617 2.273 1.459 3.171 1.797 1.965 3.116 4.154 4.183 6.539.785 1.74 2.049 3.144 4.07 3.789 1.656.533 3.199 1.235 4.35 2.526 1.544 1.712 3.565 1.544 5.446 1.179 2.386-.505 4.659-1.488 7.017-2.077 1.151-.281 2.554-.505 3.593-.14 2.442.898 4.266.954 5.165-1.797 2.975-2.329 4.294-5.528 5.249-8.952.308-1.095.757-2.189 1.263-3.256.87-1.824 2.301-3.003 4.519-3.059 2.47-.056 4.884-.224 7.186-1.206 2.806-1.179 5.782-.73 8.729-.646 1.319.028 2.639 1.908 2.246 3.059-.225.674-.421 1.375-.843 1.937a30.253 30.253 0 01-2.694 3.311c-1.544 1.656-2.274 3.452-2.133 5.697.084 1.6-.337 3.228-.646 4.827-.281 1.488-1.123 2.526-2.947 2.582-.87 0-1.263.646-1.348 1.347-.224 1.376-.589 2.807-.449 4.154.281 3.031-.758 5.473-3.003 7.549-.365.337-.14.842.477.983 1.179.252 2.414.533 3.621.533 1.965 0 3.93-.393 5.866-.309 2.471.141 4.716-1.15 7.27-.561 2.134.477 4.379.702 6.569.786 2.329.056 4.07 1.094 5.67 2.469l-.253.309.449-.14s-.112-.112-.168-.141c.898.309 1.852.562 2.722 1.011.365.168.786.729.758 1.094-.084 2.302.084 4.743-.617 6.876-.73 2.245-1.404 4.378-1.46 6.736 0 .898-.309 1.936-.842 2.61-1.6 2.02-1.628 4.322-1.572 6.651 0 .674.225 1.403.562 1.965 1.094 1.824 2.161 3.648 3.48 5.304 2.246 2.806 4.772 5.36 8.814 5.725 2.189 1.319 4.182.617 6.175-.505.842-.477 1.796-.786 2.639-1.235 2.722-1.487 5.585-1.516 8.533-.898 2.189.477 4.182 1.263 5.81 2.806a53.073 53.073 0 003.789 3.284c.309.253.786.309 1.207.421 0 .056-.028.112-.056.196l.169.253v-.421h-.113c.253-.842.365-1.768.898-2.357a19.557 19.557 0 013.874-3.228c1.6-.982 2.302-2.217 2.554-3.985.253-1.908 1.572-3.396 2.891-4.799 1.011-1.067 2.246-1.796 3.874-1.628.477.056 1.179.253 1.46 0 1.964-1.684 4.491-1.684 6.877-2.245 2.161-.533 4.013-1.712 5.613-3.228 1.235-1.206 2.807-1.908 4.548-2.189.645-.112 1.431.141 2.077.421.842.365 1.263 1.881.729 2.414-1.01 1.01-2.105 1.936-3.115 2.919-.646.645-.253 1.291.112 1.88.505.842 1.039 1.066 1.74.814 1.151-.449 2.246-1.01 3.425-1.319 1.6-.449 2.526-1.319 2.61-2.947 0-.449.253-.898.449-1.319.337-.758 1.628-1.431 2.386-1.347.814.084 1.348.561 1.572 1.263.533 1.796 1.74 2.694 3.677 2.947.983.112 1.937.308 2.891.505 1.6.337 2.583 1.291 2.92 2.806.056.225.056.477.14.702.421 1.01 1.123 1.515 2.189 1.459 2.218-.112 4.435-.196 6.625-.421 2.021-.196 3.845-.112 5.585 1.095 2.919 1.992 6.54.505 8.758-1.347.477-.393.477-1.291.786-1.909.253-.505.898-.701 1.263-.308.898.926 1.881 1.375 3.228 1.291 2.189-.113 4.435-.421 6.596.28.225.056.505.197.618.365.224.449.028.814-.477 1.038-.225.113-.45.169-.674.253-.646.225-1.628.281-1.404 1.151.141.533.899 1.038 1.488 1.347 1.74.87 3.537 1.656 5.333 2.385 2.021.814 3.2 2.077 3.116 4.266-.028.814.589 1.179 1.375 1.263 1.207.14 2.498.056 3.649.421 1.376.449 2.751 1.095 3.874 1.965 1.712 1.319 3.172 2.89 4.744 4.378.898.842 1.431 1.88 1.796 3.002.14.393.505.983.842 1.039 3.06.533 5.081 2.778 7.579 4.154.617.336 1.375.589 2.049.617 2.694.112 5.417.168 8.112.084 2.751-.084 5.417.112 7.887 1.347.646.337 1.347.646 2.049.758 5.979 1.038 9.881 4.995 13.895 8.784 1.066 1.011 1.74 2.245 1.992 3.677.506 2.862 1.965 5.304 3.986 7.381 1.039 1.066 1.6 2.357 2.498 3.424.871 1.01.927 2.189.674 3.311-.393 1.768-.982 3.508-1.488 5.276-2.105.505-4.07 1.291-5.67 2.779 1.123.084 2.218.196 2.779 1.291 1.656-1.46 3.649-1.572 5.726-1.291 0 .028 0 .084-.028.14l.393.112-.224-.224h-.113c.085-.393.169-.814.281-1.179 1.853.533 3.733 1.01 5.502 1.684 1.15.421 2.386 1.515 1.908 3.368-.112.449-.224.926-.336 1.347-.141.561 0 .926.477.926.196 0 .477-.168.561-.365 1.067-1.908 2.779-2.329 4.968-2.217 2.527.14 4.828.814 7.13 1.74 2.919 1.151 5.502 3.031 8.87 3.256.758.056 1.656 1.038 2.133 1.768.618.982.87 2.189 1.291 3.255.309.786 1.011 1.151 1.684.842.899-.393 1.741-.926 2.639-1.235.674-.224 1.488-.365 2.133-.196 5.726 1.403 11.509 2.441 17.487 2.245a9.524 9.524 0 014.94 1.179c3.397 1.852 7.102 3.255 9.348 6.623 1.375 2.021 4.07 2.554 5.95 4.069 1.544 1.235 3.256 1.909 5.418 1.74 1.15-.084 2.413.421 3.536.87.618.253 1.319.814 1.544 1.404a151.864 151.864 0 013.509 9.205c.645 1.88-.113 7.268-1.039 9.626-.982 2.442-2.47 4.574-4.323 6.483-1.852 1.88-3.733 3.761-5.782 5.416-1.74 1.432-2.975 3.087-3.901 5.024-.309.645-.758 1.207-.983 1.88-1.123 3.256-3.059 5.81-6.484 7.241-1.235.533-1.628 1.768-1.628 2.947 0 2.554.197 5.107.197 7.661 0 3.733 0 7.494-.169 11.226-.14 3.031-.449 6.034-2.442 8.672-1.01 1.375-.982 3.115-.758 4.743.309 2.189-.336 4.07-1.628 5.922-1.628 2.329-2.891 4.855-4.35 7.297-.646 1.066-.814 2.189-.506 3.367.281 1.039-.196 1.881-1.01 2.442-1.179.842-2.835 1.235-3.677 2.273-1.881 2.33-4.379 2.835-7.13 2.891-1.459 0-2.947-.309-4.379-.14-1.459.196-2.863.533-4.378.196-.337-.084-1.123.253-1.179.533-.365 1.516-1.712 2.217-2.751 3.2-1.235 1.178-2.667 1.768-4.351 2.301-3.003.982-5.782 2.526-8.084 4.743-1.375 1.347-2.835 2.61-4.322 3.817-3.593 2.862-4.379 6.567-3.677 10.748.084.449.112.955.336 1.347 1.881 3.368.702 6.54-1.291 9.234-3.003 4.069-5.164 8.475-7.214 12.966-.449 1.01-1.122 2.048-2.498 2.189-.168-.618-.28-1.263-.505-1.881-.14-.364-.505-.898-.786-.898-.393 0-.926.309-1.179.646-1.066 1.515-1.656 3.199-2.077 4.967-.617.169-1.263.253-1.768.533-1.516.842-1.741 1.712-1.151 3.649h.112c0 .056-.028.14-.084.224l-.14-.168c-.618 2.273-1.207 4.518-1.825 6.764-.561 2.076-1.459 3.957-3.284 5.332-1.628 1.207-2.077 3.143-3.06 4.743-1.992 3.143-4.912 4.378-8.617 4.35-1.487 0-2.947-.028-4.407-.14-.729-.028-1.543-.085-2.133-.393-3.2-1.825-6.793-1.797-10.301-2.189-.056-.085-.141-.113-.225-.197l-.224-.224v-.113c-.057-.084-.225-.14-.337-.196.112.112.224.224.337.309 0 .14 0 .252.056.392.14 0 .252 0 .393.029 1.375 1.543 3.452 2.217 4.996 3.592 1.375 1.207 2.246 2.469 1.488 4.294-.281.645-.393 1.347-.421 2.048-.028.702.196 1.404.898 1.797.617.336 1.347.589 1.965.926 1.01.561 1.684 1.908 1.431 2.975-.224.898-.449 1.824-.814 2.666-.645 1.515-1.74 2.919-2.049 4.462-.561 2.722-2.526 3.901-4.8 4.855-1.347.561-2.778.954-4.154 1.46-5.165 1.964-10.47 2.413-15.943 1.319-1.404-.281-2.161.617-1.853 2.105.085.449.253.898.393 1.347.084.224.253.477.225.673-.225 1.6-.646 3.199-.674 4.799 0 1.375.505 2.751.533 4.126.057 1.768-2.301 3.929-4.35 4.209-1.993.253-3.902.113-5.726-.87-1.264-.673-2.667-1.122-4.042-1.599-.927-.309-2.246.673-2.021 1.431.14.449.336.87.449 1.291.337 1.375.645 2.722.982 4.097.562 2.246 2.779 3.228 5.109 2.274.449-.197.842-.477 1.291-.674.674-.253 1.712.112 1.881.702.365 1.122.729 2.217.954 3.368.281 1.403-.87 2.553-2.61 2.666-.478 0-.955-.141-1.404-.197a.744.744 0 01.197-.224h-.393c-.309-.477-.618-.955-1.011-1.375-.056-.085-.477-.001-.646.112-.477.308-.533.842-.056 1.01.534.197 1.123.225 1.713.253.056.084.112.168.196.252h.028c-.814 1.039-1.572 2.133-2.554 3.031-1.572 1.431-2.021 3.115-1.825 5.08.085.674.141 1.431.421 2.049 1.039 2.217-.729 3.985-.982 6.033-.028.337-.589.702-1.011.899-1.543.701-3.227 1.178-4.687 2.02-1.011.562-1.881 1.46-2.61 2.358-1.909 2.441-1.657 4.827.673 6.819 1.095.926 2.302 1.74 3.425 2.638.982.786 2.077 1.263 3.34 1.319 2.498.057 3.284 1.684 3.733 3.621.168.673.225 1.375.309 2.077.168 1.206-.113 2.329-.898 3.283-1.348 1.656-2.695 3.312-4.239 4.827-1.488 1.432-2.189 3.059-2.021 5.024.197 2.273-.674 4.041-2.582 5.416-.758.562-1.432 1.263-2.049 1.937-1.376 1.515-1.797 3.255-1.151 5.22.589 1.768.926 3.648 1.768 5.276.842 1.628 2.246 3.003 3.312 4.547.197.28.169.926-.028 1.206-.224.309-.786.449-1.207.562-.196.056-.477-.028-.701-.085-1.853-.533-2.47.618-3.06 1.825h-.337c0 .112-.056.224-.084.336-2.47.646-3.873 2.218-4.21 4.631-.141.898-.056 1.824 0 2.727 0 .16.28.39.477.47.084.03.365-.19.449-.33.112-.2.14-.43.14-.65.225-2.049.169-4.153 2.639-5.276.365-.168.421-.954.533-1.6.112-.028.197-.084.309-.112.028-.084.084-.14.112-.224.87-.029 1.712-.113 2.583-.057 3.228.141 4.884 1.404 5.501 4.435.253 1.178.618 2.048 1.404 3.004 1.347 1.68 3.312 2.69 4.715 4.29.281.34.758.62 1.179.79 3.088 1.35 6.203 2.69 9.319 3.93.842.33 1.993-.14 2.695.73.112.17.196.56.112.61-1.516 1.1-2.975 2.31-4.631 3.15-.702.33-1.853-.11-2.807-.28-.59-.09-1.095 0-1.179.53-.169 1.01-.646 1.66-1.741 1.96-1.347.34-2.666.73-3.985 1.1v-.11c-.085-.06-.169-.12-.253-.14-.056-.28-.14-.42-.309-.2.112.06.197.11.309.2 0 .11.056.17.056.33.084 0 .14-.02.225-.05.477 2.07.449 2.1-1.095 2.02-.954-.06-1.909-.2-2.863-.17-.702 0-1.46.34-2.105.22a7.337 7.337 0 01-2.667-.95c-.898-.56-.73-1.57-.645-2.47.028-.45.028-.93-.113-1.35-.196-.47-.701-.59-1.235-.33-1.347.56-1.908 1.79-2.779 2.83-.982-.06-2.049-.2-2.442-1.09-.701-1.6-1.74-2.67-3.536-3.06-.59-.11-.814-.51-.702-1.07.449-1.8-.702-2.44-2.246-2.78-.421-.08-.842-.25-1.263-.39 0-.37-.056-.79.084-1.09.225-.54.169-.85-.392-.85-.169 0-.422.2-.506.37-.28.5-.533 1.04-.786 1.57-.926 0-1.965.25-2.807 0-1.347-.42-2.919-.93-3.817-1.88-2.47-2.61-5.502-4.43-8.477-6.4-.309-.196-.337-.785-.393-1.234 0-.141.337-.449.505-.421.478 0 1.011.084 1.376.308 1.824 1.123 3.817 1.407 5.922 1.207.057.06.141.08.197.14.14 0 .196.11.309.17.14.45.449.76.926.9.056.11.14.19.168.31l.337.16-.168-.33c-.141 0-.225-.11-.337-.14a1.554 1.554 0 00-.926-.9c-.028-.11-.141-.2-.141-.338-.14.028-.252 0-.365.028-1.487-1.038-2.947-2.133-4.491-3.115-1.151-.73-1.768-1.544-1.263-2.891-.982-1.515-1.572-3.396-3.986-3.508-.701 0-1.403-.337-2.077-.561-.505-.168-.758-.646-.505-1.095.225-.364.646-.701 1.067-.813.421-.113.954.084 1.431.084 1.123 0 1.656-.758 2.274-1.488.786-.954.421-1.684-.309-2.441-.674-.702-1.039-1.516-1.039-2.526 0-.926-.449-1.712-1.122-2.358a.995.995 0 01.112-.252l-.449-.225.252.393.085.084c-.758 1.628-.646 3.368-.814 5.08-.113 1.179-.674 1.74-1.769 1.712-1.122 0-1.993-.73-1.684-1.656.73-2.301-.14-4.518-.112-6.791l-.225.196v-.252c.056 0 .113.028.169.028.926-1.011.898-1.235 0-2.695h-.113v-.14c-1.066-.674-2.133-1.375-3.256-2.021-1.768-1.01-1.768-.982-1.431-2.974.112-.646.084-1.291.14-1.937a.619.619 0 01.141.112l.168-.28-.309.14c-.337-.225-.673-.421-.954-.73-.702-.757-.393-1.684-.505-2.554-.056-.589-.87-1.066-1.123-1.683-.365-.842-.562-1.74-.73-2.61-.168-.983.309-1.684 1.067-2.358 1.094-.954 2.386-1.179 3.733-1.403v.14c.084.028.168.056.281.084.112.309.224.421.308.141 0 0-.14-.085-.308-.141-.028-.084-.057-.112-.085-.252-.056 0-.14 0-.196.028-.337-1.824.112-3.564.533-5.332.197-.814-.505-2.049-1.319-2.246-1.403-.336-2.807-.673-4.238-.729-.59-.028-1.179.757-1.825.982-.337.112-.954-.112-1.235-.365-.309-.281-.589-.898-.449-1.207 1.01-2.048 2.358-3.873 2.919-6.202.393-1.768 2.133-2.919 4.323-2.863.309.814.589 1.628.926 2.442.084.169.337.309.561.393.534.253.871.056 1.151-.505 1.319-2.61 1.909-5.22.169-7.914-.534-.814-.421-1.74-.281-2.667.477-2.918.926-5.837.758-8.84-.169-2.947.449-5.95.617-8.896.028-.618-.421-1.291-.589-1.965-.281-1.094-.449-1.319-1.347-.898-1.123.561-2.19.954-3.453.617.842 1.123 1.628 2.33 1.404 3.761a26.852 26.852 0 00-.253 4.743c.056 1.179-.73 2.105-1.656 2.891-.618.505-2.33.112-2.442-.618-.421-2.245-.87-4.49-1.179-6.707-.084-.646.224-1.347.393-1.993.561-1.964 1.01-2.217 3.677-2.133-.618-.729-1.235-1.431-1.825-2.217-1.066-1.347-1.656-2.834-1.656-4.546 0-1.404.113-2.807-.084-4.182-.196-1.459 0-2.722.786-4.013 1.291-2.189 1.404-4.491-.056-6.652-1.6-2.413-1.74-5.332-3.368-7.745-.955-1.432-.927-3.116.673-4.406.786-.646 1.067-1.516 1.263-2.442 1.264-5.248 2.555-10.468 3.846-15.688.393-1.6.786-3.172 1.347-4.715.449-1.151.505-2.217.169-3.396a14.262 14.262 0 01-.534-3.452c-.056-1.375.506-2.947 0-4.125-1.122-2.695-.365-5.585-1.543-8.251-.899-2.021-.815-4.042.056-6.119.814-1.992.926-4.125.112-6.174-.561-1.403-.421-2.694-.028-4.097.617-2.273 1.095-4.547 1.516-6.848.336-1.852.701-3.705.617-5.557-.281-6.96.674-13.976-1.067-20.88-.168-.617.001-1.375.197-2.049 1.263-4.574 1.684-9.149.112-13.779-.28-.87-.533-1.937-.28-2.751.729-2.357.336-4.602-.225-6.904-.281-1.122-.253-2.329-.421-3.48-.14-.926-.477-1.768-1.291-2.441-2.976-2.442-6.035-4.771-8.786-7.437-2.105-2.021-4.884-3.116-7.579-4.294-1.122-.477-2.498-.59-3.424-1.263-4.828-3.536-10.47-6.146-14.624-10.525-1.291-1.375-2.582-2.806-2.105-4.967.14-.589-.253-1.375-.59-1.964-2.245-3.593-4.435-7.269-6.905-10.721-2.358-3.284-4.547-6.595-5.95-10.384-1.039-2.863-3.032-5.332-3.874-8.307-.253-.842-.954-1.656-1.684-2.245a9.838 9.838 0 01-2.947-3.929c-.786-1.825-2.33-2.947-4.127-3.845-1.515-.758-3.059-1.516-4.519-2.386-1.122-.673-1.712-1.571-1.179-2.947.253-.617.337-1.375.253-2.02a19.882 19.882 0 00-.814-3.396c-.898-2.638.365-4.547 2.33-6.146 1.291-1.067 2.835-1.852 4.21-2.835 1.039-.757 1.432-1.88 1.46-3.087 0-.365-.225-.73-.365-1.094-.281.364-.533.757-.842 1.094-.141.14-.449.393-.562.337-1.824-.786-3.705-1.908-4.013-3.705-.422-2.217 0-4.602.168-6.932 0-.393.505-.785.758-1.178 1.609-2.545 2.863-5.763 3.761-9.655.112-.421.365-.954.73-1.178 1.235-.73 2.554-1.375 3.873-2.021 1.376-.674 2.302-1.656 2.695-3.143.702-2.638 2.33-4.547 5.024-5.669 2.611-1.095 4.042-3.34 5.502-5.501.393-.589.646-1.319.112-1.964-1.151-1.376-1.263-2.779-1.066-4.547.365-2.975.196-6.034.168-9.037 0-.645-.056-1.543-.505-1.936-1.684-1.516-1.937-3.761-3.34-5.417-1.123-1.291-1.656-2.75-1.797-4.462-.196-2.245-1.768-3.817-3.873-4.771-.562-.253-1.713-.309-2.021 0-1.432 1.6-2.555 3.396-4.435 4.603-.646.421-.253 1.291 0 1.936.421 1.01.168 1.824-.702 2.442-1.993 1.459-2.891 1.627-4.519.28-1.46-1.234-3.284-1.88-4.632-3.367-1.459-1.6-3.592-2.386-6.006-1.572-.674.225-1.488.337-2.19.225-2.245-.365-4.379-.955-4.968-3.48-.505-2.274-2.442-3.424-4.182-4.687-.59-.449-1.32-.421-2.077-.421-.955 0-1.881-.365-2.807-.646-2.19-.589-3.481-1.852-2.695-4.125.533-1.544-.112-2.835-.954-3.901-1.46-1.881-3.2-3.564-4.8-5.361-1.404-1.599-3.116-3.003-3.93-5.051-.281-.702-.87-1.123-1.684-1.067-3.817.253-7.242-1.178-10.751-2.217-3.059-.898-6.034-1.936-9.29-2.189a8.24 8.24 0 01-5.727-2.891c-3.284-3.872-7.831-6.37-11.564-9.794-1.656-1.488-3.846-1.74-6.231-.926-8.14 2.862-8.169 2.862-16.309.505-2.329-.674-4.687-1.347-6.848-2.554-1.881-1.066-3.93-2.049-6.063-2.554-4.183-1.038-7.663-3.087-10.835-5.753-.702-.589-1.684-.898-2.611-1.179-.926-.308-1.936-.365-2.891-.589-2.217-.505-4.126-1.375-5.529-3.228-1.292-1.74-3.032-3.031-5.249-3.704-2.274-.674-3.621-2.245-4.744-4.154-1.263-2.161-1.965-4.237-.225-6.511.562-.757.927-1.656 1.207-2.554.197-.645.253-1.403.085-2.048-2.274-8.392-4.351-12.237-11.93-19.702-.645-.645-1.516-1.459-1.6-2.217-.14-1.908-1.151-2.89-2.835-3.704-1.515-.73-2.891-1.768-4.294-2.723-1.067-.729-1.179-2.076-.506-3.143.253-.393.506-.786.786-1.179.506-.701.309-1.431-.196-1.908-1.039-1.01-2.189-1.88-3.312-2.75-1.684-1.375-3.312-2.751-3.846-4.968-.196-.814-1.122-1.487-1.712-2.217-3.116-3.648-5.53-7.69-7.326-12.068-1.179-2.862-1.572-5.893-2.105-8.868-.309-1.628-1.207-2.47-2.583-3.115a99.357 99.357 0 00-3.985-1.74c-.59-.253-.927 0-1.095.589-1.039 3.48-.393 6.96.056 10.412.084.646.421 1.375.898 1.908 2.386 2.723 3.705 6.034 5.698 8.981 1.825 2.694 3.284 5.753 4.351 8.812.758 2.133 3.032 3.172 3.481 5.305.393 1.824.561 3.704.954 5.5.253 1.123.814 2.217 1.179 3.312.449 1.347 3.368 6.202 4.351 7.269 1.15 1.235 2.077 2.582 2.554 4.209.281.983-.197 2.246-1.263 3.059-.87.646-2.246.618-2.639-.14-2.358-4.518-6.708-7.381-10.273-10.861-1.151-1.122-1.656-2.189-1.291-3.732.28-1.123.337-2.302.365-3.48 0-1.179-.365-2.302-1.348-3.144-2.357-2.02-4.491-4.238-7.494-5.557-2.274-.982-3.958-2.75-5.137-4.883-.28-.533.141-1.487.786-1.684.225-.056.477-.14.73-.112 1.039.056 1.965-.112 2.498-1.066.758-1.291 1.039-2.61.225-3.986-1.46-2.441-2.863-4.911-5.221-6.735-1.207-.926-2.105-2.105-2.274-3.508-.561-4.462-2.751-8.448-3.986-12.685-.729-2.47-1.571-4.912-1.684-7.522-.112-3.339-1.852-5.641-4.828-7.353-3.564-2.048-6.736-4.715-11.087-5.332-1.291-.196-1.853-1.01-1.684-2.638.14-1.487-.197-2.75-.842-4.041a271.627 271.627 0 01-3.649-7.634c-.281-.617-.618-1.459-.421-2.021.926-2.245-.281-4.041-.983-6.005-.224-.618-.084-1.376.056-2.049.169-.674.562-1.291.814-1.937.422-1.066.393-1.038-.954-1.852-.589-.365-1.319-.758-1.628-1.319a75.596 75.596 0 01-2.666-5.725c-.253-.618-.337-1.347-.365-2.049-.057-1.151-.225-2.385.084-3.48.73-2.638.365-5.052-.898-7.465-.59-1.123-.421-2.358.308-3.34 2.386-3.227 2.976-6.848 2.751-10.664-.028-.702-.112-1.404-.112-2.105-.056-3.312.505-6.483 2.582-9.318 2.274-3.087 3.649-6.623 4.547-10.271.983-3.901 2.807-7.466 4.295-11.17 1.404-3.564 2.274-7.1 2.021-10.945-.196-3.031-.084-6.062-.056-9.093.028-2.077 1.235-3.424 3.228-4.182-.056-.056-.112-.084-.14-.14l.224.112c-.561-.449-1.263-.842-1.656-1.403-2.779-4.098-6.596-7.465-9.431-11.563-.927-1.347-2.218-2.498-3.256-3.789-.421-.533-.814-1.262-.758-1.88.112-1.459-.365-2.778-.618-4.125-.084-.506.899-1.319 1.488-1.235.702.112 1.516.168 2.105.505 1.039.617 1.937 1.431 2.891 2.161 1.544 1.179 3.116 2.245 5.109 2.722 2.61.618 4.238 2.245 4.856 4.771.281 1.123.758 2.217 1.066 3.34.337 1.235 1.376 1.74 2.443 2.189 1.066 2.498 1.656 5.08 1.403 7.83-.112 1.263-.898 2.105-2.302 2.077-.701 0-1.375-.169-2.077-.253l.169.169-.253-.169c1.572 1.684 3.874 1.852 5.923 2.47.505.14 1.291-.421 1.88-.786.393-.253.73-.645.926-1.066.59-1.263 1.292-2.442.422-3.958-.814-1.403-1.376-2.974-1.881-4.518-.365-1.066-1.179-1.403-2.133-1.628-.646-.14-1.32-.224-1.993-.336-.113-.478-.197-.927-.309-1.404h.028s.084.113.14.169l.225-.225-.365.056c-.393-.477-.842-.926-1.039-1.487-.505-1.375-.196-2.75.337-4.098.281-.701-.196-1.375-.842-1.74-1.066-.589-2.161-1.15-3.284-1.571-1.431-.505-2.582-1.263-3.48-2.442-.871-1.15-2.134-1.908-3.509-2.498-2.667-5.22-.169-14.144-.646-14.649-1.207-1.235-2.414-2.442-3.621-3.677.056-.084.113-.14.141-.224.365-.028.505-.141.224-.337-.084.112-.14.224-.224.337-.113 0-.141.056-.337.056l.168.168c-.28-.337-.842-.673-.842-1.038-.056-1.684.449-3.2 1.853-4.35.73-.59 1.487-1.179 2.133-1.852.225-.253.14-.786.112-1.179 0-.112-.393-.253-.617-.253-1.769-.056-3.34.702-4.94 1.207-1.263.393-2.695-.702-3.088-2.329-.14-.562.337-.702.842-.927 2.105-.898 2.189-1.627.533-3.367-.617-.646-.533-1.095.393-1.516.618-.308 1.685-.224 1.713-1.094.028-2.021 1.066-3.508 2.385-4.912.59-.617.253-1.234-.645-1.431-.702-.168-1.488-.14-2.105-.421-1.6-.702 1.796-16.839-5.614-1.01-.169.337-.73.645-1.151.673-.393 0-.982-.252-1.151-.561-.954-1.6-.702-3.592-1.88-5.192-.337-.421-.057-1.319.084-1.964.168-.899.365-1.825.701-2.667.478-1.234-.056-2.133-.757-3.143-.281-.421.056-1.207.168-1.852.084 0 .14 0 .225.028.084-.196.168-.365.224-.561.169-.169.365-.309.505-.477.057-.085-.084-.337-.112-.478-.14.309-.253.646-.393.955-.14.14-.281.28-.421.393 0 .056 0 .084-.028.14-.393-.028-.814-.056-1.179-.168-1.038-.309-1.796-1.263-1.431-1.965-.141-2.498-.899-3.62-1.544-1.487-.169.252-.786.308-1.207.364-.112 0-.365-.336-.393-.533-.309-2.329-.141-4.602.702-6.848.533-1.375 0-2.582-.899-3.676-.056.056-.084.14-.14.196v-.393l.168.169c-.252-1.375-.533-2.75-.786-4.126-.28-1.459.225-2.75.814-4.041.59-1.263 2.134-1.936 3.678-1.544.449.113.87.393 1.291.646.533.309.982.281 1.263-.225.084-.14-.028-.449-.14-.589-.899-1.094-1.965-2.021-2.05-3.592-.056-.87-.645-1.712-1.01-2.582-.281-.646-.589-.786-.898-.309-.113.169-.113.449-.056.674.168.673.449 1.319.617 1.992.225.926-.589 1.796-1.6 1.909-1.347.168-2.442-.337-3.312-1.179-1.544-1.544-2.526-3.424-2.891-5.529-.169-.926-.421-1.852-.365-2.75.056-1.431-.898-1.88-1.993-2.498-.786-.449-1.263-1.375-1.937-2.049-1.487-1.403-1.6-2.75-.028-4.209.365-.337.056-.87-.477-1.067-.196-.084-.477-.168-.674-.112-2.47.646-4.294-.421-5.894-2.049-.477-.477-.842-1.01-1.263-1.543 0 0 .028 0 .056.028l.168-.281-.308.169s.056.056.084.112c-.618-.337-1.319-.618-1.853-1.067-1.74-1.487-3.705-2.217-6.063-2.161-.982 0-1.965-.14-2.919-.308-1.039-.141-1.796-.758-2.302-1.6-.365-.617-.449-1.347-.814-1.965-.814-1.459-1.824-2.834-3.564-3.367-3.004-.898-4.099-3.144-4.688-5.754-.14-.645-.056-1.319-.056-1.964h.112l.225-.365-.309.253v.112c-1.151.056-2.358.028-3.481.252-1.88.365-2.526-.617-3.087-2.048-.281-.758-1.039-.702-1.741-.112-1.235 1.01-1.684 2.217-1.094 3.648.337.814.814 1.712 1.544 2.217 1.263.87.87 1.796.533 2.806h-1.488c-.758-.645-1.6-.954-2.33-.056-.757.926-1.515 1.825-2.666 2.33-.674.28-1.432.842-2.021.729-2.667-.533-4.772.618-6.961 1.712-.842.421-1.797.73-2.751.983-2.358.645-4.631 1.459-6.793 2.61-1.01.533-2.33.729-3.537.785-.533 0-1.206-.673-1.6-1.206-.42-.534-.112-1.6.422-1.881 1.29-.673 2.582-1.291 3.901-1.936.646-.309.618-.589.056-1.067-1.122-.982-.982-2.161-.084-3.087 2.47-2.582 5.165-4.995 6.512-8.363.225-.561.927-1.038 1.516-1.403 2.667-1.628 5.417-1.965 8.308-.449.197.112.955-.337 1.011-.618.168-.673.14-1.375.084-2.076-.112-1.516-1.768-2.667-3.087-2.049-4.127 1.908-8.674 3.311-11.144 7.465-.505.842-1.46 1.151-2.498 1.263-1.319.112-2.526.814-2.807 1.936-.505 2.077-2.19 2.975-3.677 4.154-1.039.814-2.05 1.066-3.368.814-2.106-.421-3.846.309-5.305 1.768-.73.73-.927 1.515-.393 2.498.336.617.814 1.178 1.122 1.796.702 1.375.225 2.778-1.15 3.592-.843.477-1.74.842-2.583 1.347-1.038.618-2.273 1.151-2.947 2.049-1.656 2.189-3.65 3.396-6.512 4.069-3.79.87-7.186 2.919-10.498 4.912-.59.336-1.235.87-1.488 1.487-.701 1.628-1.937 2.554-3.649 3.199-1.572.59-2.975 1.6-4.687 1.993-.477.112-.758.926-1.095 1.515-.702-.084-1.544-.42-2.077-.168-1.74.786-3.368 1.824-5.053 2.75-.982 2.554-3.62 2.891-5.81 3.817-1.32.562-2.779.926-3.873 1.937-.786.729-1.685.308-2.639.224-2.161-.224-4.21.814-6.372 1.123-.308.056-.505.729-.758 1.15-.785 1.319-.785 1.319-1.235.618-.617-.926-1.207-1.852-1.824-2.779l.028-.056.28-.252-.42.14s.084.112.112.168c-1.432 2.723-3.79 4.182-6.961 4.294-2.33.085-4.295.59-5.923 2.33-.561.617-1.74.814-2.694 1.01-1.432.281-2.948-.168-4.38.421-.645.281-1.43.365-2.132.337-.393 0-.955-.337-1.151-.674-.225-.337-.337-1.01-.113-1.263 1.348-1.655 2.667-3.367 5.193-3.508 1.235-.084 2.442-.337 3.677-.393 3.369-.14 6.147-1.431 8.646-3.508 1.487-1.207 3.115-2.301 4.771-3.283 1.937-1.151 4.07-1.712 6.344-.954 1.038.336 1.937.252 2.582-.646 1.123-1.6 2.583-2.722 4.435-3.592 2.863-1.347 5.53-3.087 8.477-4.238 1.88-.73 3.312-1.993 5.025-2.806 5.333-2.554 8.617-6.876 11.255-11.647 1.18-2.133 2.414-3.986 4.491-5.389.534-.365.534-.814.113-1.066a1.132 1.132 0 00-.674-.141c-.73.113-1.431.337-2.161.365-.702.028-1.46 0-2.105-.252-2.246-.814-2.246-.898-3.425.505-.14.168-.253.393-.421.589-.561.59-1.46.505-1.628-.252-.617-2.835-3.284-3.929-5.137-5.669-.056-.057-.533.112-.645.28-1.376 2.526-3.509 1.965-5.698 1.291-.758-.224-.898-.786-.393-1.571.393-.59.87-1.123 1.179-1.712.42-.842.701-1.684.168-2.638-.617-1.151-.59-2.302.477-3.172 1.348-1.122 2.274-2.357 2.302-4.181 0-1.095.309-2.189.505-3.256h.197c0-.196 0-.421.028-.617.224-.477.449-.954.617-1.46.225-.645 0-.926-.449-.645-.14.084-.084.421-.084.645l-.084 1.432c-.056.14-.113.28-.197.421 0 .056 0 .112-.028.168-1.937-.224-3.761.253-5.642.645-.898.169-1.937-.168-2.835-.42-.954-.281-1.768-.899-2.049-1.853-.477-1.571-.786-3.171-1.291-4.743-.842-2.638-.702-5.023 1.544-7.1.926-.87 1.066-2.049.702-3.256-.337-1.122-.59-2.245-.899-3.367-.814-3.031 0-5.473 2.751-7.381 3.93-2.751 6.877-6.624 11.256-8.897.393-.196.73-.673.842-1.094.926-3.284 3.817-4.715 6.568-6.259 1.544-.87 2.947-.365 4.267 1.375.28.365.477.87.814 1.151.337.281.898.533 1.319.477 2.835-.421 5.08-1.684 6.147-4.378.225-.59.084-1.6.87-1.572.505 0 .954.955 1.488 1.404.73.59 1.544 1.15 2.358 1.627.393.225.926.421 1.375.421 2.526.029 6.231-2.413 6.624-4.686.365-2.133 1.264-3.986 2.302-5.866.309-.561.253-1.375.112-2.02-.393-1.6.646-1.993 1.937-2.33.45-.112.87-.42 1.235-.702.14-.112.14-.449.056-.645-.056-.197-.252-.449-.42-.449-.703-.112-1.517-.393-2.134-.168-2.526.898-5.053 1.88-7.466 3.003-1.544.73-2.864.56-4.099-.393-2.273-1.74-4.827-2.05-7.634-1.6-3.397.561-5.53-1.431-7.242-3.817-.477-.674-.646-1.852-.393-2.666.645-2.217 2.02-4.21 2.47-6.511.056-.253.758-.421 1.179-.617 1.179-.478 1.46-.842 1.038-1.348-1.15-1.487-2.357-2.974-3.48-4.49-.73-.982-.337-2.526.842-2.947 3.228-1.094 5.894-3.395 9.403-3.9 1.207-.17 2.414-.59 3.593-.478 1.544.14 2.723.225 3.873-1.15.674-.814 2.106-1.291 3.257-1.46 1.908-.308 3.901-.337 5.866-.308 1.656.028 3.228 1.964 2.19 3.536-.506.785-1.123 1.515-1.657 2.3-.59.843-.337 1.769.674 2.33 1.488.814 2.975 1.656 4.52 2.358 1.374.645 2.862.785 4.21-.14 1.234-.87 2.554-1.292 4.069-1.46 1.179-.112 1.039-1.179 1.32-1.936h.309v-.14c1.88.785 3.733 1.599 5.782 1.74.337 0 .842-.338 1.038-.646.393-.533 0-1.572-.533-1.768-1.993-.758-4.014-1.039-6.119-.562v-.084l-.421-.196.281.309h.112c-.056.42-.112.813-.197 1.234a.992.992 0 01-.252-.112l-.084.253c-.618 0-1.264 0-1.853-.14-.421-.113-1.039-.562-1.011-.843.057-1.852.197-3.704.45-5.556.112-.786.898-1.01 1.656-1.123.224 0 .645-.168.617-.224-.084-.422-.084-1.01-.365-1.18-1.207-.757-2.554-1.318-3.761-2.076-1.038-.674-1.656-2.245-1.15-3.087 2.553-4.238 2.076-8.476.42-12.826-.59-1.543-.842-3.171-1.487-4.686-.955-2.274-.45-3.93 1.571-5.501 1.292-1.01 2.19-2.526 3.313-3.76 1.712-1.881 2.919-2.162 5.192-1.348.225.084.478.14.674.253 5.614 3.003 10.442.617 15.242-1.965.617-.337 1.179-.842 1.712-1.347 3.705-3.508 8.393-5.697 12.715-8.391 2.218-1.404 4.856-2.217 7.719-1.46 1.993.534 3.902-.28 5.811-.59.617-.111 1.207-.729 1.656-1.262.449-.533.589-1.319 1.094-1.796 1.628-1.572 3.537-2.554 5.979-1.852 1.404.42 2.835.814 4.239 1.206 2.498.674 4.884.646 7.017-.982 1.375-1.038 3.031-1.571 4.659-2.077 1.011-.336 1.853-.168 2.667.562 1.459 1.29 2.386 2.862 2.947 4.658-.056 0-.056-.056-.112-.056-.112.028-.253.084-.393.113-.814 0-1.488.28-2.133.673-.309.112-.646.197-.983.309 0 .056 0 .112-.028.196-.898.084-1.768.14-2.666.253-.197 0-.562.309-.534.393.141.393.281.954.618 1.15.982.618 1.824.365 2.33-.645.168-.337.196-.758.28-1.15h.225c.252-.17.533-.31.786-.478.701-.224 1.403-.449 2.133-.673H181c0-.028 0-.057-.028-.085 1.376.534 1.263 1.6 1.095 2.779-.225 1.543.056 1.852 1.179 2.049.73.14 1.487.14 2.189.336 1.151.337 2.358.674 3.425 1.207.589.309 1.122.926 1.403 1.516.309.645 0 1.319-.505 1.908-.281.337-.646.982-.505 1.207 1.179 1.796 1.066 3.985 2.217 5.753.421.646 1.067.954 1.853.814 1.207-.225 2.386-.59 3.593-.786 1.936-.337 3.564.393 4.322 1.993a11.729 11.729 0 002.919 3.985c1.067.954 2.19 2.077 3.509 2.498 2.919.954 5.052 2.834 7.354 4.602 1.572 1.235 3.284 2.02 5.389 1.965.983-.028 1.965 0 2.948.112 1.038.084 1.824.617 2.442 1.403.28.365.645.758.786 1.179 1.263 3.564 4.266 5.613 7.354 7.55 2.021 1.262 4.21 2.273 5.866 4.013v-.056h.197c.196-.337.393-.73.701-.87.281-.14.786.112 1.151.196 0 0 0 .337-.084.42l.028.141z" fill="#F7F7F7"/></svg>