<svg width="707" height="595" fill="none" xmlns="http://www.w3.org/2000/svg"><path fill-rule="evenodd" clip-rule="evenodd" d="M623.602 203.108c-3.069-4.898-5.719-10.025-9.531-14.485-1.201-1.41-2.039-2.859-1.944-4.745.038-.763-.133-1.639-.534-2.287-1.315-2.173-1.944-4.746-4.231-6.347-.858-.591-.953-1.639-1.449-2.459-.514-.857-1.41-1.334-2.459-1.429-.247-.019-.552.286-.781.496-.095.076-.114.324-.076.457.133.286.305.553.514.781 1.678 1.868 1.64 1.887.153 4.289-.153.247-.286.628-.229.895.172.61.4 1.239.763 1.754 1.067 1.505 1.372 3.221 1.715 4.917.057.248-.191.572-.362.819-.229.305-.877-.076-1.01-.686-.191-.934-.362-1.868-1.106-2.592-.476-.476-.82-1.048-.762-1.696.114-1.467-.687-2.401-1.868-3.126-1.964-1.2-4.098-2.134-5.928-3.525-.362-.267-.953-.363-1.43-.363-.838 0-1.658.191-2.497.21-.934.019-1.525.324-1.734 1.296-.229 1.086-.61 2.154-1.563 2.897-.096.076-.42.019-.477-.057-.667-1.258-1.315-2.516-1.982-3.793-.076-.133-.286-.324-.324-.305-.267.153-.553.305-.782.515-.552.514-.438 1.124-.266 1.772.057.229-.172.61-.401.763-.286.209-.61.038-.743-.286-.477-1.182-.934-2.364-1.411-3.545-.457-1.086-1.048-1.315-2.382-.972-.477.133-.934.381-1.43.457-.476.076-.991.019-1.486 0-.896-.076-1.582-.953-1.297-1.658.172-.438.324-.896.553-1.315a481.138 481.138 0 012.383-4.174c.877-1.543 1.83-3.068 2.001-4.841.324-3.201 1.449-6.156 2.878-9.052.972-1.983 1.83-4.098 1.354-6.404-.21-.972.076-1.925.667-2.726.915-1.257 1.22-2.553.629-4.04-.248-.629.019-1.258.381-1.811.82-1.238 1.811-2.077 3.488-2.401 1.944-.362 3.774-1.258 5.661-1.887a3.068 3.068 0 012.421.191c.858.457 1.639.343 2.116-.496a2.731 2.731 0 012.916-1.429c1.944.343 3.564-.686 5.394-.743.248 0 .61-.362.686-.61.248-.763.343-1.544.572-2.306.229-.744 1.125-1.334 1.925-1.258 2.326.209 4.651.419 6.957.686.458.057.934.362 1.316.648.19.152.305.534.266.762-.057.286-.381.515-.514.801-.324.686-.191 1.181.343 1.696.515.476 1.201.858 1.773.515 1.658-1.011 3.678-1.544 4.822-3.24.4-.591 1.029-.706 1.753-.458.706.229 1.354.019 1.773-.514.572-.725 1.868-1.03 1.601-2.192-.267-1.201-1.41-1.163-2.401-1.277-.172-.019-.325-.057-.496-.076-.534-.077-.915-.381-1.106-.839-.686-1.677-.876-3.373-.152-5.108.133-.305.172-.629.305-.914.667-1.335.781-2.707.705-4.174-.076-1.887.115-3.774-.076-5.68-.134-1.353.61-2.439 2.02-2.973 1.087-.419 2.25-.686 3.26-1.22 1.105-.59 2.135-.724 3.335-.362.706.21 1.239-.267 1.792-.61.553-.324 1.087-.133 1.163.363.152 1.105.324 2.191.419 3.297.076 1.048.686 1.772 1.563 2.287.953.552 2.059.876 2.954 1.601.115.095.668-.077.858-.267.324-.343.648-.763.744-1.201.4-1.868.838-3.735 1.029-5.622.133-1.315.8-1.944 2.039-2.364.725-.228.687-.971.801-1.562a.57.57 0 01.152.076c.058-.076.096-.152.134-.21.038 0 .076 0 .095-.038.057-.038.057-.152.076-.228-.057.076-.114.171-.19.266-.076.038-.191.058-.267.096v.057c-.114-.057-.21-.096-.305-.153-2.249-1.696-2.954-4.097-3.374-6.632 0-.133.096-.286.172-.42.629-1.048 2.268-1.524 3.526-1.01.362.153.762.82.515 1.182-.877 1.41-.648 2.725.152 4.06.991 1.639 2.135 3.22 1.963 5.26-.019.267.248.591.458.819 1.182 1.334.514 3.088 1.182 4.536-.267 1.144-1.239 1.849-1.906 2.726-.096.133-.229.228-.344.362-.648.762-.934 1.563-.895 2.611.076 2.496.305 5.05-.839 7.452-.248.552-.21 1.239-.229 1.867-.057 2.383-.209 4.765-.076 7.128.114 2.002-.153 3.774-1.62 5.299-.324.324-.42.876-.705 1.239-.286.362-.687.667-1.068.952-1.334 1.011-1.448 1.087-.629 2.059 1.068 1.239 1.182 2.592.877 4.021-.172.762-.496 1.506-.782 2.249-.419 1.067-.438 2.135-.285 3.259.247 1.925 1.181 3.621 1.715 5.451 1.792 6.06 5.489 11.168 9.016 16.333.991 1.468 2.077 2.859 2.973 4.384.591.952 1.106 2.058 1.963 2.725 1.22.953 1.907 2.173 2.516 3.469.629 1.296 1.144 2.63 1.697 3.964.591 1.429 1.982 2.02 3.24 2.744.095.057.343-.057.458-.152.972-.744 1.048-1.944 1.582-2.916 1.429-2.497 1.448-5.051.419-7.776-1.086-2.878-1.468-3.697 1.963-5.298.153-.077.286-.172.42-.248.514-.324.629-.667.286-1.163-.439-.667-.954-1.296-1.335-2.001-.286-.553-.591-1.182-.61-1.791 0-1.411.058-2.84.229-4.25.133-.992.801-1.697 1.83-2.078a18.172 18.172 0 002.23-1.01c.648-.362.877-1.544.4-2.115-.724-.877-1.448-1.735-2.249-2.535-2.135-2.116-2.802-4.612-2.325-7.452.057-.419.552-.858 1.029-.801.324.038.648.172.972.191.991.038 1.944-1.163 1.487-1.925-.648-1.086-1.525-2.077-2.059-3.221-.514-1.067-1.201-1.391-2.344-1.22-.248.038-.686-.19-.782-.4-.591-1.296-1.429-2.535-.686-4.059.191-.401.172-.934.076-1.392-.076-.457-.286-.934-.61-1.277-.686-.743-1.658-1.048-2.63-1.2-.267-.038-.648.19-.858.4-.286.305-.495.686-.743 1.029.019 0 .019 0 .038.019.038.095.057.095.076.153.115 0 .191.038.191.057 0 .229-.076.171-.191-.057a.683.683 0 01-.209-.038c.019-.039.057-.096.076-.153-.934-.419-1.525-1.105-1.944-2.02-.763-1.639-.915-3.374-.82-5.127.152-2.744 0-5.394-1.639-7.776-.191-.267-.21-.61-.305-.896-.515-1.696.343-3.087 2.268-3.544.305-.077.667.076.991.038.991-.096 1.201-.21 1.354-1.049.152-.781.247-1.543.819-2.191.324-.343.991-.439 1.22-.038.419.686.782 1.41 1.258 2.058.133.19.61.286.858.229.286-.077.629-.324.705-.572.248-.763.381-1.544.515-2.306.228-1.144.877-2.059 1.639-2.897 1.029-1.144 2.497-1.582 3.984-1.83 1.048-.171 1.906.496 2.725 1.01.82.534 1.62 1.125 2.44 1.677.267.191.553.42.858.496.457.133.972.172 1.467.229.458.038.953-.496.953-.896-.038-1.105-.934-2.058-.648-3.221.267-1.086.458-2.173.782-3.24.457-1.525.686-3.068.839-4.65.19-2.364.857-4.65 2.268-6.709.8-1.181 1.391-2.478 1.963-3.812.877-2.02 2.268-3.83 3.984-5.336.629-.553 1.448-.839 2.306-.839 1.163 0 2.325.115 3.507.134.496 0 1.01-.038 1.487-.19.248-.096.61-.401.629-.649.114-2.077.191-4.135-1.868-5.622-.496-.362-.705-1.048-1.086-1.582-.286-.381-.553-.915-.953-1.03-1.887-.609-3.241-2.19-5.242-2.553 0 .038.019.057.038.095l-.4.096.286-.23s.057.02.076.02a29.933 29.933 0 00-.515-1.734c-.4-1.144-1.105-1.963-2.535-1.83-.381.038-.667-.057-.819-.4-.134-.286-.191-.61-.344-.896-.686-1.353-1.2-1.734-2.687-1.448-1.582.285-2.497-.496-3.393-1.449-.324-.343-.171-1.086.267-1.22.629-.19 1.258-.362 1.906-.514 1.887-.477 2.745-1.792 2.897-3.488.172-1.887.191-3.793.172-5.698 0-.61-.229-1.24-.477-1.811-.324-.724-.877-1.372-1.162-2.096-.477-1.144-1.239-1.83-2.536-2.02-1.239-.172-2.115-.896-2.801-1.85-.286-.4-.458-.819-.191-1.314.229-.42.362-.877.591-1.316.4-.762 1.182-.838 1.429-.21.42 1.106 1.182 1.85 2.307 2.402 2.992 1.487 3.259 1.41 4.746-1.639.133-.286.209-.61.381-.877.591-.838 1.487-1.257 2.459-1.486.762-.172 1.258.381 1.734.8.629.534 1.182 1.125 1.735 1.716.915.972 2.135 1.2 3.164.552 1.048-.648 2.078-.876 3.259-.8.858.057 1.678.172 2.516.133.648-.019 1.316-.19 1.964-.343.305-.076.61-.267.838-.476.21-.21.515-.553.477-.782-.248-1.505-.134-3.259-2.497-3.487-.686-.058-1.01-.782-1.182-1.41-.076-.306-.038-.63-.019-.954.076-1.524-.248-2.763-1.83-3.62-.667-.363-1.105-1.144-1.639-1.754-.61-.724-.686-1.03.057-1.563 1.296-.934 1.83-2.21 2.249-3.602.153-.495.077-.972-.247-1.315-1.411-1.506-1.926-3.278-1.926-5.241 0-.648-.305-.877-.934-.877-.324 0-.686.19-.991.114-1.753-.38-3.469-1.029-5.318-1.2-.61-.057-1.162-.572-1.753-.858-1.03-.495-1.963-.286-2.745.439-1.048.99-1.963 2.153-3.564 2.439-.248.038-.458.438-.667.686-.439.515-.515 1.353-.134 1.754.763.838 1.601 1.62 2.287 2.515.382.515.439 1.201.115 1.81-.134.23-.458.401-.725.553-.114.058-.4.02-.419-.038-1.105-2.382-3.64-3.697-4.918-5.946-1.791-1.43-3.545-2.859-6.232-2.344-.953.19-2.059.21-2.955-.076-1.467-.477-2.935-.439-4.441-.458-1.83-.019-3.641-.171-5.432-.743-1.563-.515-3.298-.686-4.918-.038-1.239.495-2.192.133-3.202-.63-.915-.704-2.021-1.104-3.202-1.238-3.641-.381-7.186-1.467-10.922-1.162-.496.038-1.029 0-1.506-.115-2.421-.667-4.689.02-6.805.877-1.543.629-3.068 1.506-4.688 1.582-1.849.095-3.584.743-5.433.667-.819-.038-1.639.152-2.459.248-.419.057-.514.324-.476.724.152 1.563 1.792 2.706 1.429 4.46-.057.247.572.82.973.933 1.296.382 2.573.744 3.507 1.735.991 1.067 1.925 2.172 2.859 3.297.381.438.324 1.372-.095 1.772a18.72 18.72 0 01-1.506 1.24c-.82.59-1.792.609-2.192-.153-1.03-1.963-2.764-2.65-4.88-2.821-.324-.02-.686-.057-.972-.19-.419-.21-.896-.458-1.182-.801-.419-.496-.686-1.086-1.01-1.64-.19-.342-.114-.59.172-.838 1.086-.934.819-1.982.152-3.01-.724-1.106-1.906-1.183-3.107-1.087-.648.057-1.677 1.029-1.696 1.582-.019 1.258.019 2.515 0 3.773-.019.82-.705 1.544-1.506 1.677-1.639.267-3.336.381-4.937.82-1.162.324-2.23.59-3.412.267-.285-.076-.686-.058-.953.076-1.925.953-3.85 1.887-5.718 2.954-2.668 1.506-5.489 2.268-8.577 1.982-.667-.057-1.22-.457-1.487-1.124-.057-.153-.152-.286-.19-.439-.629-2.992-2.421-5.165-5.166-6.69-.286-.152-.476-.438-.762-.61-2.936-1.81-5.947-2.972-9.378-1.085-.553.305-1.258.4-1.887.628-2.65.992-5.223 2.116-7.529 3.755-1.201.858-2.478 1.62-3.755 2.363-.877.515-2.097.248-2.516-.667-.515-1.105-1.296-1.81-2.421-2.268a59.24 59.24 0 01-2.287-.99c-.896-.42-1.563-.115-2.249.438-.763.59-.839.59-1.601.038-.553-.4-1.068-.782-1.792-.553-.515.152-1.068.19-1.411-.172-.743-.743-1.715-.895-2.668-1.143-.362-.095-.362-.4-.153-.762.858-1.41.839-2.116 0-2.86-.133-.114-.228-.247-.362-.323-1.906-1.087-3.869-1.906-6.156-1.353-.973.228-1.964.4-2.917.724-.61.21-1.334.476-1.696.934-1.087 1.353-2.192 1.486-3.927 1.01-1.715-.477-3.659-.343-5.47-.305-2.173.057-4.346.267-6.519.515-2.154.228-4.288.533-6.461-.115-.363-.114-.953.21-1.354.438-.228.134-.343.515-.419.8-.019.096.133.325.267.382.762.286 1.563.515 2.306.839.267.114.477.438.648.686.172.247-.248.895-.724 1.105-.458.19-.972.267-1.411.496-.953.514-1.315 1.372-1.296 2.401 0 .8.686 1.544 1.563 1.601.648.038 1.315 0 1.964-.038 0-.038 0-.095.019-.133l.057-.248-.076.362h-.019c-.172.762-.115 1.486.362 2.134.762 1.049 1.563 2.04 2.706 2.764.458.286.439.762.115 1.258-.305.438-.858.705-1.239.438-1.049-.686-2.097-.915-3.222-.171-.686.438-1.448.8-2.096 1.296-.839.648-1.716.876-2.783.686-.82-.153-1.677-.229-2.478-.134-1.182.172-2.344.63-2.707 1.83-.362 1.277-1.124 1.715-2.478 1.83-2.477.228-4.631-.325-6.442-1.944a1.123 1.123 0 00-.419-.23c-.134-.018-.324 0-.439.096-.114.095-.229.248-.229.4-.057 1.468.42 2.802 1.03 4.136.819 1.734 1.544 3.507 1.83 5.413.076.514-.248.838-.896.781-.991-.095-1.944-.21-2.917-.495-2.973-.915-4.917-3.164-7.357-4.765-.076-.057 0-.305-.038-.457-.419-1.258-.439-1.258-1.544-.61-1.029.59-1.506.59-2.211-.096-.305-.304-.438-.762-.648-1.143a.896.896 0 01-.134.057c-.038-.038-.076-.057-.114-.095-.381.038-.743.076-.972-.343.133-.058.324-.19.381-.153.21.153.4.324.591.496h.21s0 .038.019.057c.553-.267 1.105-.496 1.601-.839.21-.152.362-.552.324-.838-.133-1.144-.915-2.02-1.658-2.84-.553-.59-1.468-.648-2.326-.686-.724-.038-.877-.248-.686-.896.172-.61.458-1.181-.114-1.734-1.296-1.22-2.554-2.478-3.889-3.64-1.029-.896-5.584-2.116-7.071-2.002-.324.02-.705.039-.953.21-.686.477-1.277.63-2.211.362-2.078-.59-4.27-.762-6.424-.286-.61.134-1.201.515-1.734.877-1.03.724-1.258 1.525-.706 2.459.649 1.105 1.373 2.153 2.059 3.22.229.344.057 1.144-.286 1.278-1.982.78-3.945 1.62-5.985 2.267-1.296.42-2.592.267-3.736-.724-.743-.667-.839-.552-1.658 0-2.287 1.544-4.308.896-4.784-1.505-.058-.305-.019-.63-.096-.934-.171-.744-1.086-1.277-1.925-1.125-2.611.515-5.222.991-7.815 1.544-.972.21-1.944.438-2.84.858-1.029.476-1.982 1.143-2.973 1.734a153.73 153.73 0 00-3.107-1.41c-.114-.058-.267-.02-.4 0-.058.266-.115.552-.21.82-.667 1.695-2.611 2.267-3.908 1.066-.457-.419-.781-.99-1.105-1.524-.267-.458-.629-.743-1.144-.496-.762.381-1.505.477-2.363.362-.934-.133-1.563.42-1.83 1.24a5.694 5.694 0 00-.286 1.371c-.038.686.286 1.258.934 1.506.553.229 1.163.305 1.754.438v-.076c.057-.038.095-.057.152-.095 0-.229.019-.458.114-.63.115-.209.382-.323.591-.476.038.115.115.248.077.343a.64.64 0 01-.21.382c-.191.152-.4.267-.591.4v.21a.584.584 0 01-.152-.039c-.134.439-.153.972-.458 1.22-.915.743-1.601 1.64-2.154 2.592-1.086 1.868-2.821 2.573-4.956 2.764-.762.057-1.086-.153-.762-.744.477-.876.667-1.772.743-2.725.096-1.105 1.506-1.2 1.868-2.096.172-.439.553-.953.439-1.335-.439-1.524.076-2.82.762-4.116.305-.572.515-1.182.362-1.83-.152-.648-.076-1.22.21-1.83.686-1.448 1.487-2.877 1.887-4.402.4-1.525.515-3.087 1.144-4.593.552-1.372.362-2.84-.267-4.174-.667-1.43-1.735-2.687-2.021-4.288-.057-.286-.286-.667-.533-.782-1.792-.743-2.669-2.344-3.927-3.583-.362-.343-.896-.324-1.258.058-.305.324-.267 1.543-1.124.495-.953-1.182-2.25-1.868-3.584-2.535-1.182-.571-2.478-.99-3.564-1.696-1.106-.743-2.097-.896-3.221-.19-1.964 1.238-4.175 1.963-6.367 2.706-.476.152-.762.743-.572 1.162.191.439.515.82.706 1.258.324.839.057 1.468-.801 2.001-.953.591-2.077.134-2.211-.953-.095-.78-.038-1.562-.114-2.344-.077-.781-.172-1.563-.362-2.325-.172-.724-1.201-1.315-1.945-1.2-.648.114-1.296.304-1.925.476-1.029.286-1.963 0-2.897-.381-.705-.305-1.105-.725-.953-1.449.343-1.544-.667-2.325-1.792-3.087-1.887.21-3.526-.839-5.356-.896-.438 0-.915.324-1.315.572a1.905 1.905 0 00-.629.724c-1.334 2.63-1.925 5.45-1.677 8.29.152 1.773.057 3.85 2.23 4.975.991.514.686 1.715 1.048 2.592.419 1.048.305 1.181-.572 1.277-1.162.114-2.344.095-3.412.667-.476.267-.724.629-.629 1.143.077.458.363 1.01.191 1.353-.476 1.01-1.105 1.944-1.734 2.878-.172.248-.496.439-.782.553-1.067.381-2.135.762-3.221 1.086-.267.076-.458-.21-.343-.61.152-.61.381-1.2.533-1.81.153-.591-.514-1.182-1.22-1.125-1.048.077-2.058.305-2.325 1.41-.171.706-.381 1.144-1.182 1.22-.667.058-1.315.23-1.982.267-1.125.058-1.811.763-2.497 1.43-.858.876-.896 1.372 0 2.458.381.458.362.991 0 1.201-1.277.743-2.497 1.563-3.831 2.173-1.201.552-2.383 1.01-3.221 2.115-.763 1.01-2.002 1.64-2.421 2.954-.286.915-.934 1.754-1.944 2.04-1.373.38-1.03 1.905-2.021 2.496-.591.362-.857.934-1.162 1.506-.572 1.105-.172 2.134.076 3.22.152.706.572 1.01 1.105 1.411 1.182.877 2.288 1.753 3.774 2.21 1.563.496 3.126 1.163 4.251 2.402.19.21.286.591.248.858-.038.267-.267.61-.515.743-.705.4-.781-.19-.953-.629-.191-.476-.477-.857-1.086-.781-.649.095-1.468.038-1.907.4-1.582 1.239-3.45 1.792-5.279 2.573-1.83.781-3.717 1.41-5.623 1.963-.629.19-1.296.343-1.906.572-1.811.667-2.326 2.058-1.392 3.792a10.78 10.78 0 001.373 1.983c.781.857 1.372 1.753 1.601 2.896.114.61.381 1.24.762 1.735.362.495.877.972 1.449 1.239 1.239.59 2.611.343 3.945.438 1.068.972 2.135 1.944 3.241 2.878.228.19.61.21.934.343.762.305 1.544.59 2.287.915.629.267 1.144.705 1.277 1.372.381 2.04 1.029 3.983 2.306 5.698.324.439-.038.877-.495 1.144-.553.324-1.106.629-1.659.953.019.038.058.095.077.133-.077.115-.172.229-.229.343-.038.096-.057.229-.095.343.076-.266.133-.533.19-.8 0 0 .019 0 .038-.02-.133-.228-.266-.476-.438-.685-1.41-1.62-1.792-3.336-.705-5.26.152-.248.114-.61.152-.934.096-.896-.877-1.944-1.83-1.868-.819.057-1.658.171-2.458.324-1.563.305-2.955.114-4.194-.953-.743-.629-1.563-1.22-2.44-1.639-1.486-.686-3.011-1.41-4.612-1.773-1.639-.343-3.164-.895-4.765-1.334-.382-.114-1.03.096-1.354.382-.762.629-1.239 1.486-1.258 2.477 0 .248.248.63.477.743.438.21.953.248 1.448.363a.827.827 0 00-.133-.115l.21-.248-.077.363c.305.285.61.59.972.762.439.21.973.229 1.43.4.591.229.801 1.067.496 1.62-.267.477-.763.686-1.239.591-.629-.133-1.22-.438-1.811-.686-.458-.19-.877-.553-1.353-.61a1.927 1.927 0 00-1.735.762c-.248.343-.457.972-.305 1.296.858 1.773 2.116 3.164 4.213 3.774 1.143.324 2.23.629 3.43.686.477.02.973.19 1.43.343.133.038.248.21.305.343.114.324-.095.591-.457.439-.782-.325-1.544-.63-2.402-.496-1.506.229-3.012.076-4.498-.038-.877-.076-1.621-.381-2.04-1.163-.152-.286-.267-.59-.438-.857-1.068-1.62-2.04-3.221-2.154-5.242-.096-1.6-.877-3.049-1.906-4.345-.286-.362-.725-.629-1.125-.896-.095-.057-.305-.057-.419 0-.134.077-.305.267-.286.362.4 1.201.839 2.383 1.22 3.603.286.953.19 1.886-.381 2.744-.172.267-.344.553-.553.8-.801.896-1.258 1.811-.858 3.05.362 1.048-.362 2.306.381 3.24.686.877 1.639 1.563 2.497 2.325.61.534 1.201 1.086 1.849 1.582.953.762 1.468 1.696 1.487 2.878.019 1.258.019 2.515.229 3.792.4 2.44 1.982 4.327 2.935 6.499.286.629 1.01.782 1.715.744 1.354-.077 2.593-.324 3.546-1.449 1.048-1.258 2.382-.819 3.621-.209.134.076.305.228.324.343 0 .095-.19.247-.305.324-1.334.953-2.725 1.848-4.002 2.839-1.182.934-1.354 2.783-.42 3.869.534.61 1.182 1.125 1.678 1.773.724.934 1.048 2.058.59 3.144a10.752 10.752 0 00-.838 4.632c.019.743-.267 1.601-.686 2.249-.992 1.467-2.173 2.801-2.478 4.593-.038.171-.553.438-.82.4a210.749 210.749 0 01-5.947-.667c-.305-.038-.781-.191-.839-.362-.114-.42-.057-.877-.057-1.334-.019 0-.038-.019-.076-.038-.362 0-.4-.115-.114-.286.057.076.114.171.171.266v.058c.42.209.839.438 1.277.59 1.716.629 2.955.153 3.641-1.391 1.239-2.801 1.83-5.756 2.344-8.729.077-.438 0-.991-.228-1.372-.687-1.143-.992-2.306-.763-3.64.153-.839-.305-1.525-1.029-2.02-.686-.477-1.392-.896-2.059-1.353a5.308 5.308 0 01-2.039-2.65c-1.296-3.602-2.745-7.147-3.889-10.787-.705-2.23-1.829-4.021-3.831-5.336-1.01-.667-1.544-1.64-1.525-2.84.039-3.202-.514-6.308-1.353-9.396a1.96 1.96 0 00-1.277-1.372c-2.554-.877-5.089-1.563-7.834-.629-.591.19-1.353-.114-1.982.038-.381.095-.877.553-.953.934-.172.762-.153 1.563-.134 2.363.096 2.535.248 5.07.362 7.605.058 1.315-.171 2.515-1.124 3.545-1.048 1.143-1.392 2.439-1.296 3.964.076 1.01.171 1.848 1.143 2.458.858.534 1.659 1.277 1.849 2.192.267 1.353 1.315 2.63.572 4.117-.133.248-.114.667 0 .915a65.718 65.718 0 002.249 3.678c.076.095.61.038.839-.095.8-.458 1.582-.572 2.249.152 1.315 1.448 2.63 2.859 4.689 3.411.229.058.438.515.438.801.039.781 0 1.563-.076 2.363-.038.496-.667.782-1.124.496-.973-.61-1.945-1.239-2.917-1.849-.705-.438-1.353-.953-2.115-1.258-1.22-.514-2.516-.857-3.755-1.315-1.068-.4-2.135-.877-3.184-1.334-1.582.286-2.306-1.124-3.488-1.639-2.363-.991-4.708-1.62-7.3-1.163-.324.058-.667.134-.991.134-2.878 0-5.642-.324-7.967-2.23-1.125-.915-2.44-1.64-3.698-2.42-.324-.21-1.087.057-1.315.438-.077.133-.191.267-.229.4-.458 1.353 0 2.478 1.144 3.354 1.296.991 3.202 1.011 4.231 2.44.152.21.61.267.915.305a2.707 2.707 0 011.677.953c.953 1.105 1.849 2.23 2.764 3.373.419.534.362 1.277-.172 1.715-.991.801-2.211 1.411-2.554 2.764-.019.095-.305.21-.362.191-.248-.153-.591-.305-.686-.553-.229-.591-.267-1.239-.515-1.811-.324-.781-1.391-1.219-2.058-.915-1.201.515-2.23 1.411-3.698 1.239-.133 0-.343.134-.4.248-.515 1.239-1.563 1.506-2.821 1.429-1.239-.076-2.459.305-3.183 1.144-.896 1.067-2.25 1.277-3.317 1.982-.343.229-.934.076-1.429.095 0-.286-.058-.59 0-.876.247-1.315-.267-2.383-1.163-3.336-1.106-.095-1.963.172-2.326 1.296-.076.229-.438.572-.648.553-1.029-.038-1.258.972-1.963 1.258-.743.324-1.601.438-2.402.629-1.181.286-2.039.934-2.84 1.83-1.829 2.039-3.697 4.097-6.137 5.546-.61.362-.896.876-.991 1.543a20.248 20.248 0 01-.42 2.345c-.076.285-.305.571-.533.781-1.354 1.258-4.022 1.41-5.013.343-.667-.705-1.411-1.353-2.097-2.039-.629-.629-.629-1.601.057-2.097.782-.572 1.659-1.048 2.478-1.563.496-.324.629-1.219.191-1.696-.648-.724-1.392-1.353-1.964-2.115-1.086-1.468-2.592-2.04-4.345-1.716-1.354.248-2.631.191-3.927-.019-.133-.019-.305.096-.4.191-.248.229-.248.572.076.8 2.402 1.697 3.107 4.003 2.707 6.709a12.504 12.504 0 00-.153 1.887c0 .648.248 1.296.896 1.582 1.239.552 1.62 1.524 1.62 2.706 0 .629-.057 1.258-.133 1.887-.076.61-.82 1.22-1.392 1.105-.972-.19-1.982-.362-2.935-.591-1.43-.362-2.611-.228-3.526 1.03a6.623 6.623 0 01-1.735 1.677c-.991.648-1.639 1.524-2.325 2.439-1.468 1.944-2.421 2.707.152 5.299.229.228.382.514.515.8.324.648.057 1.239-.305 1.772-.381.572-1.182.896-1.715.629-2.345-1.181-5.071-1.639-7.186-3.278-.362-.266-.934-.286-1.43-.419-.419-.114-1.067.153-1.239.553a49.303 49.303 0 00-.724 1.772c-.267.667-.076 1.277.362 1.773.991 1.086 2.078 2.077 3.755 2.096.305 0 .629.172.915.324.515.248.629.705.629 1.201 0 .743-.915 1.524-1.658 1.41-1.659-.248-3.317-.457-4.442-1.868-.648-.8-1.677-.972-2.649-1.2-.686-.172-1.201-.61-1.353-1.258-.362-1.391-.82-2.745-1.697-3.926-.61-.82-.533-1.735-.4-2.726.286-2.363-.476-3.564-2.764-4.44-.934-.362-1.811-.667-2.478-1.449-3.24-3.716-6.194-4.269 1.868-1.258a58.753 58.753 0 0011.036 2.878c2.898.458 5.661.076 8.33-1.029.457-.191.915-.419 1.258-.762 1.62-1.658 2.859-3.526 3.126-5.813.076-.591 0-1.353-.362-1.811-1.049-1.391-1.792-3.049-3.641-3.811-.724-.305-1.315-.953-1.925-1.487-.743-.667-1.487-1.029-2.573-1.201-1.601-.267-3.126-.953-4.479-2.001-1.277-1.01-2.707-1.849-4.137-2.649-4.117-2.306-5.298-2.611-9.949-2.592-.667 0-1.315.267-1.983.267-.819 0-1.658-.115-2.458-.286-.725-.153-.439-.629-.267-1.067.19-.477.076-.991-.343-1.296a10.836 10.836 0 00-1.735-.934c-.648-.305-1.296-.286-1.811.248-.743.743-1.525 1.238-2.649.8-.972-.362-1.944-.267-2.955-.095-.4.057-.914-.248-1.296-.515-.228-.152-.362-.514-.438-.819-.076-.324.172-.515.591-.534.858-.019 1.639-.21 2.325-.743.629-.515 1.277-1.01 1.925-1.525.343-.286.191-.934-.247-1.182-2.173-1.219-4.575-1.867-6.939-2.592-.343-.095-.895.286-1.296.534-.247.172-.4.496-.591.762-.228.343-.476.458-.686.267a.578.578 0 01-.19-.419c0-.477.076-.953.057-1.41-.019-.839-.591-1.525-1.392-1.754-.705-.19-1.296.076-1.829.515-.496.419-.896.896-.972 1.582a3.507 3.507 0 01-.42 1.353c-.133.229-.495.343-.781.457-.057.019-.305-.19-.324-.324-.191-.8-.42-1.486-1.563-1.429-.629.038-.61-.591-.725-1.01-.305-1.106-1.353-1.353-1.791-.744-.896 1.22-2.669 1.277-3.45 2.554-1.354.191-2.211 1.258-3.45 1.658a2.884 2.884 0 01-.439.077v.095l-.209.21.152-.286h.057a1.137 1.137 0 00-.095-.744c-.133-.038-.267-.095-.4-.095-2.116-.038-2.345.21-1.849 2.02.076.267.095.534.133.82h.134l.19.229-.305-.115s0-.076-.019-.114c-2.02-.115-3.678.915-5.432 1.639-.153.057-.172.572-.133.858.057.438.381.914.266 1.295-.152.553-.838.267-1.277.382-.781.228-1.563.476-2.344.705l.114-.076h-.095c.038-.439.114-.877.057-1.296-.076-.534-.591-.763-1.105-.801-.21 0-.649.381-.61.477.171.552.457 1.086.705 1.62h-.095l.133.076c-1.43-.095-2.44.476-3.012 1.677h.058c-.191-.114.362.515-.134.114.019-.038.057-.076.076-.114-.476 0-.972 0-1.448.038-.896.057-1.563.438-1.887 1.296-.362.972-.381 1.868.591 2.554.267.191.552.362.781.572.343.305.229.857-.248 1.2-.533.363-1.048.858-1.791.534-.82-.343-1.621-.229-2.459-.076-.534.076-.991-.477-.82-.915.286-.743.591-1.468.858-2.211.019-.076-.153-.286-.267-.343-.095-.057-.343-.076-.4 0-1.163 1.125-2.326 2.23-3.431 3.412-.381.4 0 .857.286 1.238.495.629.324 1.144-.267 1.659-.21.171-.305.438-.438.686.609 0 1.219.057 1.81-.038 1.144-.21 2.269-.61 3.412-.763.629-.095 1.315.095 1.982.191.115 0 .21.114.325.171-.115.115-.229.248-.363.305-.591.305-1.162.61-1.772.877-.305.133-.648.152-.972.229-.877.152-.915.705-.687 1.372-.495.343-1.2.61-1.429 1.086-.229.496.038 1.22-.019 1.83-.191 1.696-4.06 5.298-4.194 5.908-.19.915-1.029 1.715-1.143 2.592-.095.858-.095 1.467-1.068 1.811-.495.171-.724.628-.59 1.143.247.934.362 1.83 0 2.783-.344.876-.401 1.848-.629 2.763-.077.286-6.958 7.109-7.72 8.958-.172.438-.343.895-.61 1.296-.362.571-.915.914-1.658.857-.648-.038-1.316-.171-1.964-.228a.68.68 0 00-.438.209c-.267.267-.248.572 0 .858.114.114.248.21.343.343.286.457.19 1.143-.21 1.182-1.524.133-2.382 1.753-4.04 1.543-1.049.744-2.097 1.487-3.126 2.249-.096.076-.115.305-.077.458.23 1.067-.438 1.353-1.353 1.524-.648.115-1.296.286-1.868.572-.4.21-.781.629-.896 1.029-.19.591-.057 1.239-.19 1.849-.343 1.677.42 3.45-.439 5.108-.057.114.058.305.096.438.362 1.22 1.353 2.116 1.887 3.24.343.724.781 1.41.972 2.173.114.381-.076.934-.305 1.315-.343.533-.877.934-1.258 1.429-.229.286-.02 1.105.324 1.277.438.21.915.343 1.353.534.553.228.763.705.457 1.067-.4.495-.857.953-1.258 1.467-.304.401-.152 1.449.23 1.773 1.715 1.544 3.659 2.725 5.908 3.45.305.095.686.209.953.114 2.02-.648 4.25-.953 5.547-2.916.533-.801 1.163-1.582 1.925-2.154 1.296-.934 3.145-1.181 3.888-2.839.019-.039.305-.058.382 0 .495.4 1.181.762 1.391 1.296.324.857.248 1.867.496 2.763.305 1.067 1.029 2.058 1.124 3.126.153 1.829 1.106 3.24 2.001 4.764.82 1.392 1.583 2.783 2.65 4.022.381.438.133.876 0 1.315a30.82 30.82 0 00-.362 1.258h.095c.019.095 0 .19.019.285.267.305.591.61.724.972 1.239 3.183 1.811 2.326 4.575 2.002.743-.096 1.106-.629 1.239-1.296.21-1.087.972-1.601 2.059-1.773.495-.076.991-.171 1.486-.152 1.43.038 2.65-.21 3.298-1.601 2.287.381 2.154-1.353 2.516-2.63.076-.286.076-.629.019-.953-.076-.534-.381-.801-.991-.648-.153.038-.362.057-.477 0-.114-.057-.209-.248-.209-.381 0-1.582-.153-3.145.4-4.689a6.821 6.821 0 00.362-2.325c-.038-1.448.8-2.363 1.944-3.087.82-.534 1.754-.934 2.497-1.563.858-.744 1.544-1.639 1.392-2.897-.058-.61.19-1.239.171-1.849 0-.457-.095-.972-.362-1.334-1.125-1.563-2.268-3.107-4.232-3.888-1.01-.4-1.448-1.334-1.448-2.325.019-2.535.095-5.051.209-7.585 0-.439.267-.915.515-1.315 1.392-2.154 2.935-4.155 5.204-5.604 1.086-.686 2.058-1.582 3.011-2.458 1.887-1.754 1.83-1.792 2.955-4.288.362-.782.381-1.487.19-2.287-.419-1.849-.019-4.003.801-5.432.858-1.468 1.868-2.668 3.907-2.23 2.402-.4 4.651.038 6.786 1.086.61.305.972 1.735.419 2.059-.743.438-1.334.781-1.334 1.753 0 .591-.324 1.239-.686 1.734-1.582 2.211-2.974 4.593-4.861 6.614-.552.59-1.105 1.162-1.372 1.944-.362 1.086-1.22 1.372-2.345 1.296-.609-.058-.972.286-.876.857.133.801 0 1.544-.229 2.325-.172.572-.095 1.258 0 1.849.114.61.438 1.201.591 1.811.61 2.439 1.429 4.879.991 7.452-.076.457.038.933.095 1.41.115.839.553 1.429 1.411 1.791.61.248 1.143.629 1.715.953v-.038s-.076-.057-.114-.076l.324-.152-.191.247c.382.248.801.591 1.144.553 1.163-.133 1.849.286 2.402 1.201.591.991 1.62 1.067 2.611.781.953-.267 1.868-.667 2.764-1.086 3.011-1.411 6.156-2.287 9.549-2.306 1.163 0 2.306-.229 3.469-.305.305-.019.82.076.877.248.61 1.467 2.268 1.105 3.298 1.791.133.095.324.133.419.229.076.076.133.305.095.324-.553.343-1.105.724-1.696.991-.915.4-1.964.667-2.478 1.505-1.106 1.754-2.497 1.697-4.251 1.068-1.086-.381-2.249-.515-3.393-.725-.476-.076-1.01-.152-1.448-.019-1.582.439-3.183.915-4.727 1.487-1.639.61-2.802 1.639-2.936 3.45-.057.895-.686 1.391-1.524 1.639-.629.19-1.296.286-1.926.476-1.258.4-1.448 1.239-.552 2.573.057.095.152.172.209.267 1.449-.057 2.383-.991 3.412-1.754.725-.533 1.03-.514 1.773 0 .534.382 1.029.82 1.62 1.106.496.248.839.61.858 1.067.076 1.258.095 2.535.057 3.793-.019.705-.61 1.181-1.239 1.372-.4.114-1.029-.076-1.353-.362-.744-.629-1.335-1.41-1.983-2.135-.724-.781-1.181-.876-2.192-.59-1.353.4-2.42 1.048-2.897 2.401-.324.896-.743 1.772-1.048 2.668-.4 1.22-.591 2.44-.286 3.736.362 1.543.591 3.106.82 4.688.038.229-.21.648-.458.762-.743.343-1.525.61-2.306.877-.858.305-1.296.82-1.43 1.734-.229 1.544-3.297 1.792-4.117.629a18.775 18.775 0 01-.495-.819c-.439-.82-1.22-1.087-2.078-1.01-1.677.152-3.279.571-4.746 1.41-1.983 1.144-3.965 2.344-6.1 3.24-.705.305-1.162 1.124-1.829 1.563-.344.229-1.125.343-1.373.133a14.314 14.314 0 01-2.325-2.363c-.229-.305-.019-.934-.076-1.391-.058-.42-.82-.744-1.163-.477-.782.572-1.487 1.144-2.612 1.239-1.524.114-2.744 1.086-4.059 1.792-.191.114-.687 0-.858-.172-.572-.572-1.029-1.22-1.925-1.41-.782-.172-1.735-.267-2.288-.725-.571-.476-.781-1.372-1.067-2.115-.076-.21.076-.534.172-.801.038-.076.305-.133.419-.076 1.372.534 2.84.686 4.079 1.696 1.372 1.125 2.84.572 3.679-.952 1.067-1.925 1.639-3.946 1.353-6.137-.057-.058-.095-.115-.153-.172 0-.038.019-.076.039-.114-1.773-.096-3.126.724-4.346 1.829-.439.401-.553 1.163-.191 1.754.324.552.782 1.029 1.106 1.582.114.19.038.686-.115.781-.228.114-.591 0-.877-.076a1.126 1.126 0 01-.419-.229c-1.163-.877-1.487-2.516-3.031-3.106-.133-.058-.133-.553-.076-.839.172-1.163.782-2.001 1.963-2.497.382-.152.344-.533.077-.819-.115-.115-.21-.267-.343-.324-1.659-.782-2.002-2.001-1.354-3.564.305-.743.515-1.506.401-2.306-.058-.439-.572-.953-.973-.858-.324.076-.686.076-.972.229-1.868 1.01-3.221 2.744-5.356 3.411-.228.077-.457.515-.457.782.038 1.848-1.41 3.545-.553 5.47.095.209-.152.59-.248.876-.228.667-.076 1.22.4 1.735.325.362.763.724.84 1.143.438 2.001 1.219 3.907 1.334 5.984.057 1.087-1.487 2.688-2.536 2.402-1.353-.362-2.573-.286-3.85.4-1.01.534-2.135.953-3.26 1.163-1.524.286-2.782 1.048-4.116 1.696-1.258.61-2.02 1.486-2.44 2.821-1.353 4.25-1.392 4.25-4.88 6.861-.762.571-1.734.914-2.554 1.429-.4.248-.743.667-.934 1.067-.267.572-.324 1.22-.533 1.83-.305.972-1.01 1.62-2.04 1.925-.477.152-.972.229-1.448.4-.801.267-1.45.705-1.85 1.487-.552 1.01-1.562 1.048-2.592.934-.857-.096-1.544-.477-2.23-.972-.343-.248-.915-.267-1.391-.305-.477-.019-1.068.571-.991.914.228.915.495 1.83.686 2.745.152.648-.381 1.162-1.144 1.22-1.182.076-2.306.057-3.412-.458-.553-.248-1.315-.343-1.925-.209-1.296.247-2.573.686-3.85 1.067-.42.114-.8.724-.724 1.124.285 1.563.4 3.164 2.763 3.259.953.038 1.83.763 2.802.991 1.64.362 2.726 1.315 3.222 2.707.514 1.448 1.391 2.534 2.725 3.278 1.01.552 1.315 1.41 1.258 2.401-.133 2.516-.248 5.032-.476 7.547-.076.934-.439 1.849-.744 2.745-.267.819-1.544 1.658-2.401 1.315-1.754-.686-3.66.229-5.375-.591-.4-.191-1.03-.229-1.468-.095-1.677.571-3.336.324-4.918-.115-1.791-.495-3.526-.838-5.394-.419-.476.095-1.03.095-1.487-.057-2.058-.705-3.907-.705-5.413 1.105-.267.305-.915.305-1.391.477-.305.114-.61.248-.915.381-.553.267-.991 1.124-.724 1.601.895 1.563 1.448 3.164 1.029 4.955-.038.134.076.305.095.458.762 3.564.076 6.918-1.544 10.158a26.2 26.2 0 00-1.105 2.63c-.23.61-.248 1.315.21 1.81 1.486 1.639 2.134 3.507 1.886 5.661-.038.305 0 .648.115.934.114.286.305.667.552.743 1.258.362 2.46 1.01 3.87.648a7.617 7.617 0 011.982-.248c.877 0 1.658.305 2.173.991.667.896 1.239 1.887 1.906 2.783.686.915 2.192 1.239 3.145.724a23.89 23.89 0 002.135-1.258c1.715-1.162 3.564-1.601 5.68-1.448 1.487.095 2.993-.096 4.498-.172.896-.038 1.601-.419 2.097-1.124.59-.839 1.353-1.372 2.364-1.677 1.029-.305 1.658-.915 2-1.925a8.577 8.577 0 012.326-3.621c.534-.477.782-1.182.324-1.716-1.944-2.249-.915-4.078.82-5.851.457-.476.877-.953 1.315-1.429 1.315-1.41 2.478-3.03 4.727-3.164 2.25-.991 3.965-2.325 4.022-4.936.019-.953.171-1.887.305-2.821.057-.457.171-.934.324-1.391.362-1.143 1.887-2.173 3.05-1.944 2.249.438 4.65.362 6.67 1.753.878.61 2.06.363 2.727-.438 1.296-1.544 2.82-2.649 4.803-3.259.591-.191 1.105-.705 1.544-1.163 1.163-1.257 2.497-1.391 4.079-.819 1.467.534 2.649 1.315 3.335 2.706.572 1.144 1.182 2.249 1.773 3.374 2.059 1.791 4.213 3.506 6.004 5.565 1.315 1.505 2.993 2.611 4.975 3.049 2.402.534 3.946 2.268 5.928 3.354.629 1.201 1.734 1.887 2.935 2.478.42.21.839.572 1.03.972.514 1.163.934 2.382 1.353 3.583.095.267.076.629 0 .915-.477 1.353-.896 2.573-2.84 2.897-2.955.514-5.89 1.067-8.921.781-.457-.038-.972.172-1.41.381-.248.115-.477.458-.534.744-.057.286 0 .743.191.857.972.61 1.982 1.144 3.011 1.658a468.09 468.09 0 006.233 2.993c.343.171 1.087-.172 1.239-.572.191-.438.401-.896.42-1.353 0-.629-.229-1.239-.229-1.868 0-.934.819-1.753 1.925-1.696 1.144.057 1.963-.286 2.497-1.182.82-1.372 1.601-2.763 2.383-4.155.514-.914.419-1.829-.172-2.706-.267-.4-.686-.781-.762-1.201a4.33 4.33 0 01.133-1.848c.286-.953 1.582-1.411 2.459-.858.819.515 1.487 1.22 2.287 1.753.153.096.686-.038.839-.209.686-.839.629-2.154-.134-2.573-2.611-1.391-4.784-3.526-7.757-4.288-1.011-.267-1.22-.896-1.297-1.735-.038-.266-.285-.629-.533-.705a6.73 6.73 0 00-1.944-.362c-1.64-.057-2.879-.819-3.87-1.925-.743-.838-1.582-1.715-2.001-2.706-.801-1.849-2.306-3.088-3.774-4.365-.61-.533-1.392-.876-2.04-1.372-.8-.648-1.2-1.506-1.162-2.516.019-.781.114-1.562.152-2.344.019-.533.362-.896.801-1.105a14.135 14.135 0 012.306-.896c.21-.057.724.191.782.381.247.743.305 1.544.59 2.268.229.591.763 1.277 1.449 1.087 1.125-.305 1.773.762 2.802.628.781-.114 1.353.401 1.544.991.648 2.135 2.268 3.45 4.098 4.575 1.506.933 2.878 2.172 4.86 2.191.801.572 1.468 1.315 2.535 1.449 1.239.171 2.097.953 2.936 1.734.934.896 1.772 1.887 2.706 2.802.515.495.687 1.01.629 1.696-.076.934.039 1.887-.038 2.84-.114 1.677.134 3.163 1.735 4.173.133.077.267.286.229.401-.477 1.41.59 1.944 1.544 2.611.8.552 1.448 1.296 2.172 1.944.21 1.41 1.849 2.172 1.926 3.659.457.381.476.515 0 .896 0 .343.019.705.038 1.048 1.353.877 2.573 1.83 2.878 3.526.076.362.61.762 1.029.934 1.22.514 2.497.857 3.889.724.59-.057 1.048-.343.8-.877-.781-1.563 1.029-2.535.896-3.926 0-.057.305-.209.419-.171 1.277.4 2.135-.61 3.222-.858.343-.076.457-.381.343-.743-.382-1.239-.858-2.421-2.097-3.126-.572-.324-1.277-.591-1.639-1.067-1.277-1.658-2.459-3.393-3.622-5.127-.152-.229-.114-.61-.133-.915 0-.152.057-.305.114-.438.191-.343.477-.381.82-.114.248.209.476.457.724.648 1.468 1.162 2.802.819 3.45-.839.229-.591.419-1.201.743-1.734.115-.21.61-.401.82-.324.648.247 1.239.419 1.83-.077.839-.724 1.868-.648 2.859-.514 1.43.171 2.459 1.239 2.497 2.554.057 1.905.076 3.792-.515 5.641-.114.381.42.934.896.934.496 0 .991-.038 1.487-.057.171 0 .343-.057.495 0 .134.057.344.19.363.305.038.305.076.667-.077.895-.571.915-1.753.801-2.592 1.277-.133.077-.286.172-.362.305-.153.343-.038.648.305.82.591.305 1.182.572 1.773.876.438.229.953.382 1.315.687.572.495-.725 1.086-.096 1.486.839.534 1.716 1.048 2.135 1.925.458.934 1.334 1.391 2.059 2.039.514.477 1.143.591 1.849.401 1.448-.363 2.611.038 3.526 1.181.286.362.781.591 1.201.82.286.152.648.305.953.267 1.639-.21 3.393-.248 4.479-1.697.839-1.105 1.925-1.086 3.126-.819a6.569 6.569 0 013.031 1.601c1.353 1.277 2.954 1.334 4.67 1.01 1.867-.343 3.411-1.144 4.65-2.554a1.639 1.639 0 011.83-.457c1.239.476 2.554.324 3.85.438 0-.038 0-.076.019-.114l.115-.153-.038.267h-.115c-.591 1.658-.438 3.373-.133 5.05a9.826 9.826 0 01-.229 4.708 46.912 46.912 0 01-1.239 3.602c-.61 1.639-1.486 3.164-1.791 4.917-.267 1.582-1.201 2.935-2.269 4.193-.438.496-.953.934-1.658.953-2.497.057-4.994.438-7.415-.572-.876-.362-1.944-.343-2.935-.419-2.249-.172-4.289.438-6.195 1.525-.915.514-1.849.571-2.878.362-3.583-.724-7.129-1.696-10.788-2.078-1.315-.133-2.783-.286-3.85-.934-1.659-.991-3.412-1.219-5.223-1.505-1.525-.229-2.878-.743-3.984-1.83-.438-.438-1.105-.743-1.734-.896-2.84-.628-5.642-.514-8.33.668-1.715.762-3.221 3.163-2.592 5.183.191.61.457 1.182.591 1.811.152.648-.096 1.258-.515 1.772a7.593 7.593 0 01-1.01 1.068c-.896.8-2.287.991-3.24.457-.572-.324-1.106-.705-1.659-1.067-.819-.534-1.62-1.125-2.497-1.563-2.077-1.048-4.231-1.868-6.671-1.83-1.086 0-1.887-.59-2.344-1.543a18.127 18.127 0 01-.706-1.773c-.362-.953-1.048-1.601-2.058-1.944-2.84-.991-5.718-1.81-8.806-1.467-1.773.19-3.26-.553-4.784-1.144-.153-.057-.344-.095-.439-.209-1.105-1.258-2.611-1.849-4.212-2.345-.705-.228-1.01-1.581-.515-2.058.686-.686 1.449-1.315 2.116-2.02.991-1.067 1.048-2.344.495-3.564-.305-.705-.953-1.277-1.372-1.963-.152-.248-.21-.629-.114-.896.343-.877.781-1.734 1.162-2.611.191-.419-.266-.991-.838-.839-.839.21-1.62.286-2.249-.476-.973-1.201-2.307-1.144-3.66-.8-1.277.324-2.516.857-3.793 1.162-.782.191-1.639.153-2.459.21-1.239-.877-2.65.362-3.87-.229-1.448-.686-2.553.362-3.83.534-.973.114-2.002.171-2.974.057-2.516-.324-5.013-.248-7.434.514-1.296.401-2.65.344-3.964.42-1.182.057-2.288.286-3.355.838-1.754.915-3.526 1.773-5.375 2.535-1.373.572-2.726 1.086-3.85 2.116-1.316 1.2-3.07 1.391-4.69.743-1.295-.515-2.496-.686-3.869-.496-1.315.172-2.668.172-4.002.077-.61-.058-1.201-.477-1.754-.782-.286-.152-.457-.457-.686-.686-1.315-1.277-2.688-.953-3.317.782-.324.895-.743 1.772-.934 2.706-.476 2.23-1.944 3.583-3.964 4.612a76.576 76.576 0 00-5.147 2.954c-1.544.953-3.03 1.982-3.03 4.06 0 .819-.648 1.429-1.125 2.077-.82 1.067-1.2 2.249-1.048 3.583.095.934.114 1.906.152 2.84.038.819-.229 1.563-.705 2.23-.667.914-1.277 1.848-2.001 2.725-.4.496-.896.915-1.43 1.277-.8.553-1.735.953-2.497 1.544-1.086.819-2.25 1.353-3.621 1.505-1.258.153-2.116.877-2.822 1.811-.38.514-.838 1.01-1.105 1.582-.553 1.219-1.449 2.077-2.668 2.725-1.354.724-2.078 1.925-2.822 3.221-1.258 2.211-2.363 4.555-4.364 6.327-.477.42-.82 1.011-1.106 1.563-1.182 2.459-2.402 4.86-4.079 7.052-.705.934-.896 2.039-1.03 3.145-.17 1.391.134 2.496 1.469 3.278 1.143.667 1.505 1.753 1.143 2.897-.362 1.105-.4 2.077-.057 3.201.877 2.783 1.106 5.604-.362 8.348-.153.286-.21.61-.267.915-.515 2.84-1.277 5.565-3.526 7.7-.172.152-.19.648-.057.876.495.82 1.086 1.601 1.639 2.383.59.819.934 1.677.457 2.668-.686 1.448-.171 2.801.439 4.136.495 1.067 1.43 1.753 2.478 2.249.876.419 1.848.648 2.782.952v-.095l.153-.19-.095.305h-.039c0 .991.4 1.81 1.297 2.325.915.514 1.524 1.181 1.772 2.172.172.648.686 1.106 1.315 1.354 1.43.59 2.536 1.562 3.527 2.63.419.457.915 1.067.934 1.62.095 2.001 1.162 3.621 2.096 5.298.991 1.715 2.402 3.03 4.384 3.754 1.41.515 2.612 1.296 3.812 2.211 2.745 2.059 5.395 4.25 8.425 5.966a19.708 19.708 0 004.594 1.867c.457.115 1.03.096 1.468-.076 1.086-.4 2.153-.896 3.202-1.372 1.83-.839 3.736-1.296 5.813-1.239 1.316.038 2.669-.095 3.984-.305 2.02-.305 3.946-.133 5.794.705.458.191.953.305 1.43.439a4.755 4.755 0 002.954-.077c1.087-.381 2.23-.667 3.336-1.048.934-.324 1.906-.629 2.707-1.181 1.258-.858 2.65-1.354 4.098-1.754 1.43-.419 2.84-1.124 4.288-1.258 2.154-.209 4.194-1.181 6.424-.819.476.095 1.01.076 1.448.248 1.925.743 3.489 1.867 4.308 3.773.381.896.705 1.792 1.144 2.649.838 1.563 2.268 2.268 4.079 2.325.495 0 1.01 0 1.506-.076 2.134-.362 4.307-.667 6.423-1.143 1.258-.286 2.249-.324 2.993.895.324.534.876.953 1.429 1.296 1.792 1.087 1.963 2.859 2.059 4.536.038 1.087-.324 2.211-.687 3.259-.304.896-1.048 1.678-1.258 2.573-.228 1.049.172 2.23-.114 3.24-.457 1.658-.629 3.45-2.001 4.784-.191.191-.191.572-.229.877-.019.152.057.305.114.457 2.192 5.146 2.974 6.232 7.32 10.044.724.648 1.467 1.315 2.23 1.925 1.296 1.048 2.192 2.363 2.916 3.812.362.705.591 1.448.839 2.21.553 1.811 1.315 3.526 2.382 5.165 1.258 1.887 1.296 4.193 1.849 6.309.115.4-.286.895-.362 1.353-.076.61-.191 1.277-.076 1.868.305 1.391.629 2.782 1.41 4.04.324.553.687 1.125.839 1.734.648 2.592.648 5.108-1.735 6.995-1.048.838-1.734 1.906-2.63 2.84-.953.972-1.563 2.077-1.734 3.373a16.904 16.904 0 01-1.868 5.889c-.553 1.029-.763 2.097-.782 3.221-.038 1.906-.038 3.812-.038 5.718 0 .991.286 1.905 1.029 2.611 1.925 1.848 3.222 4.078 4.079 6.48.934 2.553 2.23 4.955 3.507 7.337.934 1.715 1.64 3.354 1.621 5.375-.019 2.039.419 4.097 1.086 6.079.248.744.534 1.544.515 2.306-.038 2.268.686 4.365 1.143 6.538.515 2.42 1.678 4.459 3.241 6.365.819 1.01 1.582 2.039 2.439 3.011.896.991 1.335 2.135 1.64 3.393.591 2.477 1.353 4.917 2.668 7.166.324.553.572 1.143.801 1.734.533 1.411.724 2.764-.477 4.022a1.315 1.315 0 00-.095 1.753c.953 1.239 1.01 2.649 1.182 4.06.038.304.209.705.438.838 1.735.934 3.488 1.849 5.28 2.706.381.191 1.067.153 1.448-.057 1.64-.857 3.298-1.486 5.242-1.334.782.057 1.658-.229 2.402-.534 1.41-.571 2.84-.762 4.403-.762 1.639 0 3.278-.495 4.918.191.419.19 1.105.305 1.448.095 1.43-.82 3.431.095 4.632-1.41.248-.305.896-.439 1.372-.458 2.459-.038 4.46-1.086 6.462-2.325 2.84-1.753 5.108-4.098 7.586-6.213 1.639-1.391 3.126-2.916 4.27-4.65 1.162-1.754 2.611-3.278 3.774-5.013.648-.934 1.353-1.848 2.363-2.439 2.154-1.22 3.221-3.164 3.927-5.337.495-1.505.896-3.049 1.315-4.593.21-.781.19-1.544-.267-2.287-.648-1.048-.057-1.868.724-2.497 1.144-.933 2.364-1.734 3.889-2.058 1.62-.362 3.24-.8 4.67-1.715 1.143-.743 2.115-1.696 2.115-3.049 0-1.62.401-3.145.706-4.708.152-.781.095-1.563-.134-2.344-.743-2.44-1.41-4.879-2.135-7.319-.267-.857-.095-1.734.534-2.21 3.66-2.764 7.167-5.68 10.769-8.501 1.011-.781 2.269-1.353 3.508-1.81 1.429-.515 2.668-1.296 3.983-2.001 2.936-1.544 4.784-3.85 6.042-6.728.591-1.353.934-2.611.649-4.117-.248-1.391-.039-2.839 0-4.269 0-1.105.266-2.249.038-3.316-.42-1.925-.172-3.755.286-5.622.228-.972-.115-1.944-1.087-2.478-1.754-.953-2.363-2.535-2.935-4.231-.725-2.154-.42-4.364-.82-6.537-.076-.419.114-.934.324-1.353.496-.972.496-1.944-.4-2.573-1.773-1.277-2.021-2.706-1.106-4.574.706-1.43 1.125-2.935 2.383-4.117 1.468-1.353 1.792-3.373 2.783-5.012.495-.839 1.01-1.582 1.963-2.078a12.425 12.425 0 004.079-3.487c2.859-3.755 6.366-6.919 9.931-10.044 2.077-1.83 4.002-3.831 6.747-4.841.305-.115.572-.343.839-.534 6.309-4.688 11.284-10.311 14.467-17.343 1.182-2.592 2.287-5.241 4.212-7.509 1.239-1.487 1.887-3.316 2.478-5.165.801-2.497.534-5.013.744-7.509.038-.591-1.316-1.392-1.926-1.163-.152.057-.343.095-.457.172-1.887 1.486-4.251 1.848-6.519 2.21-3.278.515-6.633.648-9.778 1.83-.438.172-1.01.21-1.487.172-1.944-.191-3.621.438-5.279 1.238-.439.21-.915.382-1.392.515-.667.191-1.334.057-1.925-.267-.419-.248-.801-.572-1.163-.896a581.589 581.589 0 01-3.526-3.392c-.419-.4-.305-.762-.076-1.22.915-1.791.915-2.211-.458-3.278-.915-.705-1.772-1.429-2.439-2.363-1.43-1.982-3.45-3.431-5.147-5.184-1.01-1.029-2.363-1.696-3.755-2.325-2.44-1.106-4.441-2.706-5.07-5.432-.324-1.391-.858-2.725-1.296-4.097-.458-1.411-1.391-2.516-2.592-3.431-1.049-.781-2.097-1.563-3.164-2.344-.858-.61-1.316-1.468-1.354-2.459-.095-2.706-.972-5.298-1.486-7.947-.496-2.535-2.078-4.269-4.327-5.546-.42-.248-.972-.305-1.354-.61-.362-.286-.629-.743-.819-1.163-.172-.438-.305-.934-.267-1.391.172-1.658-.343-3.088-1.449-4.364-.514-.61-.857-1.354-1.315-2.021-1.982-2.935-4.06-5.813-4.937-9.281-.152-.61-.59-1.125-.876-1.696-.229-.477.076-.953.686-.953.667 0 1.353.19 1.906-.305.476-.458.972-.877 1.696-.858.915.038 1.525.591 2.059 1.22.419.495.762 1.048 1.182 1.525 1.925 2.21 3.183 4.84 5.032 7.07 1.067 1.277 1.849 2.63 2.192 4.212.209.972.876 1.696 1.925 2.02 2.077.629 3.374 1.963 4.136 3.85.229.591.553 1.163.877 1.716.591.991.858 2.039.781 3.201-.038.477.038.953.057 1.43.134 2.573 1.525 4.479 3.622 5.984.801.572 1.735.972 2.535 1.544 1.334.991 2.459 2.154 2.916 3.774.553 1.886 1.697 3.411 3.088 4.84 1.125 1.144 2.249 2.345 3.183 3.641 1.144 1.581 1.944 3.335 1.468 5.355-.153.629-.229 1.258.076 1.849 1.144 2.134 1.411 4.536 2.211 6.785.324.914.667 1.791 1.163 2.611.477.781 1.201 1.105 2.078 1.105.819 0 1.658-.114 2.497-.171 1.219-.096 2.344-.42 3.106-1.354 1.049-1.277 2.402-1.581 4.003-1.41 1.887.21 3.698-.152 5.261-1.201 1.01-.686 2.097-.914 3.259-1.105.992-.152 1.964-.496 2.631-1.277.8-.896 1.868-1.315 2.973-1.677 1.754-.534 3.526-.991 5.242-1.62 1.391-.515 2.726-1.182 4.098-1.792.648-.266 1.125-.743 1.239-1.391.324-1.62 1.448-2.458 2.992-2.859 2.097-.552 4.175-1.181 6.29-1.543 1.487-.248 2.516-.782 2.86-2.211.209-.858.705-1.449 1.639-1.582 1.83-.267 3.05-1.086 3.679-2.802.266-.743 1.048-1.219 1.867-1.486.629-.21 1.335-.267 1.907-.572.362-.191.705-.686.762-1.086.114-.934 0-1.906.095-2.859.076-.801.458-1.544 1.201-2.001 2.497-1.506 3.965-3.793 5.261-6.175.858-1.563.667-2.383-.82-3.736-.972-.896-1.811-1.868-2.497-2.954-.552-.858-1.334-1.372-2.44-1.486-1.334-.134-2.687-.248-3.964-.553-.763-.191-1.544-.629-2.135-1.163-1.22-1.124-2.097-2.458-2.306-4.116-.172-1.411-.401-2.821-.61-4.231 0-.134-.172-.343-.267-.343-.305 0-.743 0-.915.19-1.906 1.982-4.041 3.812-5.547 6.061-1.22 1.81-2.802 2.668-4.975 2.515-1.696-.114-3.316-.057-4.917.591-.648.267-1.315-.114-1.792-.591-.591-.571-1.067-1.2-1.163-2.058-.152-1.582-.285-3.164-.457-4.726-.038-.305-.21-.61-.4-.839-.21-.229-.496-.495-.782-.534-.267-.038-.686.153-.838.363-.363.514-.61 1.105-.915 1.677-.382.686-.953.686-1.525 0-.629-.763-1.125-1.563-1.277-2.554-.229-1.639-1.144-2.954-2.307-4.136-.781-.819-1.639-1.582-2.478-2.344-.343-.324-.876-.534-1.124-.915a87.527 87.527 0 01-2.878-5.012c-.21-.382-.191-.934-.134-1.373.077-.629.21-1.257.439-1.848.095-.248.419-.572.667-.61.972-.153 1.963-.286 2.935-.267.972.019 2.04.076 2.859.477.648.324 1.03 1.2 1.487 1.867a290.531 290.531 0 013.717 5.661c.553.876 1.315 1.41 2.325 1.658.477.114.972.248 1.468.343 1.163.248 2.173.667 2.954 1.639.496.591 1.296.953 1.983 1.391 1.849 1.22 4.021 1.506 6.118 1.982.858.191 1.62.096 2.402-.305 1.182-.591 2.363-1.2 3.583-1.677 1.43-.553 2.745-.057 3.374 1.201.515.991.972 2.02 1.41 3.049.439 1.01 1.258 1.43 2.326 1.487 4.689.305 9.244 1.315 13.857 2.001 1.677.248 3.259.362 4.956.171 2.802-.324 5.565-1.143 8.444-.495.591.133 1.315-.114 1.944-.286 1.963-.534 3.964-.534 5.966-.457.686.019 1.277.324 1.601.972.286.59.724 1.067 1.315 1.391.763.419 1.334 1.029 1.525 1.811.381 1.581 1.296 2.439 3.012 2.744 1.143.21 2.058.915 2.802 1.887 1.258 1.658 3.087 2.363 5.184 2.458l1.334.057c.019-.038.057-.057.077-.076l.209-.114-.095.21h-.172c-.781 1.086-1.715 1.734-3.221 1.162-.21-.076-.667.134-.8.324-.134.21-.096.667.057.839 1.467 1.467 2.897 2.973 4.479 4.345 2.84 2.478 4.117 2.516 7.434.496 1.277-.801 2.134-1.792 2.268-3.259a.146.146 0 01-.076-.039l-.038-.247.133.133s-.019.076-.019.133c.152.058.324.115.343.21.762 2.078 1.62 4.117 1.468 6.385-.077.934-.096 1.982.247 2.82.896 2.249 1.22 4.594 1.83 6.9.591 2.287 2.097 4.326 2.154 6.785 0 .438.343.876.572 1.315.801 1.391 1.525 2.839 2.478 4.135 1.201 1.582 1.868 3.355 2.554 5.146.343.896.724 1.792.972 2.706.496 1.887 1.372 3.526 2.859 4.937.82.762 1.563 1.715 1.963 2.725.896 2.211 2.25 4.25 2.555 6.69.171 1.448.953 2.706 1.868 3.849.4.496.895.934 1.41 1.335 1.22.952 3.088.724 3.984-.496.286-.381.495-.819.705-1.258.381-.743.953-1.334 1.773-1.62 1.086-.362 1.467-1.124 1.81-2.077.439-1.22 1.201-2.23 2.497-2.859.82-.4 1.049-1.182.953-2.039-.095-.782-.247-1.563-.4-2.345-.191-.952-.171-1.886.286-2.782.286-.572.496-1.182.781-1.753.649-1.373.706-2.707.077-4.136-.324-.705-.42-1.525-.439-2.325a79.756 79.756 0 010-5.222c.038-1.068.667-1.735 1.792-1.963.477-.096 1.144-.191 1.334-.496.877-1.315 2.211-1.81 3.66-2.268.629-.21 1.048-.781 1.239-1.41.229-.763.362-1.639 1.163-2.04 2.115-1.067 3.411-3.03 5.279-4.345.82-.591 1.43-1.315 1.964-2.134.61-.934 1.448-1.735 2.134-2.631.515-.667 1.22-.991 2.002-1.315 2.764-1.181 4.651-3.011 4.727-6.117.019-.858.686-1.392 1.448-1.811 1.22-.667 2.536-.762 3.889-.724 3.107.114 5.985-.515 8.539-2.23 1.087-.724 2.611-.572 3.584-1.582.057-.038.686.229.781.457.381.858.667 1.773.953 2.688 1.029 3.144 2.745 5.755 6.023 7.223.458.21.915.4 1.354.629.705.362.876.915.648 1.982-.324 1.467-.134 1.963 1.391 2.554.991.381 1.754.877 2.211 1.791.076.134.153.286.229.42 1.029 2.039 1.582 4.116.819 6.384-.247.725-.114 1.563-.076 2.364.019.648 1.049 1.6 1.658 1.562 1.849-.076 3.679-.152 5.28-1.238 1.22-.839 2.497-1.601 3.755-2.364.229-.152.763-.209.896-.076.915.877 2.211 1.468 2.478 2.859.21 1.086.515 2.172.877 3.221.915 2.687 1.315 5.565 3.183 7.947.381.496.534 1.163.705 1.773.191.61.191 1.257.4 1.867.801 2.345.82 4.651.115 7.014-.191.591-.362 1.296-.191 1.849.553 1.772.286 3.449-.324 5.126-.686 1.925-.457 3.431 1.773 4.231.152.058.324.153.419.267 1.982 2.344 3.984 4.67 5.89 7.052.953 1.182.82 2.706 1.029 4.098.038.304.21.609.381.876.534.858.648 1.773.591 2.745-.076 1.01.324 1.886 1.068 2.592 1.067 1.029 2.115 2.001 2.439 3.506.077.401.591.744.953 1.068.496.419 1.201.705 1.525 1.219.839 1.335 2.173 1.925 3.527 2.554 1.639.763 3.259 1.601 4.879 2.421l-.133.133c.114 0 .209 0 .324-.019-.057-.038-.134-.057-.191-.095.305-.286.61-.572.953-.82.61-.438.801-1.01.515-1.639-.591-1.296-1.01-2.744-1.925-3.773-1.182-1.334-1.449-2.764-1.506-4.346-.038-.934 0-1.887 0-2.82 0-1.144-.286-2.249-1.048-3.088-1.278-1.429-2.726-2.725-4.099-4.078-2.039-.725-3.297-2.497-5.337-3.298-1.334-.533-2.344-1.715-2.325-3.354a3.34 3.34 0 00-1.125-2.535c-1.086-1.01-1.582-2.306-2.192-3.564-1.448-.286-2.268-1.162-2.458-2.534-.134-.953-.115-1.868.209-2.802 1.201-3.469 2.44-6.918 2.707-10.597 0-.152.114-.305.229-.4.247-.171.533-.381.819-.419.286-.038.667.057.896.229.248.171.458.514.496.781.228 1.715 1.277 2.478 3.069 2.459.495 0 1.086 0 1.467.247 1.716 1.182 3.774 1.944 4.765 4.003 1.144 2.344 3.374 3.811 5.395 5.45.457-.171 1.048-.61 1.315-.476.991.514 2.077 1.01 1.963 2.458-.095 1.239.038 2.516.095 3.774 0 .362.896.648 1.258.457.153-.076.343-.095.458-.19 1.925-1.754 3.869-3.488 5.737-5.279.477-.458.896-.934 1.582-1.068 2.592-.514 4.441-2.134 6.309-3.735 1.144-.972 1.754-2.192 2.154-3.659.61-2.211.934-4.308-.038-6.48-.057-.153-.038-.305-.057-.477-.401-2.859-1.525-5.508-2.917-8.062-.552-1.01-1.296-1.81-2.096-2.63-1.62-1.658-3.622-2.801-5.566-4.04-1.277-.801-2.421-1.677-2.764-3.24-.171-.801-.819-1.372-1.448-1.887-.496-.419-1.03-.819-1.487-1.277-.229-.229-.496-.533-.496-.8-.019-1.677-.61-3.488 1.163-4.822.801-.61 1.239-1.487 1.43-2.459.114-.667.457-1.219 1.067-1.543 1.887-1.011 3.793-2.021 5.737-2.955.4-.209.991-.19 1.468-.114.476.057.934.362 1.41.477 1.201.266 2.116.705 2.326 2.077.133.953.838 1.696 1.677 2.287.858.61 2.173.172 2.345-.839.076-.457 0-.952 0-1.41l.114.114.076-.266-.152.133c-.153-.229-.343-.457-.324-.667 0-.248.324-.629.552-.667 2.326-.362 4.308-1.62 6.576-2.211 1.887-.495 3.584-1.639 4.499-3.488.267-.533.686-.533 1.143-.266.553.343 1.068.781 1.811.438 1.353-.61 2.764-.991 4.289-1.182 1.124-.133 2.211-.629 3.316-.991 1.144-.381 2.097-.972 2.421-2.191.152-.515.667-.61 1.048-.858 5.757-3.755 8.33-7.776 8.749-13.475.057-.762-.343-1.429.667-1.963 1.544-.819 2.345-2.21 2.574-3.868.133-.992.438-1.906 1.277-2.497 1.181-.858 1.563-1.906 1.525-3.297-.039-.763.171-1.62.571-2.249.896-1.372.286-2.44-.591-3.45-.514-.591-1.219-1.067-1.868-1.582-.514-.4-1.143-.381-1.772-.343v.096h-.286l.172-.077h.133c.076-.419.076-.895.324-1.181.515-.591 1.182-1.029 1.792-1.563.514-.458.514-1.067.171-1.658-.553-.991-1.525-1.544-2.363-2.23h-.115l-.228-.191.305.153s.019 0 .038.019c.286-.038.591-.057.838-.172 1.087-.514 1.335-1.505.572-2.306-.553-.572-1.105-1.239-1.811-1.601-2.306-1.238-3.964-5.107-5.165-7.394-.553-1.011-1.239-1.868-2.364-2.345-.61-.266-1.181-.59-1.772-.876-1.373-.667-1.773-1.792-1.639-3.183.095-.953.171-1.887.838-2.687.515-.61 1.049-1.258 1.353-1.963.61-1.392 1.754-2.307 3.012-3.069 1.277-.781 2.65-1.315 4.232-1.334.59 0 .838-.496.953-.953.114-.457.171-.934.171-1.41 0-.82-.686-1.639-1.448-1.677-.82-.039-1.659.076-2.478.038-.648-.019-1.335-.057-1.945-.248-.609-.191-1.162-.61-1.734-.915-.667-.343-1.315-.152-1.906.134-1.22.609-1.944 1.696-2.859 2.63-.305.324-.839.495-1.296.629-.782.209-1.621-.153-2.002-1.049-.533-1.238-1.143-2.191-2.649-2.573-1.468-.381-2.535-1.486-3.507-2.592-.839-.952-.153-2.839 1.105-3.068.496-.076.991-.076 1.506-.114 1.106-.077 1.925-.572 2.23-1.601.534-1.83.839-3.736 3.031-4.631.514-.21.762-.992 1.105-1.544.496-.82.896-1.696 1.449-2.478.267-.362.762-.648 1.201-.743 1.296-.305 2.249.362 3.068 1.201.687.705.477 1.448.039 2.191-.153.286-.286.572-.458.839-.629 1.01-.839 2.058-.286 3.164.21.438.305.914.496 1.353.324.743-.248 1.143-.629 1.62-.095.114-.229.286-.229.419.038.267.076.629.267.781.21.172.648.267.896.172 1.105-.438 1.925-1.239 2.592-2.173 1.716-2.458 4.365-3.335 7.205-3.811.457-.077.953.114 1.43.247.495.115.953.305 1.429.439 2.04.629 2.021.629 1.963 2.573-.038 1.581-.019 3.163-.019 4.745 0 .839.401 1.525.972 2.135.477.495 1.011.819 1.754.629.477-.134.953-.305 1.43-.401.857-.171 1.696 0 2.363.553.629.515 1.182 1.125 1.716 1.715.552.61.457 1.011-.382 2.002-.648.8-.781 1.086-.19 1.62 1.887 1.677 2.344 3.735 2.039 6.06-.076.629-.133 1.277-.114 1.906.038 1.296.877 2.325 1.487 3.431.057.095.305.133.457.114.877-.095 1.525-.61 2.135-1.163.896-.819 1.906-1.258 3.164-1.143.495.057 1.01-.038 1.506.019 1.201.171 1.81-.515 2.459-1.277 1.353-1.62 1.81-3.335 1.029-5.336-.343-.896-.534-1.83-.82-2.745-1.163-3.697-1.143-3.735-3.793-6.575-1.01-1.067-2.001-2.135-2.668-3.431-.61-1.181-1.544-2.039-2.707-2.725a55.554 55.554 0 01-2.478-1.62c-.858-.61-1.105-2.173-.495-3.011.381-.515.762-1.087 1.296-1.43.972-.667 1.639-1.543 2.42-2.344 1.964-2.058 2.745-4.193 1.716-6.918-.744-1.982.057-3.736 1.62-5.165.477-.438.991-.839 1.468-1.296.457-.438.915-.915 1.315-1.41.591-.744.591-1.868 1.696-2.249 1.43-.477 2.002.895 3.05 1.296 1.144.457 2.211.571 3.374.076 1.086-.477 2.001-1.086 2.764-1.982 1.258-1.506 2.306-3.164 2.973-4.936 1.067-2.821 2.84-5.394 3.412-8.405.114-.61.343-1.277.743-1.754 2.078-2.515 2.287-5.527 2.573-8.5.248-2.535 1.392-4.898 1.316-7.49 0-.457.152-.991.419-1.353 1.163-1.601.762-3.335.591-5.069-.343-3.183-1.277-6.214-2.993-8.977-.705-1.144-1.086-2.306-1.124-3.583-.077-2.687-.153-5.394-.21-8.081 0-.248.21-.495.324-.743.134.076.324.114.4.228 1.068 1.43 2.307 2.707 3.546 4.003 1.277 1.315 1.01 3.335 1.906 4.86.4.686.781 1.391 1.162 2.096.915 1.715 1.602 3.488 1.697 5.432 0 .324 0 .648.114.953.629 2.096.82 4.345 2.421 6.156.705.8 1.048 2.02 1.144 3.087.152 1.639.629 3.107 1.41 4.517.572 1.029.782 2.077.724 3.202 0 .476 0 .953.115 1.41.286 1.125.896 2.059 2.058 2.516.21.076.801-.152.801-.267.076-.61 0-1.239-.019-1.868-.038-1.01.495-1.276 1.582-1.162 1.086.114 1.734.896 2.63 1.277.134.057.42.095.458.038.171-.248.419-.553.381-.82-.191-1.124-.61-2.325-1.677-2.782-2.135-.934-2.593-3.278-4.461-4.384-.495-1.181-1.124-2.306-1.429-3.525-.382-1.525-.534-3.126-.763-4.689-.076-.476-.057-.953-.076-1.429-.152-3.183 5.909.705 3.088-3.774l-.095-.457z" fill="#F7F7F7"/></svg>