<svg width="1439" height="1009" fill="none" xmlns="http://www.w3.org/2000/svg"><path d="M47.144 20.386L0 49.248V1009h1440V49.248l-59.25-31.763c-37.86-20.297-83.36-20.344-121.27-.125-37.41 19.958-82.26 20.184-119.88.604l-3.53-1.84c-37.42-19.474-82.26-19.082-119.43.846-37.462 20.08-82.721 20.154-120.137-.003a126.65 126.65 0 00-118.994-.61l-2.149 1.13c-37.811 19.873-83.225 19.66-120.955-.365-37.691-20.006-83.09-20.08-120.74.002a128.276 128.276 0 01-120.513.124l-2.224-1.18a133.005 133.005 0 00-118.583-3.056l-23.883 11.14a113.177 113.177 0 01-105.034-4.904C127.42-1.838 82.732-1.402 47.144 20.386z" fill="url(#paint0_linear_67_6914)"/><defs><linearGradient id="paint0_linear_67_6914" x1="720" y1="-15" x2="720" y2="1009" gradientUnits="userSpaceOnUse"><stop stop-color="#7CE0FF" stop-opacity=".7"/><stop offset=".729" stop-color="#43D8C6" stop-opacity="0"/></linearGradient></defs></svg>