<svg width="977" height="451" fill="none" xmlns="http://www.w3.org/2000/svg"><path d="M1 68.575c25.56 9.507 51.427 14.019 75.938 15.28 84.046 4.329 150.938-73.053 234.616-82.033C326.383.231 342.271.848 359 4.575c96.5 21.5 16-1.5 159.5 46s209.5-5.5 232-7.5S891 0 906 27.5c15 27.5 100.4 30.71 58 163-12.5 39-97.5 73-119 111.5-16.777 30.042-4 43.075-11.5 66.575s-18 54.5-83 54.5-290-40-334-44-65.5-10.5-109-10.5-75.5 26.5-84 34-24.5 27-42.5 35.5-89 20.5-127.5 0" stroke="#888080" stroke-width="2" stroke-dasharray="2 2"/></svg>