<svg width="44" height="43" fill="none" xmlns="http://www.w3.org/2000/svg"><circle cx="21.692" cy="21.338" r="21.338" fill="#f75301"/><path fill-rule="evenodd" clip-rule="evenodd" d="M21.008 9.03c-2 0-4.843.775-7.211 2.48-2.417 1.74-4.416 4.515-4.416 8.462 0 2.372.794 4.17 1.597 5.375.347.52.696.93.984 1.232l-1.172 4.688a1.368 1.368 0 001.938 1.555l4.936-2.468c2.796.937 6.627.618 9.813-.846 3.494-1.605 6.525-4.746 6.525-9.536 0-4.318-2.203-7.12-4.932-8.778-2.662-1.616-5.832-2.165-8.063-2.165zM14.81 26.46a1.368 1.368 0 00-.498-1.42l-.005-.005a4.171 4.171 0 01-.284-.26 6.236 6.236 0 01-.77-.945c-.564-.847-1.137-2.127-1.137-3.858 0-2.892 1.42-4.904 3.278-6.242 1.906-1.373 4.192-1.965 5.613-1.965 1.873 0 4.516.477 6.642 1.768 2.057 1.249 3.616 3.234 3.616 6.44 0 3.416-2.098 5.747-4.93 7.049-2.9 1.332-6.25 1.423-8.21.584a1.368 1.368 0 00-1.15.034l-2.811 1.405.646-2.586zm3.586-11.871a1.04 1.04 0 011.31.426l1.086 1.832a1 1 0 01-.192 1.267c-.173.154-.412.343-.635.52-.122.096-.24.189-.338.27 1.025 1.903 2.474 2.8 3.136 3.131l.8-.92a1.16 1.16 0 011.485-.227c.434.275 1.034.646 1.58.957.363.207.61.63.512 1.101-.176.846-.56 1.457-1.087 1.865-.517.402-1.117.565-1.663.615-1.073.097-2.08-.235-2.263-.298a.898.898 0 01-.126-.055 16.056 16.056 0 01-2.565-1.723c-1.207-.993-2.552-2.422-3.03-4.163-.35-1.279-.18-2.308.274-3.093.446-.772 1.13-1.251 1.716-1.505z" fill="#fff"/></svg>